%TF.GenerationSoftware,KiCad,Pcbnew,(6.0.0)*%
%TF.CreationDate,2022-02-23T07:46:13+01:00*%
%TF.ProjectId,4_Touch_Sensor_Board,345f546f-7563-4685-9f53-656e736f725f,rev?*%
%TF.SameCoordinates,Original*%
%TF.FileFunction,Copper,L1,Top*%
%TF.FilePolarity,Positive*%
%FSLAX46Y46*%
G04 Gerber Fmt 4.6, Leading zero omitted, Abs format (unit mm)*
G04 Created by KiCad (PCBNEW (6.0.0)) date 2022-02-23 07:46:13*
%MOMM*%
%LPD*%
G01*
G04 APERTURE LIST*
G04 Aperture macros list*
%AMRoundRect*
0 Rectangle with rounded corners*
0 $1 Rounding radius*
0 $2 $3 $4 $5 $6 $7 $8 $9 X,Y pos of 4 corners*
0 Add a 4 corners polygon primitive as box body*
4,1,4,$2,$3,$4,$5,$6,$7,$8,$9,$2,$3,0*
0 Add four circle primitives for the rounded corners*
1,1,$1+$1,$2,$3*
1,1,$1+$1,$4,$5*
1,1,$1+$1,$6,$7*
1,1,$1+$1,$8,$9*
0 Add four rect primitives between the rounded corners*
20,1,$1+$1,$2,$3,$4,$5,0*
20,1,$1+$1,$4,$5,$6,$7,0*
20,1,$1+$1,$6,$7,$8,$9,0*
20,1,$1+$1,$8,$9,$2,$3,0*%
%AMFreePoly0*
4,1,6,1.000000,0.000000,0.500000,-0.750000,-0.500000,-0.750000,-0.500000,0.750000,0.500000,0.750000,1.000000,0.000000,1.000000,0.000000,$1*%
%AMFreePoly1*
4,1,6,0.500000,-0.750000,-0.650000,-0.750000,-0.150000,0.000000,-0.650000,0.750000,0.500000,0.750000,0.500000,-0.750000,0.500000,-0.750000,$1*%
G04 Aperture macros list end*
%TA.AperFunction,SMDPad,CuDef*%
%ADD10RoundRect,0.225000X-0.225000X-0.250000X0.225000X-0.250000X0.225000X0.250000X-0.225000X0.250000X0*%
%TD*%
%TA.AperFunction,SMDPad,CuDef*%
%ADD11FreePoly0,0.000000*%
%TD*%
%TA.AperFunction,SMDPad,CuDef*%
%ADD12FreePoly1,0.000000*%
%TD*%
%TA.AperFunction,SMDPad,CuDef*%
%ADD13RoundRect,0.135000X0.185000X-0.135000X0.185000X0.135000X-0.185000X0.135000X-0.185000X-0.135000X0*%
%TD*%
%TA.AperFunction,SMDPad,CuDef*%
%ADD14R,1.200000X0.400000*%
%TD*%
%TA.AperFunction,ComponentPad*%
%ADD15RoundRect,0.250000X-0.600000X0.600000X-0.600000X-0.600000X0.600000X-0.600000X0.600000X0.600000X0*%
%TD*%
%TA.AperFunction,ComponentPad*%
%ADD16C,1.700000*%
%TD*%
%TA.AperFunction,SMDPad,CuDef*%
%ADD17O,10.500000X13.250000*%
%TD*%
%TA.AperFunction,SMDPad,CuDef*%
%ADD18RoundRect,0.225000X-0.250000X0.225000X-0.250000X-0.225000X0.250000X-0.225000X0.250000X0.225000X0*%
%TD*%
%TA.AperFunction,SMDPad,CuDef*%
%ADD19RoundRect,0.218750X0.256250X-0.218750X0.256250X0.218750X-0.256250X0.218750X-0.256250X-0.218750X0*%
%TD*%
%TA.AperFunction,ViaPad*%
%ADD20C,0.800000*%
%TD*%
%TA.AperFunction,Conductor*%
%ADD21C,0.250000*%
%TD*%
G04 APERTURE END LIST*
D10*
%TO.P,C2,1*%
%TO.N,Pad_1*%
X102225000Y-64000000D03*
%TO.P,C2,2*%
%TO.N,GND*%
X103775000Y-64000000D03*
%TD*%
D11*
%TO.P,JP6,1,A*%
%TO.N,GND*%
X131775000Y-59500000D03*
D12*
%TO.P,JP6,2,B*%
%TO.N,Net-(JP6-Pad2)*%
X133225000Y-59500000D03*
%TD*%
D11*
%TO.P,JP1,1,A*%
%TO.N,+3V3*%
X119800000Y-55000000D03*
D12*
%TO.P,JP1,2,B*%
%TO.N,Net-(JP1-Pad2)*%
X121250000Y-55000000D03*
%TD*%
D11*
%TO.P,JP2,1,A*%
%TO.N,+3V3*%
X125787500Y-55000000D03*
D12*
%TO.P,JP2,2,B*%
%TO.N,Net-(JP2-Pad2)*%
X127237500Y-55000000D03*
%TD*%
D13*
%TO.P,R1,1*%
%TO.N,GND*%
X137500000Y-58260000D03*
%TO.P,R1,2*%
%TO.N,Net-(D1-Pad1)*%
X137500000Y-57240000D03*
%TD*%
D10*
%TO.P,C4,1*%
%TO.N,Pad_3*%
X133225000Y-64000000D03*
%TO.P,C4,2*%
%TO.N,GND*%
X134775000Y-64000000D03*
%TD*%
%TO.P,C1,1*%
%TO.N,Pad_0*%
X86725000Y-64000000D03*
%TO.P,C1,2*%
%TO.N,GND*%
X88275000Y-64000000D03*
%TD*%
D11*
%TO.P,JP5,1,A*%
%TO.N,GND*%
X125775000Y-59500000D03*
D12*
%TO.P,JP5,2,B*%
%TO.N,Net-(JP5-Pad2)*%
X127225000Y-59500000D03*
%TD*%
D14*
%TO.P,U1,1,TP0*%
%TO.N,Pad_0*%
X114850000Y-58972500D03*
%TO.P,U1,2,TP1*%
%TO.N,Pad_1*%
X114850000Y-58337500D03*
%TO.P,U1,3,TP2*%
%TO.N,Pad_2*%
X114850000Y-57702500D03*
%TO.P,U1,4,TP3*%
%TO.N,Pad_3*%
X114850000Y-57067500D03*
%TO.P,U1,5,AHLB*%
%TO.N,Net-(JP1-Pad2)*%
X114850000Y-56432500D03*
%TO.P,U1,6,VDD*%
%TO.N,+3V3*%
X114850000Y-55797500D03*
%TO.P,U1,7,TOG*%
%TO.N,Net-(JP2-Pad2)*%
X114850000Y-55162500D03*
%TO.P,U1,8,LPMB*%
%TO.N,Net-(JP3-Pad2)*%
X114850000Y-54527500D03*
%TO.P,U1,9,MOT0*%
%TO.N,Net-(JP6-Pad2)*%
X109650000Y-54527500D03*
%TO.P,U1,10,VSS*%
%TO.N,GND*%
X109650000Y-55162500D03*
%TO.P,U1,11,OD*%
%TO.N,Net-(JP5-Pad2)*%
X109650000Y-55797500D03*
%TO.P,U1,12,SM*%
%TO.N,Net-(JP4-Pad2)*%
X109650000Y-56432500D03*
%TO.P,U1,13,TPQ3*%
%TO.N,Out_3*%
X109650000Y-57067500D03*
%TO.P,U1,14,TPQ2*%
%TO.N,Out_2*%
X109650000Y-57702500D03*
%TO.P,U1,15,TPQ1*%
%TO.N,Out_1*%
X109650000Y-58337500D03*
%TO.P,U1,16,TPQ0*%
%TO.N,Out_0*%
X109650000Y-58972500D03*
%TD*%
D15*
%TO.P,J1,1,Pin_1*%
%TO.N,Out_0*%
X99000000Y-55500000D03*
D16*
%TO.P,J1,2,Pin_2*%
%TO.N,GND*%
X99000000Y-58040000D03*
%TO.P,J1,3,Pin_3*%
%TO.N,Out_1*%
X96460000Y-55500000D03*
%TO.P,J1,4,Pin_4*%
%TO.N,GND*%
X96460000Y-58040000D03*
%TO.P,J1,5,Pin_5*%
%TO.N,Out_2*%
X93920000Y-55500000D03*
%TO.P,J1,6,Pin_6*%
%TO.N,GND*%
X93920000Y-58040000D03*
%TO.P,J1,7,Pin_7*%
%TO.N,Out_3*%
X91380000Y-55500000D03*
%TO.P,J1,8,Pin_8*%
%TO.N,GND*%
X91380000Y-58040000D03*
%TO.P,J1,9,Pin_9*%
%TO.N,+3V3*%
X88840000Y-55500000D03*
%TO.P,J1,10,Pin_10*%
%TO.N,GND*%
X88840000Y-58040000D03*
%TD*%
D17*
%TO.P,H2,1,1*%
%TO.N,Pad_1*%
X103000000Y-72750000D03*
%TD*%
D11*
%TO.P,JP3,1,A*%
%TO.N,+3V3*%
X131775000Y-55000000D03*
D12*
%TO.P,JP3,2,B*%
%TO.N,Net-(JP3-Pad2)*%
X133225000Y-55000000D03*
%TD*%
D11*
%TO.P,JP4,1,A*%
%TO.N,GND*%
X119775000Y-59500000D03*
D12*
%TO.P,JP4,2,B*%
%TO.N,Net-(JP4-Pad2)*%
X121225000Y-59500000D03*
%TD*%
D17*
%TO.P,H4,1,1*%
%TO.N,Pad_3*%
X133500000Y-72750000D03*
%TD*%
%TO.P,H1,1,1*%
%TO.N,Pad_0*%
X87500000Y-72750000D03*
%TD*%
D18*
%TO.P,C5,1*%
%TO.N,+3V3*%
X117500000Y-54225000D03*
%TO.P,C5,2*%
%TO.N,GND*%
X117500000Y-55775000D03*
%TD*%
D10*
%TO.P,C3,1*%
%TO.N,Pad_2*%
X117725000Y-64000000D03*
%TO.P,C3,2*%
%TO.N,GND*%
X119275000Y-64000000D03*
%TD*%
D19*
%TO.P,D1,1,K*%
%TO.N,Net-(D1-Pad1)*%
X137500000Y-55787500D03*
%TO.P,D1,2,A*%
%TO.N,+3V3*%
X137500000Y-54212500D03*
%TD*%
D17*
%TO.P,H3,1,1*%
%TO.N,Pad_2*%
X118500000Y-72750000D03*
%TD*%
D20*
%TO.N,GND*%
X119750000Y-61250000D03*
X121000000Y-64000000D03*
X130000000Y-60000000D03*
X111250000Y-55252000D03*
X106000000Y-64000000D03*
X137000000Y-64000000D03*
X137500000Y-59250000D03*
X117500000Y-57000000D03*
X124000000Y-60000000D03*
X90000000Y-64000000D03*
%TO.N,+3V3*%
X120000000Y-57000000D03*
X137500000Y-53000000D03*
X130500000Y-53000000D03*
X124000000Y-55000000D03*
%TO.N,Net-(JP4-Pad2)*%
X121250000Y-61250000D03*
X112500000Y-58000000D03*
%TD*%
D21*
%TO.N,+3V3*%
X118500000Y-54750000D02*
X118500000Y-56250000D01*
X118500000Y-56250000D02*
X119250000Y-57000000D01*
X117975000Y-54225000D02*
X118500000Y-54750000D01*
X117500000Y-54225000D02*
X117975000Y-54225000D01*
X119250000Y-57000000D02*
X120000000Y-57000000D01*
X131775000Y-54275000D02*
X131775000Y-55000000D01*
X130500000Y-53000000D02*
X131775000Y-54275000D01*
X137500000Y-53000000D02*
X137500000Y-54212500D01*
%TO.N,Pad_0*%
X112027500Y-58972500D02*
X109000000Y-62000000D01*
X86725000Y-71975000D02*
X87500000Y-72750000D01*
X88725000Y-62000000D02*
X86725000Y-64000000D01*
X86725000Y-64000000D02*
X86725000Y-71975000D01*
X114850000Y-58972500D02*
X112027500Y-58972500D01*
X109000000Y-62000000D02*
X88725000Y-62000000D01*
%TO.N,GND*%
X130500000Y-59500000D02*
X130000000Y-60000000D01*
X137500000Y-58260000D02*
X137500000Y-59250000D01*
X119750000Y-59525000D02*
X119775000Y-59500000D01*
X117500000Y-55775000D02*
X117500000Y-57000000D01*
X125775000Y-59500000D02*
X124500000Y-59500000D01*
X119275000Y-64000000D02*
X121000000Y-64000000D01*
X124500000Y-59500000D02*
X124000000Y-60000000D01*
X88275000Y-64000000D02*
X90000000Y-64000000D01*
X109739500Y-55252000D02*
X109650000Y-55162500D01*
X103775000Y-64000000D02*
X106000000Y-64000000D01*
X134775000Y-64000000D02*
X137000000Y-64000000D01*
X131775000Y-59500000D02*
X130500000Y-59500000D01*
X119750000Y-61250000D02*
X119750000Y-59525000D01*
X111250000Y-55252000D02*
X109739500Y-55252000D01*
%TO.N,Pad_1*%
X102225000Y-71975000D02*
X103000000Y-72750000D01*
X116000000Y-58637500D02*
X116000000Y-60000000D01*
X103225000Y-63000000D02*
X102225000Y-64000000D01*
X114850000Y-58337500D02*
X115700000Y-58337500D01*
X113000000Y-63000000D02*
X103225000Y-63000000D01*
X115700000Y-58337500D02*
X116000000Y-58637500D01*
X102225000Y-64000000D02*
X102225000Y-71975000D01*
X116000000Y-60000000D02*
X113000000Y-63000000D01*
%TO.N,Pad_2*%
X114850000Y-57702500D02*
X115700717Y-57702500D01*
X117725000Y-64000000D02*
X117725000Y-71975000D01*
X117000000Y-59001783D02*
X117000000Y-63275000D01*
X117000000Y-63275000D02*
X117725000Y-64000000D01*
X117725000Y-71975000D02*
X118500000Y-72750000D01*
X115700717Y-57702500D02*
X117000000Y-59001783D01*
%TO.N,Pad_3*%
X133225000Y-64000000D02*
X133225000Y-71975000D01*
X133225000Y-71975000D02*
X134000000Y-72750000D01*
X114850000Y-57067500D02*
X115701435Y-57067500D01*
X119500000Y-62750000D02*
X132750000Y-62750000D01*
X115701435Y-57067500D02*
X118000000Y-59366065D01*
X118000000Y-59366065D02*
X118000000Y-61250000D01*
X132750000Y-62750000D02*
X133225000Y-63225000D01*
X118000000Y-61250000D02*
X119500000Y-62750000D01*
X133225000Y-63225000D02*
X133225000Y-64000000D01*
%TO.N,+3V3*%
X120000000Y-55200000D02*
X119800000Y-55000000D01*
X120000000Y-57000000D02*
X120000000Y-55200000D01*
X115927500Y-55797500D02*
X117500000Y-54225000D01*
X124000000Y-55000000D02*
X125787500Y-55000000D01*
X114850000Y-55797500D02*
X115927500Y-55797500D01*
%TO.N,Net-(D1-Pad1)*%
X137500000Y-55787500D02*
X137500000Y-57240000D01*
%TO.N,Out_0*%
X109650000Y-58972500D02*
X102472500Y-58972500D01*
X102472500Y-58972500D02*
X99000000Y-55500000D01*
%TO.N,Out_1*%
X97960000Y-54000000D02*
X96460000Y-55500000D01*
X109650000Y-58337500D02*
X105337500Y-58337500D01*
X105337500Y-58337500D02*
X101000000Y-54000000D01*
X101000000Y-54000000D02*
X97960000Y-54000000D01*
%TO.N,Out_2*%
X106702500Y-57702500D02*
X102000000Y-53000000D01*
X96000000Y-53000000D02*
X95000000Y-54000000D01*
X102000000Y-53000000D02*
X96000000Y-53000000D01*
X109650000Y-57702500D02*
X106702500Y-57702500D01*
X95000000Y-54000000D02*
X95000000Y-54420000D01*
X95000000Y-54420000D02*
X93920000Y-55500000D01*
%TO.N,Out_3*%
X94000000Y-52000000D02*
X91380000Y-54620000D01*
X102000000Y-52000000D02*
X94000000Y-52000000D01*
X91380000Y-54620000D02*
X91380000Y-55500000D01*
X109650000Y-57067500D02*
X107067500Y-57067500D01*
X107067500Y-57067500D02*
X102000000Y-52000000D01*
%TO.N,Net-(JP1-Pad2)*%
X115702153Y-56432500D02*
X117019653Y-57750000D01*
X121250000Y-57000000D02*
X121250000Y-55000000D01*
X114850000Y-56432500D02*
X115702153Y-56432500D01*
X117019653Y-57750000D02*
X120500000Y-57750000D01*
X120500000Y-57750000D02*
X121250000Y-57000000D01*
%TO.N,Net-(JP2-Pad2)*%
X117013218Y-53000000D02*
X126000000Y-53000000D01*
X116000000Y-54826522D02*
X116000000Y-54013218D01*
X116000000Y-54013218D02*
X117013218Y-53000000D01*
X115664022Y-55162500D02*
X116000000Y-54826522D01*
X114850000Y-55162500D02*
X115664022Y-55162500D01*
X127237500Y-54237500D02*
X127237500Y-55000000D01*
X126000000Y-53000000D02*
X127237500Y-54237500D01*
%TO.N,Net-(JP3-Pad2)*%
X117127500Y-52250000D02*
X132000000Y-52250000D01*
X133225000Y-53475000D02*
X133225000Y-55000000D01*
X114850000Y-54527500D02*
X117127500Y-52250000D01*
X132000000Y-52250000D02*
X133225000Y-53475000D01*
%TO.N,Net-(JP4-Pad2)*%
X121250000Y-61250000D02*
X121250000Y-59525000D01*
X109650000Y-56432500D02*
X110932500Y-56432500D01*
X110932500Y-56432500D02*
X112500000Y-58000000D01*
X121250000Y-59525000D02*
X121225000Y-59500000D01*
%TO.N,Net-(JP5-Pad2)*%
X108500000Y-53000000D02*
X108500000Y-55461522D01*
X132750000Y-51000000D02*
X110500000Y-51000000D01*
X128725000Y-61000000D02*
X134000000Y-61000000D01*
X110500000Y-51000000D02*
X108500000Y-53000000D01*
X108835978Y-55797500D02*
X109650000Y-55797500D01*
X134000000Y-61000000D02*
X134750000Y-60250000D01*
X134750000Y-60250000D02*
X134750000Y-53000000D01*
X127225000Y-59500000D02*
X128725000Y-61000000D01*
X108500000Y-55461522D02*
X108835978Y-55797500D01*
X134750000Y-53000000D02*
X132750000Y-51000000D01*
%TO.N,Net-(JP6-Pad2)*%
X132500000Y-51750000D02*
X134049520Y-53299520D01*
X134049520Y-53299520D02*
X134049520Y-58675480D01*
X109650000Y-54527500D02*
X112972500Y-54527500D01*
X112972500Y-54527500D02*
X115750000Y-51750000D01*
X109650000Y-54527500D02*
X109277500Y-54527500D01*
X115750000Y-51750000D02*
X132500000Y-51750000D01*
X134049520Y-58675480D02*
X133225000Y-59500000D01*
%TD*%
M02*
