%TF.GenerationSoftware,KiCad,Pcbnew,(6.0.0)*%
%TF.CreationDate,2022-02-23T07:46:13+01:00*%
%TF.ProjectId,4_Touch_Sensor_Board,345f546f-7563-4685-9f53-656e736f725f,rev?*%
%TF.SameCoordinates,Original*%
%TF.FileFunction,Copper,L2,Bot*%
%TF.FilePolarity,Positive*%
%FSLAX46Y46*%
G04 Gerber Fmt 4.6, Leading zero omitted, Abs format (unit mm)*
G04 Created by KiCad (PCBNEW (6.0.0)) date 2022-02-23 07:46:13*
%MOMM*%
%LPD*%
G01*
G04 APERTURE LIST*
G04 Aperture macros list*
%AMRoundRect*
0 Rectangle with rounded corners*
0 $1 Rounding radius*
0 $2 $3 $4 $5 $6 $7 $8 $9 X,Y pos of 4 corners*
0 Add a 4 corners polygon primitive as box body*
4,1,4,$2,$3,$4,$5,$6,$7,$8,$9,$2,$3,0*
0 Add four circle primitives for the rounded corners*
1,1,$1+$1,$2,$3*
1,1,$1+$1,$4,$5*
1,1,$1+$1,$6,$7*
1,1,$1+$1,$8,$9*
0 Add four rect primitives between the rounded corners*
20,1,$1+$1,$2,$3,$4,$5,0*
20,1,$1+$1,$4,$5,$6,$7,0*
20,1,$1+$1,$6,$7,$8,$9,0*
20,1,$1+$1,$8,$9,$2,$3,0*%
G04 Aperture macros list end*
%TA.AperFunction,ComponentPad*%
%ADD10RoundRect,0.250000X-0.600000X0.600000X-0.600000X-0.600000X0.600000X-0.600000X0.600000X0.600000X0*%
%TD*%
%TA.AperFunction,ComponentPad*%
%ADD11C,1.700000*%
%TD*%
%TA.AperFunction,ViaPad*%
%ADD12C,0.800000*%
%TD*%
%TA.AperFunction,Conductor*%
%ADD13C,0.250000*%
%TD*%
G04 APERTURE END LIST*
D10*
%TO.P,J1,1,Pin_1*%
%TO.N,Out_0*%
X99000000Y-55500000D03*
D11*
%TO.P,J1,2,Pin_2*%
%TO.N,GND*%
X99000000Y-58040000D03*
%TO.P,J1,3,Pin_3*%
%TO.N,Out_1*%
X96460000Y-55500000D03*
%TO.P,J1,4,Pin_4*%
%TO.N,GND*%
X96460000Y-58040000D03*
%TO.P,J1,5,Pin_5*%
%TO.N,Out_2*%
X93920000Y-55500000D03*
%TO.P,J1,6,Pin_6*%
%TO.N,GND*%
X93920000Y-58040000D03*
%TO.P,J1,7,Pin_7*%
%TO.N,Out_3*%
X91380000Y-55500000D03*
%TO.P,J1,8,Pin_8*%
%TO.N,GND*%
X91380000Y-58040000D03*
%TO.P,J1,9,Pin_9*%
%TO.N,+3V3*%
X88840000Y-55500000D03*
%TO.P,J1,10,Pin_10*%
%TO.N,GND*%
X88840000Y-58040000D03*
%TD*%
D12*
%TO.N,GND*%
X119750000Y-61250000D03*
X121000000Y-64000000D03*
X130000000Y-60000000D03*
X111250000Y-55252000D03*
X106000000Y-64000000D03*
X137000000Y-64000000D03*
X137500000Y-59250000D03*
X117500000Y-57000000D03*
X124000000Y-60000000D03*
X90000000Y-64000000D03*
%TO.N,+3V3*%
X120000000Y-57000000D03*
X137500000Y-53000000D03*
X130500000Y-53000000D03*
X124000000Y-55000000D03*
%TO.N,Net-(JP4-Pad2)*%
X121250000Y-61250000D03*
X112500000Y-58000000D03*
%TD*%
D13*
%TO.N,+3V3*%
X123000000Y-54000000D02*
X124000000Y-55000000D01*
X130500000Y-53000000D02*
X137500000Y-53000000D01*
X118250000Y-55250000D02*
X120000000Y-57000000D01*
X91340000Y-53000000D02*
X116750000Y-53000000D01*
X118250000Y-53000000D02*
X118250000Y-53500000D01*
X116750000Y-53000000D02*
X118250000Y-53000000D01*
X118250000Y-53500000D02*
X118250000Y-55250000D01*
X88840000Y-55500000D02*
X91340000Y-53000000D01*
X123000000Y-53000000D02*
X123000000Y-54000000D01*
X123000000Y-53000000D02*
X130500000Y-53000000D01*
X118250000Y-53000000D02*
X123000000Y-53000000D01*
%TO.N,Net-(JP4-Pad2)*%
X120250000Y-62250000D02*
X121250000Y-61250000D01*
X116750000Y-62250000D02*
X120250000Y-62250000D01*
X112500000Y-58000000D02*
X116750000Y-62250000D01*
%TD*%
%TA.AperFunction,Conductor*%
%TO.N,GND*%
G36*
X137470057Y-50509500D02*
G01*
X137484858Y-50511805D01*
X137484861Y-50511805D01*
X137493730Y-50513186D01*
X137509999Y-50511059D01*
X137534567Y-50510266D01*
X137751766Y-50524502D01*
X137768106Y-50526653D01*
X137887788Y-50550459D01*
X138007473Y-50574266D01*
X138023383Y-50578529D01*
X138254484Y-50656977D01*
X138269710Y-50663284D01*
X138488592Y-50771224D01*
X138502866Y-50779465D01*
X138705783Y-50915050D01*
X138718858Y-50925083D01*
X138902347Y-51085998D01*
X138914002Y-51097653D01*
X139074917Y-51281142D01*
X139084950Y-51294217D01*
X139220535Y-51497134D01*
X139228776Y-51511408D01*
X139336716Y-51730290D01*
X139343022Y-51745514D01*
X139421471Y-51976617D01*
X139425735Y-51992530D01*
X139473347Y-52231894D01*
X139475498Y-52248234D01*
X139489264Y-52458268D01*
X139488239Y-52481304D01*
X139488196Y-52484856D01*
X139486814Y-52493730D01*
X139487978Y-52502632D01*
X139487978Y-52502638D01*
X139490907Y-52525034D01*
X139491971Y-52541456D01*
X139474267Y-78432775D01*
X139472768Y-78452067D01*
X139469047Y-78475963D01*
X139471174Y-78492232D01*
X139471967Y-78516800D01*
X139457731Y-78733999D01*
X139455580Y-78750339D01*
X139407968Y-78989703D01*
X139403704Y-79005616D01*
X139368783Y-79108490D01*
X139325256Y-79236717D01*
X139318949Y-79251943D01*
X139211009Y-79470825D01*
X139202768Y-79485099D01*
X139067183Y-79688016D01*
X139057150Y-79701091D01*
X138896235Y-79884580D01*
X138884580Y-79896235D01*
X138701091Y-80057150D01*
X138688016Y-80067183D01*
X138485099Y-80202768D01*
X138470825Y-80211009D01*
X138251943Y-80318949D01*
X138236719Y-80325255D01*
X138005616Y-80403704D01*
X137989706Y-80407967D01*
X137870021Y-80431774D01*
X137750339Y-80455580D01*
X137733999Y-80457731D01*
X137523965Y-80471497D01*
X137500929Y-80470472D01*
X137497379Y-80470429D01*
X137488503Y-80469047D01*
X137459995Y-80472775D01*
X137456982Y-80473169D01*
X137440644Y-80474233D01*
X82567095Y-80474233D01*
X82547710Y-80472733D01*
X82532909Y-80470428D01*
X82532906Y-80470428D01*
X82524037Y-80469047D01*
X82507768Y-80471174D01*
X82483200Y-80471967D01*
X82266001Y-80457731D01*
X82249661Y-80455580D01*
X82129979Y-80431774D01*
X82010294Y-80407967D01*
X81994384Y-80403704D01*
X81763281Y-80325255D01*
X81748057Y-80318949D01*
X81529175Y-80211009D01*
X81514901Y-80202768D01*
X81311984Y-80067183D01*
X81298909Y-80057150D01*
X81115420Y-79896235D01*
X81103765Y-79884580D01*
X80942850Y-79701091D01*
X80932817Y-79688016D01*
X80797232Y-79485099D01*
X80788991Y-79470825D01*
X80681051Y-79251943D01*
X80674744Y-79236717D01*
X80631217Y-79108490D01*
X80596296Y-79005616D01*
X80592032Y-78989703D01*
X80544420Y-78750339D01*
X80542269Y-78733999D01*
X80528741Y-78527609D01*
X80529914Y-78504451D01*
X80529596Y-78504422D01*
X80530031Y-78499566D01*
X80530838Y-78494772D01*
X80530991Y-78482233D01*
X80527009Y-78454427D01*
X80525736Y-78436651D01*
X80520075Y-70158806D01*
X80512557Y-59164853D01*
X88079977Y-59164853D01*
X88085258Y-59171907D01*
X88246756Y-59266279D01*
X88256042Y-59270729D01*
X88455001Y-59346703D01*
X88464899Y-59349579D01*
X88673595Y-59392038D01*
X88683823Y-59393257D01*
X88896650Y-59401062D01*
X88906936Y-59400595D01*
X89118185Y-59373534D01*
X89128262Y-59371392D01*
X89332255Y-59310191D01*
X89341842Y-59306433D01*
X89533098Y-59212738D01*
X89541944Y-59207465D01*
X89589247Y-59173723D01*
X89596211Y-59164853D01*
X90619977Y-59164853D01*
X90625258Y-59171907D01*
X90786756Y-59266279D01*
X90796042Y-59270729D01*
X90995001Y-59346703D01*
X91004899Y-59349579D01*
X91213595Y-59392038D01*
X91223823Y-59393257D01*
X91436650Y-59401062D01*
X91446936Y-59400595D01*
X91658185Y-59373534D01*
X91668262Y-59371392D01*
X91872255Y-59310191D01*
X91881842Y-59306433D01*
X92073098Y-59212738D01*
X92081944Y-59207465D01*
X92129247Y-59173723D01*
X92136211Y-59164853D01*
X93159977Y-59164853D01*
X93165258Y-59171907D01*
X93326756Y-59266279D01*
X93336042Y-59270729D01*
X93535001Y-59346703D01*
X93544899Y-59349579D01*
X93753595Y-59392038D01*
X93763823Y-59393257D01*
X93976650Y-59401062D01*
X93986936Y-59400595D01*
X94198185Y-59373534D01*
X94208262Y-59371392D01*
X94412255Y-59310191D01*
X94421842Y-59306433D01*
X94613098Y-59212738D01*
X94621944Y-59207465D01*
X94669247Y-59173723D01*
X94676211Y-59164853D01*
X95699977Y-59164853D01*
X95705258Y-59171907D01*
X95866756Y-59266279D01*
X95876042Y-59270729D01*
X96075001Y-59346703D01*
X96084899Y-59349579D01*
X96293595Y-59392038D01*
X96303823Y-59393257D01*
X96516650Y-59401062D01*
X96526936Y-59400595D01*
X96738185Y-59373534D01*
X96748262Y-59371392D01*
X96952255Y-59310191D01*
X96961842Y-59306433D01*
X97153098Y-59212738D01*
X97161944Y-59207465D01*
X97209247Y-59173723D01*
X97216211Y-59164853D01*
X98239977Y-59164853D01*
X98245258Y-59171907D01*
X98406756Y-59266279D01*
X98416042Y-59270729D01*
X98615001Y-59346703D01*
X98624899Y-59349579D01*
X98833595Y-59392038D01*
X98843823Y-59393257D01*
X99056650Y-59401062D01*
X99066936Y-59400595D01*
X99278185Y-59373534D01*
X99288262Y-59371392D01*
X99492255Y-59310191D01*
X99501842Y-59306433D01*
X99693098Y-59212738D01*
X99701944Y-59207465D01*
X99749247Y-59173723D01*
X99757648Y-59163023D01*
X99750660Y-59149870D01*
X99012812Y-58412022D01*
X98998868Y-58404408D01*
X98997035Y-58404539D01*
X98990420Y-58408790D01*
X98246737Y-59152473D01*
X98239977Y-59164853D01*
X97216211Y-59164853D01*
X97217648Y-59163023D01*
X97210660Y-59149870D01*
X96472812Y-58412022D01*
X96458868Y-58404408D01*
X96457035Y-58404539D01*
X96450420Y-58408790D01*
X95706737Y-59152473D01*
X95699977Y-59164853D01*
X94676211Y-59164853D01*
X94677648Y-59163023D01*
X94670660Y-59149870D01*
X93932812Y-58412022D01*
X93918868Y-58404408D01*
X93917035Y-58404539D01*
X93910420Y-58408790D01*
X93166737Y-59152473D01*
X93159977Y-59164853D01*
X92136211Y-59164853D01*
X92137648Y-59163023D01*
X92130660Y-59149870D01*
X91392812Y-58412022D01*
X91378868Y-58404408D01*
X91377035Y-58404539D01*
X91370420Y-58408790D01*
X90626737Y-59152473D01*
X90619977Y-59164853D01*
X89596211Y-59164853D01*
X89597648Y-59163023D01*
X89590660Y-59149870D01*
X88852812Y-58412022D01*
X88838868Y-58404408D01*
X88837035Y-58404539D01*
X88830420Y-58408790D01*
X88086737Y-59152473D01*
X88079977Y-59164853D01*
X80512557Y-59164853D01*
X80511768Y-58011863D01*
X87478050Y-58011863D01*
X87490309Y-58224477D01*
X87491745Y-58234697D01*
X87538565Y-58442446D01*
X87541645Y-58452275D01*
X87621770Y-58649603D01*
X87626413Y-58658794D01*
X87706460Y-58789420D01*
X87716916Y-58798880D01*
X87725694Y-58795096D01*
X88467978Y-58052812D01*
X88474356Y-58041132D01*
X89204408Y-58041132D01*
X89204539Y-58042965D01*
X89208790Y-58049580D01*
X89950474Y-58791264D01*
X89962484Y-58797823D01*
X89974223Y-58788855D01*
X90008022Y-58741819D01*
X90009149Y-58742629D01*
X90056659Y-58698881D01*
X90126596Y-58686661D01*
X90192038Y-58714191D01*
X90219870Y-58746029D01*
X90246459Y-58789419D01*
X90256916Y-58798880D01*
X90265694Y-58795096D01*
X91007978Y-58052812D01*
X91014356Y-58041132D01*
X91744408Y-58041132D01*
X91744539Y-58042965D01*
X91748790Y-58049580D01*
X92490474Y-58791264D01*
X92502484Y-58797823D01*
X92514223Y-58788855D01*
X92548022Y-58741819D01*
X92549149Y-58742629D01*
X92596659Y-58698881D01*
X92666596Y-58686661D01*
X92732038Y-58714191D01*
X92759870Y-58746029D01*
X92786459Y-58789419D01*
X92796916Y-58798880D01*
X92805694Y-58795096D01*
X93547978Y-58052812D01*
X93554356Y-58041132D01*
X94284408Y-58041132D01*
X94284539Y-58042965D01*
X94288790Y-58049580D01*
X95030474Y-58791264D01*
X95042484Y-58797823D01*
X95054223Y-58788855D01*
X95088022Y-58741819D01*
X95089149Y-58742629D01*
X95136659Y-58698881D01*
X95206596Y-58686661D01*
X95272038Y-58714191D01*
X95299870Y-58746029D01*
X95326459Y-58789419D01*
X95336916Y-58798880D01*
X95345694Y-58795096D01*
X96087978Y-58052812D01*
X96094356Y-58041132D01*
X96824408Y-58041132D01*
X96824539Y-58042965D01*
X96828790Y-58049580D01*
X97570474Y-58791264D01*
X97582484Y-58797823D01*
X97594223Y-58788855D01*
X97628022Y-58741819D01*
X97629149Y-58742629D01*
X97676659Y-58698881D01*
X97746596Y-58686661D01*
X97812038Y-58714191D01*
X97839870Y-58746029D01*
X97866459Y-58789419D01*
X97876916Y-58798880D01*
X97885694Y-58795096D01*
X98627978Y-58052812D01*
X98634356Y-58041132D01*
X99364408Y-58041132D01*
X99364539Y-58042965D01*
X99368790Y-58049580D01*
X100110474Y-58791264D01*
X100122484Y-58797823D01*
X100134223Y-58788855D01*
X100165004Y-58746019D01*
X100170315Y-58737180D01*
X100264670Y-58546267D01*
X100268469Y-58536672D01*
X100330376Y-58332915D01*
X100332555Y-58322834D01*
X100360590Y-58109887D01*
X100361109Y-58103212D01*
X100362572Y-58043364D01*
X100362378Y-58036646D01*
X100359365Y-58000000D01*
X111586496Y-58000000D01*
X111606458Y-58189928D01*
X111665473Y-58371556D01*
X111760960Y-58536944D01*
X111765378Y-58541851D01*
X111765379Y-58541852D01*
X111870674Y-58658794D01*
X111888747Y-58678866D01*
X112043248Y-58791118D01*
X112049276Y-58793802D01*
X112049278Y-58793803D01*
X112211681Y-58866109D01*
X112217712Y-58868794D01*
X112311113Y-58888647D01*
X112398056Y-58907128D01*
X112398061Y-58907128D01*
X112404513Y-58908500D01*
X112460406Y-58908500D01*
X112528527Y-58928502D01*
X112549501Y-58945405D01*
X116246343Y-62642247D01*
X116253887Y-62650537D01*
X116258000Y-62657018D01*
X116263777Y-62662443D01*
X116307667Y-62703658D01*
X116310509Y-62706413D01*
X116330231Y-62726135D01*
X116333355Y-62728558D01*
X116333359Y-62728562D01*
X116333424Y-62728612D01*
X116342445Y-62736317D01*
X116374679Y-62766586D01*
X116381627Y-62770405D01*
X116381629Y-62770407D01*
X116392432Y-62776346D01*
X116408959Y-62787202D01*
X116418698Y-62794757D01*
X116418700Y-62794758D01*
X116424960Y-62799614D01*
X116465540Y-62817174D01*
X116476188Y-62822391D01*
X116500976Y-62836018D01*
X116514940Y-62843695D01*
X116522616Y-62845666D01*
X116522619Y-62845667D01*
X116534562Y-62848733D01*
X116553267Y-62855137D01*
X116571855Y-62863181D01*
X116579678Y-62864420D01*
X116579688Y-62864423D01*
X116615524Y-62870099D01*
X116627144Y-62872505D01*
X116658959Y-62880673D01*
X116669970Y-62883500D01*
X116690224Y-62883500D01*
X116709934Y-62885051D01*
X116729943Y-62888220D01*
X116737835Y-62887474D01*
X116756580Y-62885702D01*
X116773962Y-62884059D01*
X116785819Y-62883500D01*
X120171233Y-62883500D01*
X120182416Y-62884027D01*
X120189909Y-62885702D01*
X120197835Y-62885453D01*
X120197836Y-62885453D01*
X120257986Y-62883562D01*
X120261945Y-62883500D01*
X120289856Y-62883500D01*
X120293791Y-62883003D01*
X120293856Y-62882995D01*
X120305693Y-62882062D01*
X120337951Y-62881048D01*
X120341970Y-62880922D01*
X120349889Y-62880673D01*
X120369343Y-62875021D01*
X120388700Y-62871013D01*
X120400930Y-62869468D01*
X120400931Y-62869468D01*
X120408797Y-62868474D01*
X120416168Y-62865555D01*
X120416170Y-62865555D01*
X120449912Y-62852196D01*
X120461142Y-62848351D01*
X120495983Y-62838229D01*
X120495984Y-62838229D01*
X120503593Y-62836018D01*
X120510412Y-62831985D01*
X120510417Y-62831983D01*
X120521028Y-62825707D01*
X120538776Y-62817012D01*
X120557617Y-62809552D01*
X120593387Y-62783564D01*
X120603307Y-62777048D01*
X120634535Y-62758580D01*
X120634538Y-62758578D01*
X120641362Y-62754542D01*
X120655683Y-62740221D01*
X120670717Y-62727380D01*
X120672431Y-62726135D01*
X120687107Y-62715472D01*
X120715298Y-62681395D01*
X120723288Y-62672616D01*
X121200499Y-62195405D01*
X121262811Y-62161379D01*
X121289594Y-62158500D01*
X121345487Y-62158500D01*
X121351939Y-62157128D01*
X121351944Y-62157128D01*
X121438888Y-62138647D01*
X121532288Y-62118794D01*
X121538319Y-62116109D01*
X121700722Y-62043803D01*
X121700724Y-62043802D01*
X121706752Y-62041118D01*
X121861253Y-61928866D01*
X121989040Y-61786944D01*
X122084527Y-61621556D01*
X122143542Y-61439928D01*
X122163504Y-61250000D01*
X122143542Y-61060072D01*
X122084527Y-60878444D01*
X121989040Y-60713056D01*
X121861253Y-60571134D01*
X121706752Y-60458882D01*
X121700724Y-60456198D01*
X121700722Y-60456197D01*
X121538319Y-60383891D01*
X121538318Y-60383891D01*
X121532288Y-60381206D01*
X121438887Y-60361353D01*
X121351944Y-60342872D01*
X121351939Y-60342872D01*
X121345487Y-60341500D01*
X121154513Y-60341500D01*
X121148061Y-60342872D01*
X121148056Y-60342872D01*
X121061113Y-60361353D01*
X120967712Y-60381206D01*
X120961682Y-60383891D01*
X120961681Y-60383891D01*
X120799278Y-60456197D01*
X120799276Y-60456198D01*
X120793248Y-60458882D01*
X120638747Y-60571134D01*
X120510960Y-60713056D01*
X120415473Y-60878444D01*
X120356458Y-61060072D01*
X120355768Y-61066633D01*
X120355768Y-61066635D01*
X120339093Y-61225292D01*
X120312080Y-61290949D01*
X120302878Y-61301218D01*
X120024499Y-61579596D01*
X119962187Y-61613621D01*
X119935404Y-61616500D01*
X117064594Y-61616500D01*
X116996473Y-61596498D01*
X116975499Y-61579595D01*
X113447122Y-58051217D01*
X113413096Y-57988905D01*
X113410907Y-57975292D01*
X113394232Y-57816635D01*
X113394232Y-57816633D01*
X113393542Y-57810072D01*
X113334527Y-57628444D01*
X113239040Y-57463056D01*
X113156705Y-57371613D01*
X113115675Y-57326045D01*
X113115674Y-57326044D01*
X113111253Y-57321134D01*
X112956752Y-57208882D01*
X112950724Y-57206198D01*
X112950722Y-57206197D01*
X112788319Y-57133891D01*
X112788318Y-57133891D01*
X112782288Y-57131206D01*
X112688888Y-57111353D01*
X112601944Y-57092872D01*
X112601939Y-57092872D01*
X112595487Y-57091500D01*
X112404513Y-57091500D01*
X112398061Y-57092872D01*
X112398056Y-57092872D01*
X112311112Y-57111353D01*
X112217712Y-57131206D01*
X112211682Y-57133891D01*
X112211681Y-57133891D01*
X112049278Y-57206197D01*
X112049276Y-57206198D01*
X112043248Y-57208882D01*
X111888747Y-57321134D01*
X111884326Y-57326044D01*
X111884325Y-57326045D01*
X111843296Y-57371613D01*
X111760960Y-57463056D01*
X111665473Y-57628444D01*
X111606458Y-57810072D01*
X111586496Y-58000000D01*
X100359365Y-58000000D01*
X100344781Y-57822604D01*
X100343096Y-57812424D01*
X100291214Y-57605875D01*
X100287894Y-57596124D01*
X100202972Y-57400814D01*
X100198105Y-57391739D01*
X100133063Y-57291197D01*
X100122377Y-57281995D01*
X100112812Y-57286398D01*
X99372022Y-58027188D01*
X99364408Y-58041132D01*
X98634356Y-58041132D01*
X98635592Y-58038868D01*
X98635461Y-58037035D01*
X98631210Y-58030420D01*
X97889849Y-57289059D01*
X97878313Y-57282759D01*
X97866028Y-57292384D01*
X97833192Y-57340520D01*
X97778281Y-57385523D01*
X97707756Y-57393694D01*
X97644009Y-57362440D01*
X97623311Y-57337955D01*
X97593062Y-57291197D01*
X97582377Y-57281995D01*
X97572812Y-57286398D01*
X96832022Y-58027188D01*
X96824408Y-58041132D01*
X96094356Y-58041132D01*
X96095592Y-58038868D01*
X96095461Y-58037035D01*
X96091210Y-58030420D01*
X95349849Y-57289059D01*
X95338313Y-57282759D01*
X95326028Y-57292384D01*
X95293192Y-57340520D01*
X95238281Y-57385523D01*
X95167756Y-57393694D01*
X95104009Y-57362440D01*
X95083311Y-57337955D01*
X95053062Y-57291197D01*
X95042377Y-57281995D01*
X95032812Y-57286398D01*
X94292022Y-58027188D01*
X94284408Y-58041132D01*
X93554356Y-58041132D01*
X93555592Y-58038868D01*
X93555461Y-58037035D01*
X93551210Y-58030420D01*
X92809849Y-57289059D01*
X92798313Y-57282759D01*
X92786028Y-57292384D01*
X92753192Y-57340520D01*
X92698281Y-57385523D01*
X92627756Y-57393694D01*
X92564009Y-57362440D01*
X92543311Y-57337955D01*
X92513062Y-57291197D01*
X92502377Y-57281995D01*
X92492812Y-57286398D01*
X91752022Y-58027188D01*
X91744408Y-58041132D01*
X91014356Y-58041132D01*
X91015592Y-58038868D01*
X91015461Y-58037035D01*
X91011210Y-58030420D01*
X90269849Y-57289059D01*
X90258313Y-57282759D01*
X90246028Y-57292384D01*
X90213192Y-57340520D01*
X90158281Y-57385523D01*
X90087756Y-57393694D01*
X90024009Y-57362440D01*
X90003311Y-57337955D01*
X89973062Y-57291197D01*
X89962377Y-57281995D01*
X89952812Y-57286398D01*
X89212022Y-58027188D01*
X89204408Y-58041132D01*
X88474356Y-58041132D01*
X88475592Y-58038868D01*
X88475461Y-58037035D01*
X88471210Y-58030420D01*
X87729849Y-57289059D01*
X87718313Y-57282759D01*
X87706031Y-57292382D01*
X87658089Y-57362662D01*
X87653004Y-57371613D01*
X87563338Y-57564783D01*
X87559775Y-57574470D01*
X87502864Y-57779681D01*
X87500933Y-57789800D01*
X87478302Y-58001574D01*
X87478050Y-58011863D01*
X80511768Y-58011863D01*
X80510028Y-55466695D01*
X87477251Y-55466695D01*
X87477548Y-55471848D01*
X87477548Y-55471851D01*
X87488148Y-55655683D01*
X87490110Y-55689715D01*
X87491247Y-55694761D01*
X87491248Y-55694767D01*
X87495875Y-55715298D01*
X87539222Y-55907639D01*
X87571723Y-55987680D01*
X87613880Y-56091500D01*
X87623266Y-56114616D01*
X87674942Y-56198944D01*
X87737291Y-56300688D01*
X87739987Y-56305088D01*
X87886250Y-56473938D01*
X88058126Y-56616632D01*
X88131955Y-56659774D01*
X88180679Y-56711412D01*
X88193750Y-56781195D01*
X88167019Y-56846967D01*
X88126562Y-56880327D01*
X88118460Y-56884544D01*
X88109734Y-56890039D01*
X88089677Y-56905099D01*
X88081223Y-56916427D01*
X88087968Y-56928758D01*
X88827188Y-57667978D01*
X88841132Y-57675592D01*
X88842965Y-57675461D01*
X88849580Y-57671210D01*
X89593389Y-56927401D01*
X89600410Y-56914544D01*
X89593611Y-56905213D01*
X89589559Y-56902521D01*
X89552602Y-56882120D01*
X89502631Y-56831687D01*
X89487859Y-56762245D01*
X89512975Y-56695839D01*
X89540327Y-56669232D01*
X89563797Y-56652491D01*
X89719860Y-56541173D01*
X89878096Y-56383489D01*
X89919374Y-56326045D01*
X90008453Y-56202077D01*
X90009776Y-56203028D01*
X90056645Y-56159857D01*
X90126580Y-56147625D01*
X90192026Y-56175144D01*
X90219875Y-56206994D01*
X90279987Y-56305088D01*
X90426250Y-56473938D01*
X90598126Y-56616632D01*
X90671955Y-56659774D01*
X90720679Y-56711412D01*
X90733750Y-56781195D01*
X90707019Y-56846967D01*
X90666562Y-56880327D01*
X90658460Y-56884544D01*
X90649734Y-56890039D01*
X90629677Y-56905099D01*
X90621223Y-56916427D01*
X90627968Y-56928758D01*
X91367188Y-57667978D01*
X91381132Y-57675592D01*
X91382965Y-57675461D01*
X91389580Y-57671210D01*
X92133389Y-56927401D01*
X92140410Y-56914544D01*
X92133611Y-56905213D01*
X92129559Y-56902521D01*
X92092602Y-56882120D01*
X92042631Y-56831687D01*
X92027859Y-56762245D01*
X92052975Y-56695839D01*
X92080327Y-56669232D01*
X92103797Y-56652491D01*
X92259860Y-56541173D01*
X92418096Y-56383489D01*
X92459374Y-56326045D01*
X92548453Y-56202077D01*
X92549776Y-56203028D01*
X92596645Y-56159857D01*
X92666580Y-56147625D01*
X92732026Y-56175144D01*
X92759875Y-56206994D01*
X92819987Y-56305088D01*
X92966250Y-56473938D01*
X93138126Y-56616632D01*
X93211955Y-56659774D01*
X93260679Y-56711412D01*
X93273750Y-56781195D01*
X93247019Y-56846967D01*
X93206562Y-56880327D01*
X93198460Y-56884544D01*
X93189734Y-56890039D01*
X93169677Y-56905099D01*
X93161223Y-56916427D01*
X93167968Y-56928758D01*
X93907188Y-57667978D01*
X93921132Y-57675592D01*
X93922965Y-57675461D01*
X93929580Y-57671210D01*
X94673389Y-56927401D01*
X94680410Y-56914544D01*
X94673611Y-56905213D01*
X94669559Y-56902521D01*
X94632602Y-56882120D01*
X94582631Y-56831687D01*
X94567859Y-56762245D01*
X94592975Y-56695839D01*
X94620327Y-56669232D01*
X94643797Y-56652491D01*
X94799860Y-56541173D01*
X94958096Y-56383489D01*
X94999374Y-56326045D01*
X95088453Y-56202077D01*
X95089776Y-56203028D01*
X95136645Y-56159857D01*
X95206580Y-56147625D01*
X95272026Y-56175144D01*
X95299875Y-56206994D01*
X95359987Y-56305088D01*
X95506250Y-56473938D01*
X95678126Y-56616632D01*
X95751955Y-56659774D01*
X95800679Y-56711412D01*
X95813750Y-56781195D01*
X95787019Y-56846967D01*
X95746562Y-56880327D01*
X95738460Y-56884544D01*
X95729734Y-56890039D01*
X95709677Y-56905099D01*
X95701223Y-56916427D01*
X95707968Y-56928758D01*
X96447188Y-57667978D01*
X96461132Y-57675592D01*
X96462965Y-57675461D01*
X96469580Y-57671210D01*
X97213389Y-56927401D01*
X97220410Y-56914544D01*
X97213611Y-56905213D01*
X97209559Y-56902521D01*
X97172602Y-56882120D01*
X97122631Y-56831687D01*
X97107859Y-56762245D01*
X97132975Y-56695839D01*
X97160327Y-56669232D01*
X97183797Y-56652491D01*
X97339860Y-56541173D01*
X97498096Y-56383489D01*
X97498671Y-56384066D01*
X97554391Y-56347562D01*
X97625385Y-56346939D01*
X97685446Y-56384796D01*
X97705051Y-56414691D01*
X97706133Y-56417000D01*
X97708450Y-56423946D01*
X97801522Y-56574348D01*
X97926697Y-56699305D01*
X97932927Y-56703145D01*
X97932928Y-56703146D01*
X98070090Y-56787694D01*
X98077262Y-56792115D01*
X98131401Y-56810072D01*
X98152219Y-56816977D01*
X98210579Y-56857407D01*
X98221299Y-56883211D01*
X98222650Y-56882472D01*
X98247968Y-56928758D01*
X98987188Y-57667978D01*
X99001132Y-57675592D01*
X99002965Y-57675461D01*
X99009580Y-57671210D01*
X99753389Y-56927401D01*
X99776183Y-56885659D01*
X99778357Y-56875666D01*
X99828561Y-56825466D01*
X99849066Y-56816532D01*
X99887246Y-56803794D01*
X99923946Y-56791550D01*
X100074348Y-56698478D01*
X100199305Y-56573303D01*
X100221357Y-56537529D01*
X100288275Y-56428968D01*
X100288276Y-56428966D01*
X100292115Y-56422738D01*
X100318564Y-56342995D01*
X100345632Y-56261389D01*
X100345632Y-56261387D01*
X100347797Y-56254861D01*
X100358500Y-56150400D01*
X100358500Y-54849600D01*
X100358163Y-54846350D01*
X100348238Y-54750692D01*
X100348237Y-54750688D01*
X100347526Y-54743834D01*
X100313598Y-54642138D01*
X100293868Y-54583002D01*
X100291550Y-54576054D01*
X100198478Y-54425652D01*
X100073303Y-54300695D01*
X100039021Y-54279563D01*
X99928968Y-54211725D01*
X99928966Y-54211724D01*
X99922738Y-54207885D01*
X99818084Y-54173173D01*
X99761389Y-54154368D01*
X99761387Y-54154368D01*
X99754861Y-54152203D01*
X99748025Y-54151503D01*
X99748022Y-54151502D01*
X99701640Y-54146750D01*
X99650400Y-54141500D01*
X98349600Y-54141500D01*
X98346354Y-54141837D01*
X98346350Y-54141837D01*
X98250692Y-54151762D01*
X98250688Y-54151763D01*
X98243834Y-54152474D01*
X98237298Y-54154655D01*
X98237296Y-54154655D01*
X98174631Y-54175562D01*
X98076054Y-54208450D01*
X97925652Y-54301522D01*
X97920479Y-54306704D01*
X97862686Y-54364598D01*
X97800695Y-54426697D01*
X97796855Y-54432927D01*
X97796854Y-54432928D01*
X97751275Y-54506870D01*
X97707885Y-54577262D01*
X97705579Y-54584213D01*
X97703561Y-54588542D01*
X97656644Y-54641828D01*
X97588367Y-54661290D01*
X97520407Y-54640749D01*
X97496172Y-54620094D01*
X97393152Y-54506876D01*
X97393142Y-54506867D01*
X97389670Y-54503051D01*
X97385619Y-54499852D01*
X97385615Y-54499848D01*
X97218414Y-54367800D01*
X97218410Y-54367798D01*
X97214359Y-54364598D01*
X97193906Y-54353307D01*
X97135624Y-54321134D01*
X97018789Y-54256638D01*
X97013920Y-54254914D01*
X97013916Y-54254912D01*
X96813087Y-54183795D01*
X96813083Y-54183794D01*
X96808212Y-54182069D01*
X96803119Y-54181162D01*
X96803116Y-54181161D01*
X96593373Y-54143800D01*
X96593367Y-54143799D01*
X96588284Y-54142894D01*
X96514452Y-54141992D01*
X96370081Y-54140228D01*
X96370079Y-54140228D01*
X96364911Y-54140165D01*
X96144091Y-54173955D01*
X95931756Y-54243357D01*
X95901443Y-54259137D01*
X95811678Y-54305866D01*
X95733607Y-54346507D01*
X95729474Y-54349610D01*
X95729471Y-54349612D01*
X95564750Y-54473288D01*
X95554965Y-54480635D01*
X95400629Y-54642138D01*
X95293201Y-54799621D01*
X95238293Y-54844621D01*
X95167768Y-54852792D01*
X95104021Y-54821538D01*
X95083324Y-54797054D01*
X95002822Y-54672617D01*
X95002820Y-54672614D01*
X95000014Y-54668277D01*
X94849670Y-54503051D01*
X94845619Y-54499852D01*
X94845615Y-54499848D01*
X94678414Y-54367800D01*
X94678410Y-54367798D01*
X94674359Y-54364598D01*
X94653906Y-54353307D01*
X94595624Y-54321134D01*
X94478789Y-54256638D01*
X94473920Y-54254914D01*
X94473916Y-54254912D01*
X94273087Y-54183795D01*
X94273083Y-54183794D01*
X94268212Y-54182069D01*
X94263119Y-54181162D01*
X94263116Y-54181161D01*
X94053373Y-54143800D01*
X94053367Y-54143799D01*
X94048284Y-54142894D01*
X93974452Y-54141992D01*
X93830081Y-54140228D01*
X93830079Y-54140228D01*
X93824911Y-54140165D01*
X93604091Y-54173955D01*
X93391756Y-54243357D01*
X93361443Y-54259137D01*
X93271678Y-54305866D01*
X93193607Y-54346507D01*
X93189474Y-54349610D01*
X93189471Y-54349612D01*
X93024750Y-54473288D01*
X93014965Y-54480635D01*
X92860629Y-54642138D01*
X92753201Y-54799621D01*
X92698293Y-54844621D01*
X92627768Y-54852792D01*
X92564021Y-54821538D01*
X92543324Y-54797054D01*
X92462822Y-54672617D01*
X92462820Y-54672614D01*
X92460014Y-54668277D01*
X92309670Y-54503051D01*
X92305619Y-54499852D01*
X92305615Y-54499848D01*
X92138414Y-54367800D01*
X92138410Y-54367798D01*
X92134359Y-54364598D01*
X92113906Y-54353307D01*
X92055624Y-54321134D01*
X91938789Y-54256638D01*
X91933920Y-54254914D01*
X91933916Y-54254912D01*
X91733087Y-54183795D01*
X91733083Y-54183794D01*
X91728212Y-54182069D01*
X91723119Y-54181162D01*
X91723116Y-54181161D01*
X91513373Y-54143800D01*
X91513367Y-54143799D01*
X91508284Y-54142894D01*
X91397011Y-54141535D01*
X91329141Y-54120702D01*
X91283307Y-54066483D01*
X91274062Y-53996091D01*
X91304341Y-53931875D01*
X91309456Y-53926449D01*
X91565500Y-53670405D01*
X91627812Y-53636379D01*
X91654595Y-53633500D01*
X117490500Y-53633500D01*
X117558621Y-53653502D01*
X117605114Y-53707158D01*
X117616500Y-53759500D01*
X117616500Y-55171233D01*
X117615973Y-55182416D01*
X117614298Y-55189909D01*
X117614547Y-55197835D01*
X117614547Y-55197836D01*
X117616438Y-55257986D01*
X117616500Y-55261945D01*
X117616500Y-55289856D01*
X117616997Y-55293790D01*
X117616997Y-55293791D01*
X117617005Y-55293856D01*
X117617938Y-55305693D01*
X117619327Y-55349889D01*
X117623796Y-55365271D01*
X117624978Y-55369339D01*
X117628987Y-55388700D01*
X117631526Y-55408797D01*
X117634445Y-55416168D01*
X117634445Y-55416170D01*
X117647804Y-55449912D01*
X117651649Y-55461142D01*
X117663982Y-55503593D01*
X117668015Y-55510412D01*
X117668017Y-55510417D01*
X117674293Y-55521028D01*
X117682988Y-55538776D01*
X117690448Y-55557617D01*
X117695110Y-55564033D01*
X117695110Y-55564034D01*
X117716436Y-55593387D01*
X117722952Y-55603307D01*
X117745458Y-55641362D01*
X117759779Y-55655683D01*
X117772619Y-55670716D01*
X117784528Y-55687107D01*
X117818605Y-55715298D01*
X117827384Y-55723288D01*
X119052878Y-56948783D01*
X119086904Y-57011095D01*
X119089093Y-57024706D01*
X119106458Y-57189928D01*
X119165473Y-57371556D01*
X119260960Y-57536944D01*
X119265378Y-57541851D01*
X119265379Y-57541852D01*
X119384325Y-57673955D01*
X119388747Y-57678866D01*
X119543248Y-57791118D01*
X119549276Y-57793802D01*
X119549278Y-57793803D01*
X119591102Y-57812424D01*
X119717712Y-57868794D01*
X119811112Y-57888647D01*
X119898056Y-57907128D01*
X119898061Y-57907128D01*
X119904513Y-57908500D01*
X120095487Y-57908500D01*
X120101939Y-57907128D01*
X120101944Y-57907128D01*
X120188888Y-57888647D01*
X120282288Y-57868794D01*
X120408898Y-57812424D01*
X120450722Y-57793803D01*
X120450724Y-57793802D01*
X120456752Y-57791118D01*
X120611253Y-57678866D01*
X120615675Y-57673955D01*
X120734621Y-57541852D01*
X120734622Y-57541851D01*
X120739040Y-57536944D01*
X120834527Y-57371556D01*
X120893542Y-57189928D01*
X120913504Y-57000000D01*
X120901947Y-56890039D01*
X120894232Y-56816635D01*
X120894232Y-56816633D01*
X120893542Y-56810072D01*
X120834527Y-56628444D01*
X120739040Y-56463056D01*
X120696483Y-56415791D01*
X120615675Y-56326045D01*
X120615674Y-56326044D01*
X120611253Y-56321134D01*
X120456752Y-56208882D01*
X120450724Y-56206198D01*
X120450722Y-56206197D01*
X120288319Y-56133891D01*
X120288318Y-56133891D01*
X120282288Y-56131206D01*
X120181718Y-56109829D01*
X120101944Y-56092872D01*
X120101939Y-56092872D01*
X120095487Y-56091500D01*
X120039594Y-56091500D01*
X119971473Y-56071498D01*
X119950499Y-56054595D01*
X118920405Y-55024500D01*
X118886379Y-54962188D01*
X118883500Y-54935405D01*
X118883500Y-53759500D01*
X118903502Y-53691379D01*
X118957158Y-53644886D01*
X119009500Y-53633500D01*
X122240500Y-53633500D01*
X122308621Y-53653502D01*
X122355114Y-53707158D01*
X122366500Y-53759500D01*
X122366500Y-53921233D01*
X122365973Y-53932416D01*
X122364298Y-53939909D01*
X122364547Y-53947835D01*
X122364547Y-53947836D01*
X122366438Y-54007986D01*
X122366500Y-54011945D01*
X122366500Y-54039856D01*
X122366997Y-54043790D01*
X122366997Y-54043791D01*
X122367005Y-54043856D01*
X122367938Y-54055693D01*
X122369327Y-54099889D01*
X122374978Y-54119339D01*
X122378987Y-54138700D01*
X122381526Y-54158797D01*
X122384445Y-54166168D01*
X122384445Y-54166170D01*
X122397804Y-54199912D01*
X122401649Y-54211142D01*
X122411771Y-54245983D01*
X122413982Y-54253593D01*
X122418015Y-54260412D01*
X122418017Y-54260417D01*
X122424293Y-54271028D01*
X122432988Y-54288776D01*
X122440448Y-54307617D01*
X122445110Y-54314033D01*
X122445110Y-54314034D01*
X122466436Y-54343387D01*
X122472952Y-54353307D01*
X122479630Y-54364598D01*
X122495458Y-54391362D01*
X122509779Y-54405683D01*
X122522619Y-54420716D01*
X122534528Y-54437107D01*
X122540634Y-54442158D01*
X122568605Y-54465298D01*
X122577384Y-54473288D01*
X123052878Y-54948782D01*
X123086904Y-55011094D01*
X123089093Y-55024707D01*
X123105740Y-55183093D01*
X123106458Y-55189928D01*
X123165473Y-55371556D01*
X123168776Y-55377278D01*
X123168777Y-55377279D01*
X123175371Y-55388700D01*
X123260960Y-55536944D01*
X123265378Y-55541851D01*
X123265379Y-55541852D01*
X123384325Y-55673955D01*
X123388747Y-55678866D01*
X123543248Y-55791118D01*
X123549276Y-55793802D01*
X123549278Y-55793803D01*
X123711681Y-55866109D01*
X123717712Y-55868794D01*
X123811112Y-55888647D01*
X123898056Y-55907128D01*
X123898061Y-55907128D01*
X123904513Y-55908500D01*
X124095487Y-55908500D01*
X124101939Y-55907128D01*
X124101944Y-55907128D01*
X124188888Y-55888647D01*
X124282288Y-55868794D01*
X124288319Y-55866109D01*
X124450722Y-55793803D01*
X124450724Y-55793802D01*
X124456752Y-55791118D01*
X124611253Y-55678866D01*
X124615675Y-55673955D01*
X124734621Y-55541852D01*
X124734622Y-55541851D01*
X124739040Y-55536944D01*
X124824629Y-55388700D01*
X124831223Y-55377279D01*
X124831224Y-55377278D01*
X124834527Y-55371556D01*
X124893542Y-55189928D01*
X124894261Y-55183093D01*
X124912814Y-55006565D01*
X124913504Y-55000000D01*
X124906715Y-54935405D01*
X124894232Y-54816635D01*
X124894232Y-54816633D01*
X124893542Y-54810072D01*
X124834527Y-54628444D01*
X124739040Y-54463056D01*
X124720224Y-54442158D01*
X124615675Y-54326045D01*
X124615674Y-54326044D01*
X124611253Y-54321134D01*
X124456752Y-54208882D01*
X124450724Y-54206198D01*
X124450722Y-54206197D01*
X124288319Y-54133891D01*
X124288318Y-54133891D01*
X124282288Y-54131206D01*
X124170747Y-54107497D01*
X124101944Y-54092872D01*
X124101939Y-54092872D01*
X124095487Y-54091500D01*
X124039595Y-54091500D01*
X123971474Y-54071498D01*
X123950499Y-54054595D01*
X123744500Y-53848595D01*
X123710475Y-53786283D01*
X123715540Y-53715467D01*
X123758087Y-53658632D01*
X123824608Y-53633821D01*
X123833596Y-53633500D01*
X129791800Y-53633500D01*
X129859921Y-53653502D01*
X129879147Y-53669843D01*
X129879420Y-53669540D01*
X129884332Y-53673963D01*
X129888747Y-53678866D01*
X130043248Y-53791118D01*
X130049276Y-53793802D01*
X130049278Y-53793803D01*
X130172344Y-53848595D01*
X130217712Y-53868794D01*
X130311112Y-53888647D01*
X130398056Y-53907128D01*
X130398061Y-53907128D01*
X130404513Y-53908500D01*
X130595487Y-53908500D01*
X130601939Y-53907128D01*
X130601944Y-53907128D01*
X130688887Y-53888647D01*
X130782288Y-53868794D01*
X130827656Y-53848595D01*
X130950722Y-53793803D01*
X130950724Y-53793802D01*
X130956752Y-53791118D01*
X131111253Y-53678866D01*
X131115668Y-53673963D01*
X131120580Y-53669540D01*
X131121705Y-53670789D01*
X131175014Y-53637949D01*
X131208200Y-53633500D01*
X136791800Y-53633500D01*
X136859921Y-53653502D01*
X136879147Y-53669843D01*
X136879420Y-53669540D01*
X136884332Y-53673963D01*
X136888747Y-53678866D01*
X137043248Y-53791118D01*
X137049276Y-53793802D01*
X137049278Y-53793803D01*
X137172344Y-53848595D01*
X137217712Y-53868794D01*
X137311112Y-53888647D01*
X137398056Y-53907128D01*
X137398061Y-53907128D01*
X137404513Y-53908500D01*
X137595487Y-53908500D01*
X137601939Y-53907128D01*
X137601944Y-53907128D01*
X137688887Y-53888647D01*
X137782288Y-53868794D01*
X137827656Y-53848595D01*
X137950722Y-53793803D01*
X137950724Y-53793802D01*
X137956752Y-53791118D01*
X138111253Y-53678866D01*
X138148095Y-53637949D01*
X138234621Y-53541852D01*
X138234622Y-53541851D01*
X138239040Y-53536944D01*
X138334527Y-53371556D01*
X138393542Y-53189928D01*
X138413504Y-53000000D01*
X138393542Y-52810072D01*
X138334527Y-52628444D01*
X138239040Y-52463056D01*
X138222882Y-52445110D01*
X138115675Y-52326045D01*
X138115674Y-52326044D01*
X138111253Y-52321134D01*
X137956752Y-52208882D01*
X137950724Y-52206198D01*
X137950722Y-52206197D01*
X137788319Y-52133891D01*
X137788318Y-52133891D01*
X137782288Y-52131206D01*
X137688887Y-52111353D01*
X137601944Y-52092872D01*
X137601939Y-52092872D01*
X137595487Y-52091500D01*
X137404513Y-52091500D01*
X137398061Y-52092872D01*
X137398056Y-52092872D01*
X137311112Y-52111353D01*
X137217712Y-52131206D01*
X137211682Y-52133891D01*
X137211681Y-52133891D01*
X137049278Y-52206197D01*
X137049276Y-52206198D01*
X137043248Y-52208882D01*
X136888747Y-52321134D01*
X136884332Y-52326037D01*
X136879420Y-52330460D01*
X136878295Y-52329211D01*
X136824986Y-52362051D01*
X136791800Y-52366500D01*
X131208200Y-52366500D01*
X131140079Y-52346498D01*
X131120853Y-52330157D01*
X131120580Y-52330460D01*
X131115668Y-52326037D01*
X131111253Y-52321134D01*
X130956752Y-52208882D01*
X130950724Y-52206198D01*
X130950722Y-52206197D01*
X130788319Y-52133891D01*
X130788318Y-52133891D01*
X130782288Y-52131206D01*
X130688887Y-52111353D01*
X130601944Y-52092872D01*
X130601939Y-52092872D01*
X130595487Y-52091500D01*
X130404513Y-52091500D01*
X130398061Y-52092872D01*
X130398056Y-52092872D01*
X130311112Y-52111353D01*
X130217712Y-52131206D01*
X130211682Y-52133891D01*
X130211681Y-52133891D01*
X130049278Y-52206197D01*
X130049276Y-52206198D01*
X130043248Y-52208882D01*
X129888747Y-52321134D01*
X129884332Y-52326037D01*
X129879420Y-52330460D01*
X129878295Y-52329211D01*
X129824986Y-52362051D01*
X129791800Y-52366500D01*
X123071793Y-52366500D01*
X123048184Y-52364268D01*
X123047881Y-52364210D01*
X123047877Y-52364210D01*
X123040094Y-52362725D01*
X122984049Y-52366251D01*
X122976138Y-52366500D01*
X118321793Y-52366500D01*
X118298184Y-52364268D01*
X118297881Y-52364210D01*
X118297877Y-52364210D01*
X118290094Y-52362725D01*
X118234049Y-52366251D01*
X118226138Y-52366500D01*
X91418767Y-52366500D01*
X91407584Y-52365973D01*
X91400091Y-52364298D01*
X91392165Y-52364547D01*
X91392164Y-52364547D01*
X91332001Y-52366438D01*
X91328043Y-52366500D01*
X91300144Y-52366500D01*
X91296154Y-52367004D01*
X91284320Y-52367936D01*
X91240111Y-52369326D01*
X91232497Y-52371538D01*
X91232492Y-52371539D01*
X91220659Y-52374977D01*
X91201296Y-52378988D01*
X91181203Y-52381526D01*
X91173836Y-52384443D01*
X91173831Y-52384444D01*
X91140092Y-52397802D01*
X91128865Y-52401646D01*
X91086407Y-52413982D01*
X91079581Y-52418019D01*
X91068972Y-52424293D01*
X91051224Y-52432988D01*
X91032383Y-52440448D01*
X91025967Y-52445110D01*
X91025966Y-52445110D01*
X90996613Y-52466436D01*
X90986693Y-52472952D01*
X90955465Y-52491420D01*
X90955462Y-52491422D01*
X90948638Y-52495458D01*
X90934317Y-52509779D01*
X90919284Y-52522619D01*
X90902893Y-52534528D01*
X90897842Y-52540634D01*
X90874702Y-52568605D01*
X90866712Y-52577384D01*
X89297345Y-54146750D01*
X89235033Y-54180776D01*
X89186154Y-54181702D01*
X88973373Y-54143800D01*
X88973367Y-54143799D01*
X88968284Y-54142894D01*
X88894452Y-54141992D01*
X88750081Y-54140228D01*
X88750079Y-54140228D01*
X88744911Y-54140165D01*
X88524091Y-54173955D01*
X88311756Y-54243357D01*
X88281443Y-54259137D01*
X88191678Y-54305866D01*
X88113607Y-54346507D01*
X88109474Y-54349610D01*
X88109471Y-54349612D01*
X87944750Y-54473288D01*
X87934965Y-54480635D01*
X87780629Y-54642138D01*
X87654743Y-54826680D01*
X87607716Y-54927992D01*
X87571244Y-55006565D01*
X87560688Y-55029305D01*
X87500989Y-55244570D01*
X87477251Y-55466695D01*
X80510028Y-55466695D01*
X80508036Y-52553074D01*
X80509783Y-52532084D01*
X80512264Y-52517340D01*
X80512265Y-52517330D01*
X80513071Y-52512539D01*
X80513224Y-52500000D01*
X80511502Y-52487975D01*
X80510499Y-52461871D01*
X80524502Y-52248234D01*
X80526653Y-52231894D01*
X80574265Y-51992530D01*
X80578529Y-51976617D01*
X80656978Y-51745514D01*
X80663284Y-51730290D01*
X80771224Y-51511408D01*
X80779465Y-51497134D01*
X80915050Y-51294217D01*
X80925083Y-51281142D01*
X81085998Y-51097653D01*
X81097653Y-51085998D01*
X81281142Y-50925083D01*
X81294217Y-50915050D01*
X81497134Y-50779465D01*
X81511408Y-50771224D01*
X81730290Y-50663284D01*
X81745516Y-50656977D01*
X81976617Y-50578529D01*
X81992527Y-50574266D01*
X82112212Y-50550459D01*
X82231894Y-50526653D01*
X82248234Y-50524502D01*
X82458268Y-50510736D01*
X82481304Y-50511761D01*
X82484854Y-50511804D01*
X82493730Y-50513186D01*
X82525252Y-50509064D01*
X82541589Y-50508000D01*
X137450672Y-50508000D01*
X137470057Y-50509500D01*
G37*
%TD.AperFunction*%
%TD*%
M02*
