M48
; DRILL file {KiCad (6.0.5)} date Thu Sep  1 18:41:34 2022
; FORMAT={-:-/ absolute / inch / decimal}
; #@! TF.CreationDate,2022-09-01T18:41:34+02:00
; #@! TF.GenerationSoftware,Kicad,Pcbnew,(6.0.5)
; #@! TF.FileFunction,Plated,1,2,PTH
FMAT,2
INCH
; #@! TA.AperFunction,Plated,PTH,ViaDrill
T1C0.0157
; #@! TA.AperFunction,Plated,PTH,ComponentDrill
T2C0.0394
%
G90
G05
T1
X3.5433Y-2.5197
X4.1732Y-2.5197
X4.3799Y-2.1753
X4.4291Y-2.2835
X4.626Y-2.2441
X4.7146Y-2.4114
X4.7244Y-2.2441
X4.7638Y-2.5197
X4.7736Y-2.4114
X4.8819Y-2.1654
X4.8819Y-2.3622
X5.1181Y-2.3622
X5.1378Y-2.0866
X5.3937Y-2.5197
X5.4134Y-2.0866
X5.4134Y-2.3327
T2
X3.4976Y-2.185
X3.4976Y-2.285
X3.5976Y-2.185
X3.5976Y-2.285
X3.6976Y-2.185
X3.6976Y-2.285
X3.7976Y-2.185
X3.7976Y-2.285
X3.8976Y-2.185
X3.8976Y-2.285
T0
M30
