%TF.GenerationSoftware,KiCad,Pcbnew,(6.0.0)*%
%TF.CreationDate,2022-02-23T07:46:13+01:00*%
%TF.ProjectId,4_Touch_Sensor_Board,345f546f-7563-4685-9f53-656e736f725f,rev?*%
%TF.SameCoordinates,Original*%
%TF.FileFunction,Legend,Top*%
%TF.FilePolarity,Positive*%
%FSLAX46Y46*%
G04 Gerber Fmt 4.6, Leading zero omitted, Abs format (unit mm)*
G04 Created by KiCad (PCBNEW (6.0.0)) date 2022-02-23 07:46:13*
%MOMM*%
%LPD*%
G01*
G04 APERTURE LIST*
%ADD10C,0.200000*%
%ADD11C,0.150000*%
%ADD12C,0.120000*%
G04 APERTURE END LIST*
D10*
X136880952Y-51452380D02*
X137071428Y-51452380D01*
X137166666Y-51500000D01*
X137261904Y-51595238D01*
X137309523Y-51785714D01*
X137309523Y-52119047D01*
X137261904Y-52309523D01*
X137166666Y-52404761D01*
X137071428Y-52452380D01*
X136880952Y-52452380D01*
X136785714Y-52404761D01*
X136690476Y-52309523D01*
X136642857Y-52119047D01*
X136642857Y-51785714D01*
X136690476Y-51595238D01*
X136785714Y-51500000D01*
X136880952Y-51452380D01*
X137738095Y-52452380D02*
X137738095Y-51452380D01*
X138309523Y-52452380D01*
X138309523Y-51452380D01*
X130785714Y-57952380D02*
X130785714Y-56952380D01*
X131119047Y-57666666D01*
X131452380Y-56952380D01*
X131452380Y-57952380D01*
X132119047Y-56952380D02*
X132309523Y-56952380D01*
X132404761Y-57000000D01*
X132500000Y-57095238D01*
X132547619Y-57285714D01*
X132547619Y-57619047D01*
X132500000Y-57809523D01*
X132404761Y-57904761D01*
X132309523Y-57952380D01*
X132119047Y-57952380D01*
X132023809Y-57904761D01*
X131928571Y-57809523D01*
X131880952Y-57619047D01*
X131880952Y-57285714D01*
X131928571Y-57095238D01*
X132023809Y-57000000D01*
X132119047Y-56952380D01*
X132833333Y-56952380D02*
X133404761Y-56952380D01*
X133119047Y-57952380D02*
X133119047Y-56952380D01*
X133928571Y-56952380D02*
X134023809Y-56952380D01*
X134119047Y-57000000D01*
X134166666Y-57047619D01*
X134214285Y-57142857D01*
X134261904Y-57333333D01*
X134261904Y-57571428D01*
X134214285Y-57761904D01*
X134166666Y-57857142D01*
X134119047Y-57904761D01*
X134023809Y-57952380D01*
X133928571Y-57952380D01*
X133833333Y-57904761D01*
X133785714Y-57857142D01*
X133738095Y-57761904D01*
X133690476Y-57571428D01*
X133690476Y-57333333D01*
X133738095Y-57142857D01*
X133785714Y-57047619D01*
X133833333Y-57000000D01*
X133928571Y-56952380D01*
X118858333Y-53166666D02*
X119334523Y-53166666D01*
X118763095Y-53452380D02*
X119096428Y-52452380D01*
X119429761Y-53452380D01*
X119763095Y-53452380D02*
X119763095Y-52452380D01*
X119763095Y-52928571D02*
X120334523Y-52928571D01*
X120334523Y-53452380D02*
X120334523Y-52452380D01*
X121286904Y-53452380D02*
X120810714Y-53452380D01*
X120810714Y-52452380D01*
X121953571Y-52928571D02*
X122096428Y-52976190D01*
X122144047Y-53023809D01*
X122191666Y-53119047D01*
X122191666Y-53261904D01*
X122144047Y-53357142D01*
X122096428Y-53404761D01*
X122001190Y-53452380D01*
X121620238Y-53452380D01*
X121620238Y-52452380D01*
X121953571Y-52452380D01*
X122048809Y-52500000D01*
X122096428Y-52547619D01*
X122144047Y-52642857D01*
X122144047Y-52738095D01*
X122096428Y-52833333D01*
X122048809Y-52880952D01*
X121953571Y-52928571D01*
X121620238Y-52928571D01*
X131238095Y-53452380D02*
X130761904Y-53452380D01*
X130761904Y-52452380D01*
X131571428Y-53452380D02*
X131571428Y-52452380D01*
X131952380Y-52452380D01*
X132047619Y-52500000D01*
X132095238Y-52547619D01*
X132142857Y-52642857D01*
X132142857Y-52785714D01*
X132095238Y-52880952D01*
X132047619Y-52928571D01*
X131952380Y-52976190D01*
X131571428Y-52976190D01*
X132571428Y-53452380D02*
X132571428Y-52452380D01*
X132904761Y-53166666D01*
X133238095Y-52452380D01*
X133238095Y-53452380D01*
X134047619Y-52928571D02*
X134190476Y-52976190D01*
X134238095Y-53023809D01*
X134285714Y-53119047D01*
X134285714Y-53261904D01*
X134238095Y-53357142D01*
X134190476Y-53404761D01*
X134095238Y-53452380D01*
X133714285Y-53452380D01*
X133714285Y-52452380D01*
X134047619Y-52452380D01*
X134142857Y-52500000D01*
X134190476Y-52547619D01*
X134238095Y-52642857D01*
X134238095Y-52738095D01*
X134190476Y-52833333D01*
X134142857Y-52880952D01*
X134047619Y-52928571D01*
X133714285Y-52928571D01*
X125190476Y-52452380D02*
X125761904Y-52452380D01*
X125476190Y-53452380D02*
X125476190Y-52452380D01*
X126285714Y-52452380D02*
X126476190Y-52452380D01*
X126571428Y-52500000D01*
X126666666Y-52595238D01*
X126714285Y-52785714D01*
X126714285Y-53119047D01*
X126666666Y-53309523D01*
X126571428Y-53404761D01*
X126476190Y-53452380D01*
X126285714Y-53452380D01*
X126190476Y-53404761D01*
X126095238Y-53309523D01*
X126047619Y-53119047D01*
X126047619Y-52785714D01*
X126095238Y-52595238D01*
X126190476Y-52500000D01*
X126285714Y-52452380D01*
X127666666Y-52500000D02*
X127571428Y-52452380D01*
X127428571Y-52452380D01*
X127285714Y-52500000D01*
X127190476Y-52595238D01*
X127142857Y-52690476D01*
X127095238Y-52880952D01*
X127095238Y-53023809D01*
X127142857Y-53214285D01*
X127190476Y-53309523D01*
X127285714Y-53404761D01*
X127428571Y-53452380D01*
X127523809Y-53452380D01*
X127666666Y-53404761D01*
X127714285Y-53357142D01*
X127714285Y-53023809D01*
X127523809Y-53023809D01*
X125904761Y-56952380D02*
X126095238Y-56952380D01*
X126190476Y-57000000D01*
X126285714Y-57095238D01*
X126333333Y-57285714D01*
X126333333Y-57619047D01*
X126285714Y-57809523D01*
X126190476Y-57904761D01*
X126095238Y-57952380D01*
X125904761Y-57952380D01*
X125809523Y-57904761D01*
X125714285Y-57809523D01*
X125666666Y-57619047D01*
X125666666Y-57285714D01*
X125714285Y-57095238D01*
X125809523Y-57000000D01*
X125904761Y-56952380D01*
X126761904Y-57952380D02*
X126761904Y-56952380D01*
X127000000Y-56952380D01*
X127142857Y-57000000D01*
X127238095Y-57095238D01*
X127285714Y-57190476D01*
X127333333Y-57380952D01*
X127333333Y-57523809D01*
X127285714Y-57714285D01*
X127238095Y-57809523D01*
X127142857Y-57904761D01*
X127000000Y-57952380D01*
X126761904Y-57952380D01*
X119642857Y-57904761D02*
X119785714Y-57952380D01*
X120023809Y-57952380D01*
X120119047Y-57904761D01*
X120166666Y-57857142D01*
X120214285Y-57761904D01*
X120214285Y-57666666D01*
X120166666Y-57571428D01*
X120119047Y-57523809D01*
X120023809Y-57476190D01*
X119833333Y-57428571D01*
X119738095Y-57380952D01*
X119690476Y-57333333D01*
X119642857Y-57238095D01*
X119642857Y-57142857D01*
X119690476Y-57047619D01*
X119738095Y-57000000D01*
X119833333Y-56952380D01*
X120071428Y-56952380D01*
X120214285Y-57000000D01*
X120642857Y-57952380D02*
X120642857Y-56952380D01*
X120976190Y-57666666D01*
X121309523Y-56952380D01*
X121309523Y-57952380D01*
D11*
%TO.C,C2*%
X102833333Y-62927142D02*
X102785714Y-62974761D01*
X102642857Y-63022380D01*
X102547619Y-63022380D01*
X102404761Y-62974761D01*
X102309523Y-62879523D01*
X102261904Y-62784285D01*
X102214285Y-62593809D01*
X102214285Y-62450952D01*
X102261904Y-62260476D01*
X102309523Y-62165238D01*
X102404761Y-62070000D01*
X102547619Y-62022380D01*
X102642857Y-62022380D01*
X102785714Y-62070000D01*
X102833333Y-62117619D01*
X103214285Y-62117619D02*
X103261904Y-62070000D01*
X103357142Y-62022380D01*
X103595238Y-62022380D01*
X103690476Y-62070000D01*
X103738095Y-62117619D01*
X103785714Y-62212857D01*
X103785714Y-62308095D01*
X103738095Y-62450952D01*
X103166666Y-63022380D01*
X103785714Y-63022380D01*
%TO.C,C4*%
X133833333Y-62927142D02*
X133785714Y-62974761D01*
X133642857Y-63022380D01*
X133547619Y-63022380D01*
X133404761Y-62974761D01*
X133309523Y-62879523D01*
X133261904Y-62784285D01*
X133214285Y-62593809D01*
X133214285Y-62450952D01*
X133261904Y-62260476D01*
X133309523Y-62165238D01*
X133404761Y-62070000D01*
X133547619Y-62022380D01*
X133642857Y-62022380D01*
X133785714Y-62070000D01*
X133833333Y-62117619D01*
X134690476Y-62355714D02*
X134690476Y-63022380D01*
X134452380Y-61974761D02*
X134214285Y-62689047D01*
X134833333Y-62689047D01*
%TO.C,C1*%
X87333333Y-62927142D02*
X87285714Y-62974761D01*
X87142857Y-63022380D01*
X87047619Y-63022380D01*
X86904761Y-62974761D01*
X86809523Y-62879523D01*
X86761904Y-62784285D01*
X86714285Y-62593809D01*
X86714285Y-62450952D01*
X86761904Y-62260476D01*
X86809523Y-62165238D01*
X86904761Y-62070000D01*
X87047619Y-62022380D01*
X87142857Y-62022380D01*
X87285714Y-62070000D01*
X87333333Y-62117619D01*
X88285714Y-63022380D02*
X87714285Y-63022380D01*
X88000000Y-63022380D02*
X88000000Y-62022380D01*
X87904761Y-62165238D01*
X87809523Y-62260476D01*
X87714285Y-62308095D01*
%TO.C,U1*%
X111488095Y-59702380D02*
X111488095Y-60511904D01*
X111535714Y-60607142D01*
X111583333Y-60654761D01*
X111678571Y-60702380D01*
X111869047Y-60702380D01*
X111964285Y-60654761D01*
X112011904Y-60607142D01*
X112059523Y-60511904D01*
X112059523Y-59702380D01*
X113059523Y-60702380D02*
X112488095Y-60702380D01*
X112773809Y-60702380D02*
X112773809Y-59702380D01*
X112678571Y-59845238D01*
X112583333Y-59940476D01*
X112488095Y-59988095D01*
%TO.C,J1*%
X104916666Y-56202380D02*
X104916666Y-56916666D01*
X104869047Y-57059523D01*
X104773809Y-57154761D01*
X104630952Y-57202380D01*
X104535714Y-57202380D01*
X105916666Y-57202380D02*
X105345238Y-57202380D01*
X105630952Y-57202380D02*
X105630952Y-56202380D01*
X105535714Y-56345238D01*
X105440476Y-56440476D01*
X105345238Y-56488095D01*
%TO.C,C3*%
X118333333Y-62927142D02*
X118285714Y-62974761D01*
X118142857Y-63022380D01*
X118047619Y-63022380D01*
X117904761Y-62974761D01*
X117809523Y-62879523D01*
X117761904Y-62784285D01*
X117714285Y-62593809D01*
X117714285Y-62450952D01*
X117761904Y-62260476D01*
X117809523Y-62165238D01*
X117904761Y-62070000D01*
X118047619Y-62022380D01*
X118142857Y-62022380D01*
X118285714Y-62070000D01*
X118333333Y-62117619D01*
X118666666Y-62022380D02*
X119285714Y-62022380D01*
X118952380Y-62403333D01*
X119095238Y-62403333D01*
X119190476Y-62450952D01*
X119238095Y-62498571D01*
X119285714Y-62593809D01*
X119285714Y-62831904D01*
X119238095Y-62927142D01*
X119190476Y-62974761D01*
X119095238Y-63022380D01*
X118809523Y-63022380D01*
X118714285Y-62974761D01*
X118666666Y-62927142D01*
D12*
%TO.C,C2*%
X102859420Y-63490000D02*
X103140580Y-63490000D01*
X102859420Y-64510000D02*
X103140580Y-64510000D01*
%TO.C,JP6*%
X131100000Y-58500000D02*
X133900000Y-58500000D01*
X131100000Y-60500000D02*
X131100000Y-58500000D01*
X133900000Y-60500000D02*
X131100000Y-60500000D01*
X133900000Y-58500000D02*
X133900000Y-60500000D01*
%TO.C,JP1*%
X119125000Y-56000000D02*
X119125000Y-54000000D01*
X119125000Y-54000000D02*
X121925000Y-54000000D01*
X121925000Y-54000000D02*
X121925000Y-56000000D01*
X121925000Y-56000000D02*
X119125000Y-56000000D01*
%TO.C,JP2*%
X127912500Y-56000000D02*
X125112500Y-56000000D01*
X125112500Y-56000000D02*
X125112500Y-54000000D01*
X125112500Y-54000000D02*
X127912500Y-54000000D01*
X127912500Y-54000000D02*
X127912500Y-56000000D01*
%TO.C,R1*%
X137120000Y-57903641D02*
X137120000Y-57596359D01*
X137880000Y-57903641D02*
X137880000Y-57596359D01*
%TO.C,C4*%
X133859420Y-63490000D02*
X134140580Y-63490000D01*
X133859420Y-64510000D02*
X134140580Y-64510000D01*
%TO.C,C1*%
X87359420Y-64510000D02*
X87640580Y-64510000D01*
X87359420Y-63490000D02*
X87640580Y-63490000D01*
%TO.C,JP5*%
X127900000Y-58500000D02*
X127900000Y-60500000D01*
X127900000Y-60500000D02*
X125100000Y-60500000D01*
X125100000Y-58500000D02*
X127900000Y-58500000D01*
X125100000Y-60500000D02*
X125100000Y-58500000D01*
D11*
%TO.C,U1*%
X115525000Y-59475000D02*
X110250000Y-59475000D01*
X114250000Y-54075000D02*
X110250000Y-54075000D01*
D12*
%TO.C,J1*%
X95970000Y-52210000D02*
X95970000Y-53520000D01*
X104210000Y-61330000D02*
X83630000Y-61330000D01*
X99500000Y-50820000D02*
X98500000Y-50820000D01*
X83630000Y-52210000D02*
X104210000Y-52210000D01*
X83630000Y-61330000D02*
X83630000Y-52210000D01*
X84930000Y-60020000D02*
X84930000Y-53520000D01*
X91870000Y-53520000D02*
X91870000Y-53520000D01*
X102910000Y-60020000D02*
X84930000Y-60020000D01*
X98500000Y-50820000D02*
X99000000Y-51820000D01*
X104210000Y-52210000D02*
X104210000Y-61330000D01*
X99000000Y-51820000D02*
X99500000Y-50820000D01*
X91870000Y-53520000D02*
X91870000Y-52210000D01*
X95970000Y-53520000D02*
X102910000Y-53520000D01*
X102910000Y-53520000D02*
X102910000Y-60020000D01*
X84930000Y-53520000D02*
X91870000Y-53520000D01*
%TO.C,H2*%
G36*
X103159159Y-69872746D02*
G01*
X103417152Y-69910846D01*
X103672964Y-69976669D01*
X103713483Y-69989771D01*
X103952036Y-70082915D01*
X104181692Y-70199762D01*
X104399863Y-70338079D01*
X104603964Y-70495631D01*
X104791409Y-70670186D01*
X104959612Y-70859510D01*
X105105987Y-71061371D01*
X105227947Y-71273533D01*
X105248389Y-71315337D01*
X105328427Y-71504113D01*
X105389990Y-71696534D01*
X105433791Y-71896751D01*
X105460544Y-72108912D01*
X105470960Y-72337167D01*
X105465951Y-72581616D01*
X105460685Y-72669319D01*
X105453035Y-72758957D01*
X105442477Y-72854111D01*
X105428485Y-72958362D01*
X105410533Y-73075291D01*
X105388097Y-73208478D01*
X105360651Y-73361505D01*
X105327670Y-73537951D01*
X105318867Y-73584213D01*
X105289178Y-73740191D01*
X105264464Y-73871703D01*
X105244271Y-73982303D01*
X105228141Y-74075543D01*
X105215619Y-74154976D01*
X105206249Y-74224154D01*
X105199576Y-74286631D01*
X105195142Y-74345958D01*
X105192493Y-74405688D01*
X105191173Y-74469374D01*
X105190725Y-74540569D01*
X105190686Y-74583090D01*
X105191032Y-74685751D01*
X105192457Y-74766527D01*
X105195516Y-74832067D01*
X105200763Y-74889020D01*
X105208752Y-74944036D01*
X105220040Y-75003763D01*
X105229554Y-75048939D01*
X105285125Y-75272270D01*
X105350914Y-75474999D01*
X105426111Y-75655003D01*
X105509910Y-75810159D01*
X105532586Y-75845535D01*
X105625645Y-75971884D01*
X105726178Y-76079965D01*
X105838742Y-76173262D01*
X105967894Y-76255259D01*
X106118190Y-76329440D01*
X106221053Y-76371895D01*
X106307129Y-76406969D01*
X106370915Y-76437585D01*
X106417551Y-76467173D01*
X106452175Y-76499160D01*
X106479927Y-76536975D01*
X106487507Y-76549668D01*
X106524009Y-76638998D01*
X106533109Y-76729597D01*
X106515128Y-76817692D01*
X106470390Y-76899505D01*
X106456138Y-76917283D01*
X106387860Y-76979388D01*
X106309902Y-77016505D01*
X106220821Y-77028860D01*
X106119176Y-77016679D01*
X106018675Y-76986028D01*
X105790083Y-76888851D01*
X105585291Y-76777514D01*
X105402444Y-76650357D01*
X105239685Y-76505721D01*
X105095159Y-76341944D01*
X104967010Y-76157368D01*
X104853382Y-75950333D01*
X104847733Y-75938708D01*
X104745107Y-75698454D01*
X104661647Y-75444475D01*
X104598466Y-75182358D01*
X104556677Y-74917693D01*
X104537392Y-74656068D01*
X104541725Y-74403075D01*
X104541779Y-74402282D01*
X104549256Y-74306011D01*
X104559019Y-74209091D01*
X104571701Y-74107344D01*
X104587935Y-73996595D01*
X104608354Y-73872665D01*
X104633591Y-73731379D01*
X104664279Y-73568559D01*
X104681978Y-73477191D01*
X104713855Y-73312685D01*
X104740408Y-73172310D01*
X104762115Y-73052251D01*
X104779454Y-72948696D01*
X104792902Y-72857830D01*
X104802936Y-72775841D01*
X104810034Y-72698916D01*
X104814672Y-72623240D01*
X104817330Y-72545001D01*
X104818483Y-72460385D01*
X104818644Y-72385562D01*
X104817316Y-72250745D01*
X104813046Y-72138405D01*
X104804919Y-72042548D01*
X104792020Y-71957185D01*
X104773433Y-71876322D01*
X104748241Y-71793968D01*
X104715530Y-71704132D01*
X104713849Y-71699770D01*
X104629363Y-71519162D01*
X104519736Y-71346192D01*
X104387859Y-71183149D01*
X104236623Y-71032320D01*
X104068921Y-70895994D01*
X103887645Y-70776461D01*
X103695686Y-70676007D01*
X103495936Y-70596923D01*
X103291287Y-70541495D01*
X103237148Y-70531157D01*
X103121712Y-70516726D01*
X102990651Y-70509665D01*
X102853998Y-70509875D01*
X102721787Y-70517255D01*
X102604052Y-70531708D01*
X102571463Y-70537731D01*
X102354252Y-70593983D01*
X102149865Y-70672219D01*
X101955620Y-70773925D01*
X101768833Y-70900587D01*
X101586821Y-71053691D01*
X101514723Y-71122697D01*
X101410785Y-71229930D01*
X101316423Y-71337247D01*
X101228887Y-71448743D01*
X101145426Y-71568513D01*
X101063288Y-71700652D01*
X100979724Y-71849253D01*
X100891982Y-72018412D01*
X100834067Y-72135843D01*
X100735654Y-72329056D01*
X100636883Y-72501909D01*
X100533096Y-72660954D01*
X100419631Y-72812746D01*
X100291831Y-72963838D01*
X100145034Y-73120782D01*
X100104358Y-73162168D01*
X99939341Y-73321130D01*
X99754064Y-73486324D01*
X99554545Y-73652843D01*
X99346801Y-73815781D01*
X99136849Y-73970230D01*
X98982629Y-74076826D01*
X98888261Y-74138307D01*
X98811385Y-74183296D01*
X98747335Y-74213291D01*
X98691444Y-74229785D01*
X98639047Y-74234276D01*
X98585478Y-74228260D01*
X98542432Y-74217948D01*
X98475908Y-74185994D01*
X98415378Y-74132415D01*
X98365823Y-74064106D01*
X98332222Y-73987963D01*
X98319556Y-73910882D01*
X98319550Y-73909322D01*
X98325180Y-73848175D01*
X98343845Y-73792383D01*
X98378214Y-73738564D01*
X98430953Y-73683332D01*
X98504729Y-73623304D01*
X98594817Y-73560033D01*
X98818192Y-73404738D01*
X99033844Y-73243733D01*
X99238143Y-73080062D01*
X99427455Y-72916764D01*
X99598148Y-72756882D01*
X99746592Y-72603456D01*
X99775521Y-72571302D01*
X99856688Y-72478102D01*
X99926362Y-72393641D01*
X99987778Y-72312954D01*
X100044174Y-72231078D01*
X100098784Y-72143051D01*
X100154844Y-72043910D01*
X100215590Y-71928690D01*
X100284257Y-71792429D01*
X100287331Y-71786236D01*
X100388220Y-71588725D01*
X100484114Y-71414089D01*
X100578051Y-71257815D01*
X100673069Y-71115394D01*
X100772206Y-70982313D01*
X100878500Y-70854062D01*
X100994987Y-70726129D01*
X101016052Y-70704056D01*
X101218133Y-70512649D01*
X101433141Y-70344965D01*
X101659398Y-70201447D01*
X101895226Y-70082541D01*
X102138945Y-69988692D01*
X102388877Y-69920343D01*
X102643343Y-69877939D01*
X102900663Y-69861925D01*
X103159159Y-69872746D01*
G37*
G36*
X103125246Y-66509621D02*
G01*
X103277769Y-66514491D01*
X103415931Y-66521871D01*
X103533618Y-66531762D01*
X103542247Y-66532693D01*
X103954781Y-66590713D01*
X104352045Y-66672531D01*
X104735219Y-66778626D01*
X105105483Y-66909474D01*
X105464018Y-67065551D01*
X105812003Y-67247336D01*
X106150617Y-67455305D01*
X106481043Y-67689936D01*
X106565363Y-67755056D01*
X106644812Y-67824414D01*
X106699935Y-67889857D01*
X106733756Y-67955621D01*
X106747308Y-68009945D01*
X106747956Y-68103365D01*
X106723137Y-68189520D01*
X106675751Y-68264292D01*
X106608695Y-68323560D01*
X106524870Y-68363206D01*
X106492861Y-68371527D01*
X106438581Y-68379585D01*
X106388680Y-68378129D01*
X106338338Y-68365262D01*
X106282737Y-68339085D01*
X106217059Y-68297698D01*
X106136483Y-68239203D01*
X106114373Y-68222392D01*
X105808411Y-68003095D01*
X105498842Y-67811060D01*
X105183127Y-67645031D01*
X104858726Y-67503749D01*
X104523102Y-67385958D01*
X104291404Y-67319741D01*
X103938986Y-67240738D01*
X103579215Y-67185282D01*
X103215404Y-67153315D01*
X102850867Y-67144781D01*
X102488917Y-67159623D01*
X102132867Y-67197783D01*
X101786032Y-67259205D01*
X101451723Y-67343833D01*
X101366124Y-67369991D01*
X101071890Y-67474742D01*
X100786449Y-67599004D01*
X100512727Y-67740942D01*
X100253653Y-67898721D01*
X100012152Y-68070505D01*
X99791152Y-68254459D01*
X99593580Y-68448747D01*
X99526317Y-68523677D01*
X99468751Y-68587146D01*
X99416209Y-68639404D01*
X99373155Y-68676208D01*
X99350401Y-68690822D01*
X99292631Y-68709582D01*
X99222967Y-68719514D01*
X99153979Y-68719719D01*
X99098239Y-68709297D01*
X99097247Y-68708938D01*
X99016296Y-68664947D01*
X98952677Y-68601522D01*
X98909007Y-68523679D01*
X98887903Y-68436437D01*
X98891982Y-68344815D01*
X98896610Y-68324215D01*
X98914761Y-68275022D01*
X98946134Y-68219781D01*
X98992706Y-68155920D01*
X99056455Y-68080865D01*
X99139356Y-67992043D01*
X99197135Y-67933062D01*
X99445179Y-67701972D01*
X99711753Y-67489953D01*
X99998591Y-67295766D01*
X100307426Y-67118173D01*
X100417191Y-67061631D01*
X100710709Y-66925512D01*
X101008600Y-66809643D01*
X101315095Y-66712807D01*
X101634424Y-66633782D01*
X101970821Y-66571349D01*
X102250843Y-66533024D01*
X102361162Y-66522867D01*
X102493798Y-66515210D01*
X102642637Y-66510056D01*
X102801567Y-66507405D01*
X102964474Y-66507260D01*
X103125246Y-66509621D01*
G37*
G36*
X103390476Y-67631097D02*
G01*
X103691474Y-67665738D01*
X103841910Y-67691173D01*
X104187515Y-67770950D01*
X104528052Y-67878490D01*
X104863699Y-68013879D01*
X105194638Y-68177203D01*
X105521047Y-68368548D01*
X105843105Y-68588000D01*
X106057495Y-68751561D01*
X106156752Y-68834195D01*
X106264483Y-68930265D01*
X106377660Y-69036570D01*
X106493257Y-69149909D01*
X106608247Y-69267082D01*
X106719605Y-69384888D01*
X106824303Y-69500127D01*
X106919315Y-69609599D01*
X107001614Y-69710102D01*
X107068173Y-69798435D01*
X107115174Y-69870044D01*
X107153853Y-69961098D01*
X107164765Y-70052397D01*
X107148289Y-70140862D01*
X107104802Y-70223414D01*
X107066208Y-70268522D01*
X106990148Y-70326935D01*
X106906663Y-70357950D01*
X106816745Y-70361282D01*
X106771971Y-70353061D01*
X106718312Y-70335227D01*
X106670232Y-70308176D01*
X106622654Y-70267742D01*
X106570498Y-70209758D01*
X106522285Y-70148227D01*
X106316887Y-69895138D01*
X106091135Y-69652368D01*
X105848289Y-69422457D01*
X105591611Y-69207943D01*
X105324361Y-69011368D01*
X105049802Y-68835270D01*
X104771194Y-68682190D01*
X104491799Y-68554666D01*
X104458955Y-68541432D01*
X104188223Y-68443219D01*
X103924780Y-68367501D01*
X103660974Y-68312698D01*
X103389154Y-68277231D01*
X103101667Y-68259517D01*
X103092753Y-68259244D01*
X102734697Y-68261116D01*
X102388315Y-68288276D01*
X102054057Y-68340585D01*
X101732373Y-68417904D01*
X101423712Y-68520094D01*
X101128526Y-68647017D01*
X100847263Y-68798533D01*
X100580373Y-68974502D01*
X100445730Y-69076973D01*
X100301049Y-69201239D01*
X100148044Y-69348977D01*
X99989148Y-69517224D01*
X99826792Y-69703017D01*
X99663406Y-69903391D01*
X99501422Y-70115385D01*
X99343271Y-70336033D01*
X99191385Y-70562374D01*
X99073539Y-70749613D01*
X99018234Y-70825959D01*
X98958313Y-70877381D01*
X98887983Y-70907473D01*
X98801453Y-70919825D01*
X98798871Y-70919945D01*
X98736279Y-70920500D01*
X98690135Y-70914272D01*
X98648770Y-70899347D01*
X98636390Y-70893317D01*
X98564177Y-70841629D01*
X98509594Y-70771993D01*
X98475106Y-70690444D01*
X98463177Y-70603019D01*
X98476274Y-70515754D01*
X98478919Y-70507663D01*
X98501874Y-70455555D01*
X98540915Y-70384092D01*
X98594107Y-70296043D01*
X98659511Y-70194181D01*
X98735191Y-70081278D01*
X98819210Y-69960104D01*
X98909631Y-69833433D01*
X99004518Y-69704034D01*
X99101933Y-69574680D01*
X99199939Y-69448143D01*
X99296599Y-69327193D01*
X99345511Y-69267640D01*
X99591407Y-68991398D01*
X99849304Y-68741004D01*
X100119591Y-68516234D01*
X100402655Y-68316867D01*
X100698882Y-68142682D01*
X101008661Y-67993456D01*
X101332379Y-67868968D01*
X101670423Y-67768995D01*
X102023180Y-67693315D01*
X102121972Y-67676865D01*
X102436533Y-67637671D01*
X102756884Y-67617013D01*
X103076905Y-67614838D01*
X103390476Y-67631097D01*
G37*
G36*
X103017514Y-72324346D02*
G01*
X103095652Y-72355813D01*
X103158690Y-72410223D01*
X103203960Y-72478535D01*
X103229212Y-72535601D01*
X103241931Y-72590954D01*
X103241462Y-72649529D01*
X103227147Y-72716260D01*
X103198330Y-72796082D01*
X103154354Y-72893930D01*
X103146520Y-72910240D01*
X103024143Y-73146090D01*
X102882464Y-73386798D01*
X102720402Y-73633893D01*
X102536882Y-73888906D01*
X102330823Y-74153366D01*
X102101148Y-74428805D01*
X101972843Y-74575955D01*
X101887904Y-74669404D01*
X101785474Y-74777792D01*
X101669503Y-74897227D01*
X101543942Y-75023815D01*
X101412743Y-75153663D01*
X101279857Y-75282877D01*
X101149235Y-75407563D01*
X101024828Y-75523828D01*
X100910587Y-75627778D01*
X100859550Y-75673010D01*
X100730797Y-75784105D01*
X100588130Y-75904004D01*
X100435481Y-76029613D01*
X100276778Y-76157835D01*
X100115952Y-76285574D01*
X99956934Y-76409735D01*
X99803653Y-76527220D01*
X99660039Y-76634934D01*
X99530023Y-76729781D01*
X99420836Y-76806410D01*
X99330155Y-76857902D01*
X99245238Y-76883216D01*
X99162305Y-76883071D01*
X99100786Y-76867281D01*
X99017593Y-76823680D01*
X98952983Y-76761511D01*
X98908930Y-76685413D01*
X98887410Y-76600028D01*
X98890398Y-76509996D01*
X98914899Y-76430543D01*
X98926312Y-76406059D01*
X98938259Y-76384834D01*
X98953678Y-76364263D01*
X98975501Y-76341740D01*
X99006665Y-76314661D01*
X99050103Y-76280421D01*
X99108751Y-76236413D01*
X99185543Y-76180033D01*
X99250322Y-76132789D01*
X99655932Y-75828066D01*
X100044618Y-75517580D01*
X100414817Y-75202805D01*
X100764967Y-74885215D01*
X101093507Y-74566283D01*
X101398874Y-74247483D01*
X101679507Y-73930288D01*
X101933844Y-73616172D01*
X101975445Y-73561744D01*
X102116910Y-73369903D01*
X102240990Y-73190111D01*
X102351874Y-73015740D01*
X102453751Y-72840158D01*
X102550810Y-72656734D01*
X102564775Y-72629009D01*
X102606316Y-72546664D01*
X102638255Y-72485746D01*
X102663470Y-72442016D01*
X102684842Y-72411237D01*
X102705249Y-72389169D01*
X102727572Y-72371575D01*
X102749162Y-72357615D01*
X102791823Y-72333734D01*
X102829929Y-72320568D01*
X102875492Y-72315093D01*
X102921517Y-72314213D01*
X103017514Y-72324346D01*
G37*
G36*
X103990674Y-74833553D02*
G01*
X104072876Y-74865758D01*
X104135922Y-74913727D01*
X104194247Y-74988824D01*
X104225760Y-75071212D01*
X104230560Y-75161828D01*
X104208745Y-75261611D01*
X104180145Y-75332247D01*
X104140143Y-75423280D01*
X104111833Y-75504536D01*
X104093445Y-75584656D01*
X104083208Y-75672277D01*
X104079348Y-75776039D01*
X104079196Y-75824550D01*
X104080171Y-75910386D01*
X104083035Y-75975927D01*
X104088781Y-76029403D01*
X104098399Y-76079045D01*
X104112882Y-76133083D01*
X104118738Y-76152753D01*
X104166514Y-76290485D01*
X104225239Y-76420878D01*
X104297043Y-76546705D01*
X104384056Y-76670741D01*
X104488411Y-76795760D01*
X104612238Y-76924535D01*
X104757668Y-77059841D01*
X104926404Y-77204098D01*
X104982884Y-77256189D01*
X105028306Y-77308488D01*
X105051264Y-77344077D01*
X105078760Y-77428013D01*
X105080957Y-77515312D01*
X105059546Y-77600066D01*
X105016221Y-77676367D01*
X104952672Y-77738308D01*
X104934966Y-77750155D01*
X104855825Y-77784923D01*
X104769397Y-77799184D01*
X104684933Y-77792179D01*
X104633342Y-77774883D01*
X104579646Y-77743673D01*
X104510913Y-77694358D01*
X104430861Y-77630339D01*
X104343209Y-77555021D01*
X104251678Y-77471808D01*
X104159985Y-77384103D01*
X104071850Y-77295309D01*
X103990992Y-77208830D01*
X103921129Y-77128070D01*
X103905537Y-77108820D01*
X103767481Y-76915781D01*
X103650022Y-76710127D01*
X103555174Y-76496273D01*
X103484952Y-76278634D01*
X103448092Y-76106189D01*
X103437257Y-76011443D01*
X103431863Y-75899232D01*
X103431718Y-75778560D01*
X103436631Y-75658428D01*
X103446411Y-75547841D01*
X103460864Y-75455802D01*
X103462058Y-75450235D01*
X103499054Y-75305242D01*
X103542685Y-75175464D01*
X103591571Y-75063822D01*
X103644330Y-74973240D01*
X103699582Y-74906641D01*
X103731018Y-74880963D01*
X103813868Y-74840680D01*
X103902379Y-74825036D01*
X103990674Y-74833553D01*
G37*
G36*
X102576073Y-76577378D02*
G01*
X102715236Y-76599721D01*
X102719357Y-76600697D01*
X102886188Y-76654523D01*
X103040172Y-76733297D01*
X103181485Y-76837192D01*
X103310300Y-76966382D01*
X103426794Y-77121041D01*
X103531141Y-77301344D01*
X103619058Y-77496239D01*
X103667768Y-77624899D01*
X103701964Y-77732529D01*
X103721996Y-77822462D01*
X103728213Y-77898032D01*
X103720967Y-77962571D01*
X103700606Y-78019414D01*
X103677983Y-78057501D01*
X103617603Y-78121764D01*
X103541768Y-78167577D01*
X103457196Y-78192717D01*
X103370605Y-78194964D01*
X103307623Y-78180009D01*
X103240656Y-78148916D01*
X103187786Y-78108299D01*
X103144988Y-78053197D01*
X103108237Y-77978648D01*
X103079565Y-77898821D01*
X103018464Y-77731761D01*
X102950290Y-77586285D01*
X102875971Y-77463422D01*
X102796435Y-77364206D01*
X102712609Y-77289667D01*
X102625420Y-77240836D01*
X102535797Y-77218745D01*
X102469091Y-77220134D01*
X102385406Y-77242689D01*
X102289382Y-77289647D01*
X102180794Y-77361170D01*
X102059419Y-77457419D01*
X101925031Y-77578555D01*
X101801348Y-77700248D01*
X101733826Y-77767838D01*
X101669928Y-77829781D01*
X101613356Y-77882647D01*
X101567809Y-77923006D01*
X101536986Y-77947427D01*
X101530225Y-77951646D01*
X101465638Y-77972754D01*
X101388811Y-77978445D01*
X101311393Y-77968914D01*
X101249779Y-77946932D01*
X101173404Y-77891545D01*
X101116939Y-77817823D01*
X101082936Y-77730082D01*
X101073595Y-77648646D01*
X101077890Y-77602926D01*
X101092138Y-77556227D01*
X101118384Y-77505560D01*
X101158673Y-77447935D01*
X101215052Y-77380365D01*
X101289565Y-77299860D01*
X101365203Y-77222530D01*
X101539021Y-77055827D01*
X101703643Y-76914990D01*
X101860457Y-76799379D01*
X102010854Y-76708356D01*
X102156225Y-76641282D01*
X102297958Y-76597520D01*
X102437444Y-76576432D01*
X102576073Y-76577378D01*
G37*
G36*
X103015946Y-68749392D02*
G01*
X103123448Y-68751555D01*
X103223450Y-68754935D01*
X103309650Y-68759302D01*
X103375746Y-68764429D01*
X103392416Y-68766292D01*
X103702833Y-68817001D01*
X104004163Y-68889767D01*
X104292814Y-68983479D01*
X104565195Y-69097030D01*
X104726629Y-69178150D01*
X104988661Y-69335332D01*
X105237900Y-69516746D01*
X105472607Y-69720310D01*
X105691044Y-69943945D01*
X105891473Y-70185570D01*
X106072157Y-70443106D01*
X106231357Y-70714472D01*
X106367336Y-70997588D01*
X106469612Y-71264218D01*
X106524007Y-71457558D01*
X106560037Y-71663356D01*
X106577968Y-71884392D01*
X106578068Y-72123443D01*
X106568467Y-72292809D01*
X106561322Y-72381145D01*
X106553700Y-72464996D01*
X106545082Y-72548360D01*
X106534951Y-72635233D01*
X106522786Y-72729612D01*
X106508069Y-72835493D01*
X106490282Y-72956875D01*
X106468904Y-73097752D01*
X106443418Y-73262124D01*
X106438797Y-73291685D01*
X106405861Y-73505635D01*
X106378267Y-73694051D01*
X106356026Y-73859434D01*
X106339149Y-74004287D01*
X106327646Y-74131112D01*
X106321527Y-74242412D01*
X106320803Y-74340689D01*
X106325483Y-74428444D01*
X106335578Y-74508181D01*
X106351099Y-74582401D01*
X106372055Y-74653607D01*
X106398457Y-74724301D01*
X106430316Y-74796984D01*
X106445130Y-74828301D01*
X106500397Y-74935522D01*
X106561327Y-75037695D01*
X106631088Y-75139038D01*
X106712847Y-75243768D01*
X106809772Y-75356105D01*
X106925029Y-75480268D01*
X106968631Y-75525593D01*
X107037444Y-75598017D01*
X107087670Y-75654497D01*
X107121878Y-75698245D01*
X107142631Y-75732476D01*
X107150931Y-75753907D01*
X107166186Y-75851278D01*
X107154686Y-75939329D01*
X107115992Y-76019783D01*
X107068810Y-76076226D01*
X106991584Y-76135312D01*
X106906347Y-76167841D01*
X106816270Y-76173207D01*
X106724525Y-76150806D01*
X106710112Y-76144698D01*
X106668453Y-76119069D01*
X106611439Y-76072497D01*
X106538362Y-76004367D01*
X106467528Y-75933589D01*
X106280486Y-75731052D01*
X106120349Y-75532704D01*
X105986114Y-75336757D01*
X105876779Y-75141428D01*
X105791342Y-74944930D01*
X105728801Y-74745477D01*
X105688897Y-74546370D01*
X105679300Y-74469247D01*
X105673295Y-74389478D01*
X105671097Y-74304329D01*
X105672923Y-74211065D01*
X105678987Y-74106952D01*
X105689506Y-73989254D01*
X105704694Y-73855237D01*
X105724768Y-73702167D01*
X105749943Y-73527309D01*
X105780435Y-73327928D01*
X105789489Y-73270281D01*
X105826964Y-73028340D01*
X105858790Y-72812081D01*
X105885047Y-72619227D01*
X105905817Y-72447502D01*
X105921178Y-72294630D01*
X105931210Y-72158333D01*
X105935995Y-72036336D01*
X105935612Y-71926361D01*
X105930140Y-71826132D01*
X105919661Y-71733373D01*
X105904254Y-71645808D01*
X105883999Y-71561158D01*
X105858977Y-71477149D01*
X105853183Y-71459552D01*
X105762123Y-71225710D01*
X105646294Y-70991950D01*
X105508991Y-70763530D01*
X105353511Y-70545712D01*
X105183149Y-70343754D01*
X105098875Y-70255808D01*
X104890864Y-70065291D01*
X104671887Y-69899287D01*
X104440386Y-69757047D01*
X104194802Y-69637819D01*
X103933580Y-69540850D01*
X103655161Y-69465391D01*
X103357987Y-69410689D01*
X103342472Y-69408466D01*
X103257634Y-69399770D01*
X103151513Y-69393958D01*
X103031213Y-69390973D01*
X102903838Y-69390757D01*
X102776492Y-69393253D01*
X102656281Y-69398405D01*
X102550307Y-69406156D01*
X102472022Y-69415451D01*
X102208469Y-69467101D01*
X101957426Y-69539904D01*
X101717877Y-69634620D01*
X101488802Y-69752012D01*
X101269182Y-69892839D01*
X101058001Y-70057863D01*
X100854239Y-70247844D01*
X100656878Y-70463543D01*
X100464900Y-70705722D01*
X100277287Y-70975141D01*
X100180128Y-71127853D01*
X100079387Y-71289418D01*
X99989776Y-71429447D01*
X99908686Y-71551422D01*
X99833511Y-71658823D01*
X99761643Y-71755131D01*
X99690476Y-71843828D01*
X99617402Y-71928393D01*
X99539815Y-72012309D01*
X99455107Y-72099056D01*
X99445684Y-72108479D01*
X99357416Y-72192484D01*
X99259435Y-72278739D01*
X99156894Y-72363226D01*
X99054948Y-72441925D01*
X98958750Y-72510819D01*
X98873453Y-72565889D01*
X98822782Y-72594168D01*
X98724323Y-72631160D01*
X98630054Y-72640931D01*
X98541951Y-72623787D01*
X98461991Y-72580031D01*
X98408895Y-72530323D01*
X98362091Y-72460176D01*
X98338726Y-72380620D01*
X98336599Y-72292587D01*
X98345873Y-72230570D01*
X98366217Y-72177130D01*
X98401136Y-72127681D01*
X98454134Y-72077637D01*
X98528716Y-72022410D01*
X98558142Y-72002610D01*
X98783021Y-71837492D01*
X98992351Y-71649724D01*
X99187352Y-71438139D01*
X99308155Y-71285737D01*
X99342593Y-71237371D01*
X99387988Y-71170192D01*
X99440635Y-71089872D01*
X99496831Y-71002082D01*
X99552870Y-70912495D01*
X99568146Y-70887669D01*
X99744572Y-70610849D01*
X99918955Y-70359975D01*
X100093194Y-70132725D01*
X100269187Y-69926780D01*
X100448831Y-69739818D01*
X100634024Y-69569519D01*
X100674045Y-69535448D01*
X100917241Y-69349714D01*
X101176326Y-69187379D01*
X101450110Y-69048971D01*
X101737406Y-68935023D01*
X102037024Y-68846066D01*
X102347777Y-68782631D01*
X102365000Y-68779919D01*
X102440497Y-68769080D01*
X102512183Y-68760977D01*
X102586330Y-68755249D01*
X102669208Y-68751535D01*
X102767089Y-68749473D01*
X102886242Y-68748702D01*
X102907247Y-68748675D01*
X103015946Y-68749392D01*
G37*
G36*
X107020370Y-70773738D02*
G01*
X107106557Y-70799380D01*
X107185529Y-70849886D01*
X107213380Y-70876292D01*
X107247086Y-70923208D01*
X107283884Y-70994661D01*
X107322508Y-71086980D01*
X107361693Y-71196499D01*
X107400173Y-71319548D01*
X107436682Y-71452458D01*
X107469956Y-71591562D01*
X107485645Y-71665553D01*
X107544092Y-72018991D01*
X107579753Y-72388639D01*
X107592653Y-72773557D01*
X107582817Y-73172804D01*
X107550272Y-73585441D01*
X107495042Y-74010527D01*
X107417154Y-74447121D01*
X107409619Y-74484098D01*
X107388115Y-74583515D01*
X107368788Y-74659598D01*
X107349865Y-74717278D01*
X107329569Y-74761485D01*
X107306123Y-74797150D01*
X107289932Y-74816361D01*
X107227926Y-74865172D01*
X107149907Y-74897863D01*
X107064683Y-74912395D01*
X106981063Y-74906732D01*
X106944259Y-74896308D01*
X106867643Y-74853573D01*
X106805201Y-74790263D01*
X106761269Y-74712592D01*
X106740184Y-74626775D01*
X106738965Y-74602068D01*
X106741911Y-74560929D01*
X106750136Y-74500705D01*
X106762311Y-74430077D01*
X106774477Y-74369731D01*
X106846161Y-73987445D01*
X106900280Y-73585875D01*
X106936361Y-73168589D01*
X106939292Y-73120449D01*
X106947992Y-72856120D01*
X106943824Y-72590971D01*
X106927321Y-72329218D01*
X106899014Y-72075076D01*
X106859436Y-71832760D01*
X106809119Y-71606486D01*
X106748594Y-71400469D01*
X106708293Y-71290078D01*
X106671536Y-71180341D01*
X106655900Y-71086998D01*
X106661809Y-71006792D01*
X106689688Y-70936463D01*
X106739962Y-70872754D01*
X106765850Y-70848896D01*
X106845284Y-70798206D01*
X106931702Y-70773250D01*
X107020370Y-70773738D01*
G37*
G36*
X103057079Y-71025570D02*
G01*
X103232414Y-71051543D01*
X103408754Y-71102942D01*
X103575997Y-71176104D01*
X103749274Y-71281371D01*
X103904937Y-71408936D01*
X104042725Y-71558438D01*
X104162374Y-71729514D01*
X104263621Y-71921805D01*
X104346203Y-72134948D01*
X104393857Y-72300719D01*
X104419951Y-72441547D01*
X104433362Y-72598161D01*
X104433994Y-72760737D01*
X104421751Y-72919447D01*
X104401126Y-73044075D01*
X104339120Y-73273343D01*
X104249995Y-73511313D01*
X104133794Y-73757930D01*
X103990560Y-74013135D01*
X103820336Y-74276871D01*
X103623165Y-74549081D01*
X103399091Y-74829708D01*
X103148155Y-75118695D01*
X102870401Y-75415984D01*
X102565872Y-75721518D01*
X102234610Y-76035241D01*
X101993989Y-76253323D01*
X101734821Y-76479924D01*
X101458683Y-76713286D01*
X101173771Y-76946716D01*
X100888281Y-77173519D01*
X100610412Y-77386999D01*
X100554944Y-77428651D01*
X100454836Y-77502735D01*
X100373426Y-77560606D01*
X100307148Y-77603906D01*
X100252433Y-77634276D01*
X100205716Y-77653358D01*
X100163430Y-77662793D01*
X100122007Y-77664224D01*
X100077882Y-77659290D01*
X100060449Y-77656235D01*
X99974975Y-77626314D01*
X99902845Y-77572142D01*
X99847130Y-77496095D01*
X99842837Y-77487887D01*
X99810683Y-77400676D01*
X99805814Y-77316300D01*
X99828144Y-77229522D01*
X99838094Y-77206563D01*
X99852228Y-77179189D01*
X99869502Y-77153921D01*
X99893460Y-77127465D01*
X99927646Y-77096527D01*
X99975604Y-77057813D01*
X100040879Y-77008031D01*
X100096081Y-76966833D01*
X100432135Y-76711889D01*
X100762281Y-76450993D01*
X101084288Y-76186176D01*
X101395921Y-75919468D01*
X101694946Y-75652899D01*
X101979129Y-75388499D01*
X102246237Y-75128298D01*
X102494035Y-74874327D01*
X102720291Y-74628615D01*
X102906782Y-74412460D01*
X103097903Y-74173474D01*
X103266904Y-73942374D01*
X103413328Y-73719988D01*
X103536721Y-73507145D01*
X103636625Y-73304672D01*
X103712587Y-73113399D01*
X103764150Y-72934151D01*
X103785629Y-72815175D01*
X103794766Y-72710454D01*
X103792286Y-72611951D01*
X103777347Y-72508713D01*
X103754604Y-72410502D01*
X103699158Y-72241411D01*
X103626625Y-72091702D01*
X103538287Y-71962531D01*
X103435427Y-71855058D01*
X103319327Y-71770441D01*
X103191270Y-71709838D01*
X103052538Y-71674406D01*
X102929060Y-71664944D01*
X102771385Y-71678875D01*
X102620136Y-71720145D01*
X102476885Y-71787968D01*
X102343206Y-71881558D01*
X102220673Y-72000132D01*
X102193048Y-72032281D01*
X102154332Y-72083800D01*
X102112433Y-72149572D01*
X102065336Y-72233086D01*
X102011027Y-72337826D01*
X101977795Y-72404841D01*
X101837043Y-72682680D01*
X101698989Y-72935456D01*
X101561743Y-73166276D01*
X101423415Y-73378247D01*
X101282114Y-73574473D01*
X101208022Y-73669831D01*
X101142470Y-73747842D01*
X101059688Y-73839791D01*
X100964198Y-73941139D01*
X100860522Y-74047348D01*
X100753181Y-74153879D01*
X100646697Y-74256194D01*
X100545592Y-74349754D01*
X100454386Y-74430021D01*
X100431461Y-74449311D01*
X100366512Y-74502102D01*
X100285106Y-74566325D01*
X100189717Y-74640163D01*
X100082823Y-74721799D01*
X99966898Y-74809414D01*
X99844420Y-74901193D01*
X99717865Y-74995317D01*
X99589707Y-75089969D01*
X99462425Y-75183331D01*
X99338493Y-75273586D01*
X99220388Y-75358917D01*
X99110585Y-75437507D01*
X99011562Y-75507537D01*
X98925793Y-75567191D01*
X98855756Y-75614651D01*
X98803926Y-75648099D01*
X98776936Y-75663701D01*
X98705772Y-75685653D01*
X98623673Y-75687970D01*
X98540054Y-75671029D01*
X98494333Y-75652410D01*
X98420789Y-75601325D01*
X98367419Y-75534617D01*
X98334702Y-75457315D01*
X98323117Y-75374449D01*
X98333143Y-75291048D01*
X98365257Y-75212144D01*
X98419940Y-75142764D01*
X98443870Y-75122151D01*
X98469035Y-75103310D01*
X98514055Y-75070399D01*
X98575522Y-75025878D01*
X98650028Y-74972207D01*
X98734162Y-74911845D01*
X98824516Y-74847252D01*
X98854663Y-74825751D01*
X99067959Y-74673066D01*
X99259503Y-74534484D01*
X99431350Y-74408370D01*
X99585559Y-74293091D01*
X99724185Y-74187015D01*
X99849285Y-74088508D01*
X99962916Y-73995938D01*
X100067135Y-73907669D01*
X100164000Y-73822071D01*
X100255566Y-73737509D01*
X100343890Y-73652351D01*
X100389345Y-73607165D01*
X100518494Y-73473962D01*
X100635415Y-73345126D01*
X100742764Y-73216800D01*
X100843195Y-73085127D01*
X100939363Y-72946250D01*
X101033925Y-72796310D01*
X101129535Y-72631452D01*
X101228848Y-72447817D01*
X101334520Y-72241548D01*
X101348137Y-72214326D01*
X101419957Y-72072368D01*
X101482853Y-71952937D01*
X101539198Y-71852351D01*
X101591366Y-71766928D01*
X101641731Y-71692986D01*
X101692666Y-71626845D01*
X101746545Y-71564822D01*
X101805741Y-71503236D01*
X101808140Y-71500843D01*
X101974514Y-71353022D01*
X102149736Y-71232335D01*
X102333813Y-71138778D01*
X102526754Y-71072347D01*
X102728567Y-71033039D01*
X102939262Y-71020851D01*
X103057079Y-71025570D01*
G37*
%TO.C,JP3*%
X133900000Y-54000000D02*
X133900000Y-56000000D01*
X131100000Y-56000000D02*
X131100000Y-54000000D01*
X133900000Y-56000000D02*
X131100000Y-56000000D01*
X131100000Y-54000000D02*
X133900000Y-54000000D01*
%TO.C,JP4*%
X119100000Y-60500000D02*
X119100000Y-58500000D01*
X121900000Y-58500000D02*
X121900000Y-60500000D01*
X121900000Y-60500000D02*
X119100000Y-60500000D01*
X119100000Y-58500000D02*
X121900000Y-58500000D01*
%TO.C,H4*%
G36*
X133625246Y-66509621D02*
G01*
X133777769Y-66514491D01*
X133915931Y-66521871D01*
X134033618Y-66531762D01*
X134042247Y-66532693D01*
X134454781Y-66590713D01*
X134852045Y-66672531D01*
X135235219Y-66778626D01*
X135605483Y-66909474D01*
X135964018Y-67065551D01*
X136312003Y-67247336D01*
X136650617Y-67455305D01*
X136981043Y-67689936D01*
X137065363Y-67755056D01*
X137144812Y-67824414D01*
X137199935Y-67889857D01*
X137233756Y-67955621D01*
X137247308Y-68009945D01*
X137247956Y-68103365D01*
X137223137Y-68189520D01*
X137175751Y-68264292D01*
X137108695Y-68323560D01*
X137024870Y-68363206D01*
X136992861Y-68371527D01*
X136938581Y-68379585D01*
X136888680Y-68378129D01*
X136838338Y-68365262D01*
X136782737Y-68339085D01*
X136717059Y-68297698D01*
X136636483Y-68239203D01*
X136614373Y-68222392D01*
X136308411Y-68003095D01*
X135998842Y-67811060D01*
X135683127Y-67645031D01*
X135358726Y-67503749D01*
X135023102Y-67385958D01*
X134791404Y-67319741D01*
X134438986Y-67240738D01*
X134079215Y-67185282D01*
X133715404Y-67153315D01*
X133350867Y-67144781D01*
X132988917Y-67159623D01*
X132632867Y-67197783D01*
X132286032Y-67259205D01*
X131951723Y-67343833D01*
X131866124Y-67369991D01*
X131571890Y-67474742D01*
X131286449Y-67599004D01*
X131012727Y-67740942D01*
X130753653Y-67898721D01*
X130512152Y-68070505D01*
X130291152Y-68254459D01*
X130093580Y-68448747D01*
X130026317Y-68523677D01*
X129968751Y-68587146D01*
X129916209Y-68639404D01*
X129873155Y-68676208D01*
X129850401Y-68690822D01*
X129792631Y-68709582D01*
X129722967Y-68719514D01*
X129653979Y-68719719D01*
X129598239Y-68709297D01*
X129597247Y-68708938D01*
X129516296Y-68664947D01*
X129452677Y-68601522D01*
X129409007Y-68523679D01*
X129387903Y-68436437D01*
X129391982Y-68344815D01*
X129396610Y-68324215D01*
X129414761Y-68275022D01*
X129446134Y-68219781D01*
X129492706Y-68155920D01*
X129556455Y-68080865D01*
X129639356Y-67992043D01*
X129697135Y-67933062D01*
X129945179Y-67701972D01*
X130211753Y-67489953D01*
X130498591Y-67295766D01*
X130807426Y-67118173D01*
X130917191Y-67061631D01*
X131210709Y-66925512D01*
X131508600Y-66809643D01*
X131815095Y-66712807D01*
X132134424Y-66633782D01*
X132470821Y-66571349D01*
X132750843Y-66533024D01*
X132861162Y-66522867D01*
X132993798Y-66515210D01*
X133142637Y-66510056D01*
X133301567Y-66507405D01*
X133464474Y-66507260D01*
X133625246Y-66509621D01*
G37*
G36*
X133890476Y-67631097D02*
G01*
X134191474Y-67665738D01*
X134341910Y-67691173D01*
X134687515Y-67770950D01*
X135028052Y-67878490D01*
X135363699Y-68013879D01*
X135694638Y-68177203D01*
X136021047Y-68368548D01*
X136343105Y-68588000D01*
X136557495Y-68751561D01*
X136656752Y-68834195D01*
X136764483Y-68930265D01*
X136877660Y-69036570D01*
X136993257Y-69149909D01*
X137108247Y-69267082D01*
X137219605Y-69384888D01*
X137324303Y-69500127D01*
X137419315Y-69609599D01*
X137501614Y-69710102D01*
X137568173Y-69798435D01*
X137615174Y-69870044D01*
X137653853Y-69961098D01*
X137664765Y-70052397D01*
X137648289Y-70140862D01*
X137604802Y-70223414D01*
X137566208Y-70268522D01*
X137490148Y-70326935D01*
X137406663Y-70357950D01*
X137316745Y-70361282D01*
X137271971Y-70353061D01*
X137218312Y-70335227D01*
X137170232Y-70308176D01*
X137122654Y-70267742D01*
X137070498Y-70209758D01*
X137022285Y-70148227D01*
X136816887Y-69895138D01*
X136591135Y-69652368D01*
X136348289Y-69422457D01*
X136091611Y-69207943D01*
X135824361Y-69011368D01*
X135549802Y-68835270D01*
X135271194Y-68682190D01*
X134991799Y-68554666D01*
X134958955Y-68541432D01*
X134688223Y-68443219D01*
X134424780Y-68367501D01*
X134160974Y-68312698D01*
X133889154Y-68277231D01*
X133601667Y-68259517D01*
X133592753Y-68259244D01*
X133234697Y-68261116D01*
X132888315Y-68288276D01*
X132554057Y-68340585D01*
X132232373Y-68417904D01*
X131923712Y-68520094D01*
X131628526Y-68647017D01*
X131347263Y-68798533D01*
X131080373Y-68974502D01*
X130945730Y-69076973D01*
X130801049Y-69201239D01*
X130648044Y-69348977D01*
X130489148Y-69517224D01*
X130326792Y-69703017D01*
X130163406Y-69903391D01*
X130001422Y-70115385D01*
X129843271Y-70336033D01*
X129691385Y-70562374D01*
X129573539Y-70749613D01*
X129518234Y-70825959D01*
X129458313Y-70877381D01*
X129387983Y-70907473D01*
X129301453Y-70919825D01*
X129298871Y-70919945D01*
X129236279Y-70920500D01*
X129190135Y-70914272D01*
X129148770Y-70899347D01*
X129136390Y-70893317D01*
X129064177Y-70841629D01*
X129009594Y-70771993D01*
X128975106Y-70690444D01*
X128963177Y-70603019D01*
X128976274Y-70515754D01*
X128978919Y-70507663D01*
X129001874Y-70455555D01*
X129040915Y-70384092D01*
X129094107Y-70296043D01*
X129159511Y-70194181D01*
X129235191Y-70081278D01*
X129319210Y-69960104D01*
X129409631Y-69833433D01*
X129504518Y-69704034D01*
X129601933Y-69574680D01*
X129699939Y-69448143D01*
X129796599Y-69327193D01*
X129845511Y-69267640D01*
X130091407Y-68991398D01*
X130349304Y-68741004D01*
X130619591Y-68516234D01*
X130902655Y-68316867D01*
X131198882Y-68142682D01*
X131508661Y-67993456D01*
X131832379Y-67868968D01*
X132170423Y-67768995D01*
X132523180Y-67693315D01*
X132621972Y-67676865D01*
X132936533Y-67637671D01*
X133256884Y-67617013D01*
X133576905Y-67614838D01*
X133890476Y-67631097D01*
G37*
G36*
X133557079Y-71025570D02*
G01*
X133732414Y-71051543D01*
X133908754Y-71102942D01*
X134075997Y-71176104D01*
X134249274Y-71281371D01*
X134404937Y-71408936D01*
X134542725Y-71558438D01*
X134662374Y-71729514D01*
X134763621Y-71921805D01*
X134846203Y-72134948D01*
X134893857Y-72300719D01*
X134919951Y-72441547D01*
X134933362Y-72598161D01*
X134933994Y-72760737D01*
X134921751Y-72919447D01*
X134901126Y-73044075D01*
X134839120Y-73273343D01*
X134749995Y-73511313D01*
X134633794Y-73757930D01*
X134490560Y-74013135D01*
X134320336Y-74276871D01*
X134123165Y-74549081D01*
X133899091Y-74829708D01*
X133648155Y-75118695D01*
X133370401Y-75415984D01*
X133065872Y-75721518D01*
X132734610Y-76035241D01*
X132493989Y-76253323D01*
X132234821Y-76479924D01*
X131958683Y-76713286D01*
X131673771Y-76946716D01*
X131388281Y-77173519D01*
X131110412Y-77386999D01*
X131054944Y-77428651D01*
X130954836Y-77502735D01*
X130873426Y-77560606D01*
X130807148Y-77603906D01*
X130752433Y-77634276D01*
X130705716Y-77653358D01*
X130663430Y-77662793D01*
X130622007Y-77664224D01*
X130577882Y-77659290D01*
X130560449Y-77656235D01*
X130474975Y-77626314D01*
X130402845Y-77572142D01*
X130347130Y-77496095D01*
X130342837Y-77487887D01*
X130310683Y-77400676D01*
X130305814Y-77316300D01*
X130328144Y-77229522D01*
X130338094Y-77206563D01*
X130352228Y-77179189D01*
X130369502Y-77153921D01*
X130393460Y-77127465D01*
X130427646Y-77096527D01*
X130475604Y-77057813D01*
X130540879Y-77008031D01*
X130596081Y-76966833D01*
X130932135Y-76711889D01*
X131262281Y-76450993D01*
X131584288Y-76186176D01*
X131895921Y-75919468D01*
X132194946Y-75652899D01*
X132479129Y-75388499D01*
X132746237Y-75128298D01*
X132994035Y-74874327D01*
X133220291Y-74628615D01*
X133406782Y-74412460D01*
X133597903Y-74173474D01*
X133766904Y-73942374D01*
X133913328Y-73719988D01*
X134036721Y-73507145D01*
X134136625Y-73304672D01*
X134212587Y-73113399D01*
X134264150Y-72934151D01*
X134285629Y-72815175D01*
X134294766Y-72710454D01*
X134292286Y-72611951D01*
X134277347Y-72508713D01*
X134254604Y-72410502D01*
X134199158Y-72241411D01*
X134126625Y-72091702D01*
X134038287Y-71962531D01*
X133935427Y-71855058D01*
X133819327Y-71770441D01*
X133691270Y-71709838D01*
X133552538Y-71674406D01*
X133429060Y-71664944D01*
X133271385Y-71678875D01*
X133120136Y-71720145D01*
X132976885Y-71787968D01*
X132843206Y-71881558D01*
X132720673Y-72000132D01*
X132693048Y-72032281D01*
X132654332Y-72083800D01*
X132612433Y-72149572D01*
X132565336Y-72233086D01*
X132511027Y-72337826D01*
X132477795Y-72404841D01*
X132337043Y-72682680D01*
X132198989Y-72935456D01*
X132061743Y-73166276D01*
X131923415Y-73378247D01*
X131782114Y-73574473D01*
X131708022Y-73669831D01*
X131642470Y-73747842D01*
X131559688Y-73839791D01*
X131464198Y-73941139D01*
X131360522Y-74047348D01*
X131253181Y-74153879D01*
X131146697Y-74256194D01*
X131045592Y-74349754D01*
X130954386Y-74430021D01*
X130931461Y-74449311D01*
X130866512Y-74502102D01*
X130785106Y-74566325D01*
X130689717Y-74640163D01*
X130582823Y-74721799D01*
X130466898Y-74809414D01*
X130344420Y-74901193D01*
X130217865Y-74995317D01*
X130089707Y-75089969D01*
X129962425Y-75183331D01*
X129838493Y-75273586D01*
X129720388Y-75358917D01*
X129610585Y-75437507D01*
X129511562Y-75507537D01*
X129425793Y-75567191D01*
X129355756Y-75614651D01*
X129303926Y-75648099D01*
X129276936Y-75663701D01*
X129205772Y-75685653D01*
X129123673Y-75687970D01*
X129040054Y-75671029D01*
X128994333Y-75652410D01*
X128920789Y-75601325D01*
X128867419Y-75534617D01*
X128834702Y-75457315D01*
X128823117Y-75374449D01*
X128833143Y-75291048D01*
X128865257Y-75212144D01*
X128919940Y-75142764D01*
X128943870Y-75122151D01*
X128969035Y-75103310D01*
X129014055Y-75070399D01*
X129075522Y-75025878D01*
X129150028Y-74972207D01*
X129234162Y-74911845D01*
X129324516Y-74847252D01*
X129354663Y-74825751D01*
X129567959Y-74673066D01*
X129759503Y-74534484D01*
X129931350Y-74408370D01*
X130085559Y-74293091D01*
X130224185Y-74187015D01*
X130349285Y-74088508D01*
X130462916Y-73995938D01*
X130567135Y-73907669D01*
X130664000Y-73822071D01*
X130755566Y-73737509D01*
X130843890Y-73652351D01*
X130889345Y-73607165D01*
X131018494Y-73473962D01*
X131135415Y-73345126D01*
X131242764Y-73216800D01*
X131343195Y-73085127D01*
X131439363Y-72946250D01*
X131533925Y-72796310D01*
X131629535Y-72631452D01*
X131728848Y-72447817D01*
X131834520Y-72241548D01*
X131848137Y-72214326D01*
X131919957Y-72072368D01*
X131982853Y-71952937D01*
X132039198Y-71852351D01*
X132091366Y-71766928D01*
X132141731Y-71692986D01*
X132192666Y-71626845D01*
X132246545Y-71564822D01*
X132305741Y-71503236D01*
X132308140Y-71500843D01*
X132474514Y-71353022D01*
X132649736Y-71232335D01*
X132833813Y-71138778D01*
X133026754Y-71072347D01*
X133228567Y-71033039D01*
X133439262Y-71020851D01*
X133557079Y-71025570D01*
G37*
G36*
X133076073Y-76577378D02*
G01*
X133215236Y-76599721D01*
X133219357Y-76600697D01*
X133386188Y-76654523D01*
X133540172Y-76733297D01*
X133681485Y-76837192D01*
X133810300Y-76966382D01*
X133926794Y-77121041D01*
X134031141Y-77301344D01*
X134119058Y-77496239D01*
X134167768Y-77624899D01*
X134201964Y-77732529D01*
X134221996Y-77822462D01*
X134228213Y-77898032D01*
X134220967Y-77962571D01*
X134200606Y-78019414D01*
X134177983Y-78057501D01*
X134117603Y-78121764D01*
X134041768Y-78167577D01*
X133957196Y-78192717D01*
X133870605Y-78194964D01*
X133807623Y-78180009D01*
X133740656Y-78148916D01*
X133687786Y-78108299D01*
X133644988Y-78053197D01*
X133608237Y-77978648D01*
X133579565Y-77898821D01*
X133518464Y-77731761D01*
X133450290Y-77586285D01*
X133375971Y-77463422D01*
X133296435Y-77364206D01*
X133212609Y-77289667D01*
X133125420Y-77240836D01*
X133035797Y-77218745D01*
X132969091Y-77220134D01*
X132885406Y-77242689D01*
X132789382Y-77289647D01*
X132680794Y-77361170D01*
X132559419Y-77457419D01*
X132425031Y-77578555D01*
X132301348Y-77700248D01*
X132233826Y-77767838D01*
X132169928Y-77829781D01*
X132113356Y-77882647D01*
X132067809Y-77923006D01*
X132036986Y-77947427D01*
X132030225Y-77951646D01*
X131965638Y-77972754D01*
X131888811Y-77978445D01*
X131811393Y-77968914D01*
X131749779Y-77946932D01*
X131673404Y-77891545D01*
X131616939Y-77817823D01*
X131582936Y-77730082D01*
X131573595Y-77648646D01*
X131577890Y-77602926D01*
X131592138Y-77556227D01*
X131618384Y-77505560D01*
X131658673Y-77447935D01*
X131715052Y-77380365D01*
X131789565Y-77299860D01*
X131865203Y-77222530D01*
X132039021Y-77055827D01*
X132203643Y-76914990D01*
X132360457Y-76799379D01*
X132510854Y-76708356D01*
X132656225Y-76641282D01*
X132797958Y-76597520D01*
X132937444Y-76576432D01*
X133076073Y-76577378D01*
G37*
G36*
X133659159Y-69872746D02*
G01*
X133917152Y-69910846D01*
X134172964Y-69976669D01*
X134213483Y-69989771D01*
X134452036Y-70082915D01*
X134681692Y-70199762D01*
X134899863Y-70338079D01*
X135103964Y-70495631D01*
X135291409Y-70670186D01*
X135459612Y-70859510D01*
X135605987Y-71061371D01*
X135727947Y-71273533D01*
X135748389Y-71315337D01*
X135828427Y-71504113D01*
X135889990Y-71696534D01*
X135933791Y-71896751D01*
X135960544Y-72108912D01*
X135970960Y-72337167D01*
X135965951Y-72581616D01*
X135960685Y-72669319D01*
X135953035Y-72758957D01*
X135942477Y-72854111D01*
X135928485Y-72958362D01*
X135910533Y-73075291D01*
X135888097Y-73208478D01*
X135860651Y-73361505D01*
X135827670Y-73537951D01*
X135818867Y-73584213D01*
X135789178Y-73740191D01*
X135764464Y-73871703D01*
X135744271Y-73982303D01*
X135728141Y-74075543D01*
X135715619Y-74154976D01*
X135706249Y-74224154D01*
X135699576Y-74286631D01*
X135695142Y-74345958D01*
X135692493Y-74405688D01*
X135691173Y-74469374D01*
X135690725Y-74540569D01*
X135690686Y-74583090D01*
X135691032Y-74685751D01*
X135692457Y-74766527D01*
X135695516Y-74832067D01*
X135700763Y-74889020D01*
X135708752Y-74944036D01*
X135720040Y-75003763D01*
X135729554Y-75048939D01*
X135785125Y-75272270D01*
X135850914Y-75474999D01*
X135926111Y-75655003D01*
X136009910Y-75810159D01*
X136032586Y-75845535D01*
X136125645Y-75971884D01*
X136226178Y-76079965D01*
X136338742Y-76173262D01*
X136467894Y-76255259D01*
X136618190Y-76329440D01*
X136721053Y-76371895D01*
X136807129Y-76406969D01*
X136870915Y-76437585D01*
X136917551Y-76467173D01*
X136952175Y-76499160D01*
X136979927Y-76536975D01*
X136987507Y-76549668D01*
X137024009Y-76638998D01*
X137033109Y-76729597D01*
X137015128Y-76817692D01*
X136970390Y-76899505D01*
X136956138Y-76917283D01*
X136887860Y-76979388D01*
X136809902Y-77016505D01*
X136720821Y-77028860D01*
X136619176Y-77016679D01*
X136518675Y-76986028D01*
X136290083Y-76888851D01*
X136085291Y-76777514D01*
X135902444Y-76650357D01*
X135739685Y-76505721D01*
X135595159Y-76341944D01*
X135467010Y-76157368D01*
X135353382Y-75950333D01*
X135347733Y-75938708D01*
X135245107Y-75698454D01*
X135161647Y-75444475D01*
X135098466Y-75182358D01*
X135056677Y-74917693D01*
X135037392Y-74656068D01*
X135041725Y-74403075D01*
X135041779Y-74402282D01*
X135049256Y-74306011D01*
X135059019Y-74209091D01*
X135071701Y-74107344D01*
X135087935Y-73996595D01*
X135108354Y-73872665D01*
X135133591Y-73731379D01*
X135164279Y-73568559D01*
X135181978Y-73477191D01*
X135213855Y-73312685D01*
X135240408Y-73172310D01*
X135262115Y-73052251D01*
X135279454Y-72948696D01*
X135292902Y-72857830D01*
X135302936Y-72775841D01*
X135310034Y-72698916D01*
X135314672Y-72623240D01*
X135317330Y-72545001D01*
X135318483Y-72460385D01*
X135318644Y-72385562D01*
X135317316Y-72250745D01*
X135313046Y-72138405D01*
X135304919Y-72042548D01*
X135292020Y-71957185D01*
X135273433Y-71876322D01*
X135248241Y-71793968D01*
X135215530Y-71704132D01*
X135213849Y-71699770D01*
X135129363Y-71519162D01*
X135019736Y-71346192D01*
X134887859Y-71183149D01*
X134736623Y-71032320D01*
X134568921Y-70895994D01*
X134387645Y-70776461D01*
X134195686Y-70676007D01*
X133995936Y-70596923D01*
X133791287Y-70541495D01*
X133737148Y-70531157D01*
X133621712Y-70516726D01*
X133490651Y-70509665D01*
X133353998Y-70509875D01*
X133221787Y-70517255D01*
X133104052Y-70531708D01*
X133071463Y-70537731D01*
X132854252Y-70593983D01*
X132649865Y-70672219D01*
X132455620Y-70773925D01*
X132268833Y-70900587D01*
X132086821Y-71053691D01*
X132014723Y-71122697D01*
X131910785Y-71229930D01*
X131816423Y-71337247D01*
X131728887Y-71448743D01*
X131645426Y-71568513D01*
X131563288Y-71700652D01*
X131479724Y-71849253D01*
X131391982Y-72018412D01*
X131334067Y-72135843D01*
X131235654Y-72329056D01*
X131136883Y-72501909D01*
X131033096Y-72660954D01*
X130919631Y-72812746D01*
X130791831Y-72963838D01*
X130645034Y-73120782D01*
X130604358Y-73162168D01*
X130439341Y-73321130D01*
X130254064Y-73486324D01*
X130054545Y-73652843D01*
X129846801Y-73815781D01*
X129636849Y-73970230D01*
X129482629Y-74076826D01*
X129388261Y-74138307D01*
X129311385Y-74183296D01*
X129247335Y-74213291D01*
X129191444Y-74229785D01*
X129139047Y-74234276D01*
X129085478Y-74228260D01*
X129042432Y-74217948D01*
X128975908Y-74185994D01*
X128915378Y-74132415D01*
X128865823Y-74064106D01*
X128832222Y-73987963D01*
X128819556Y-73910882D01*
X128819550Y-73909322D01*
X128825180Y-73848175D01*
X128843845Y-73792383D01*
X128878214Y-73738564D01*
X128930953Y-73683332D01*
X129004729Y-73623304D01*
X129094817Y-73560033D01*
X129318192Y-73404738D01*
X129533844Y-73243733D01*
X129738143Y-73080062D01*
X129927455Y-72916764D01*
X130098148Y-72756882D01*
X130246592Y-72603456D01*
X130275521Y-72571302D01*
X130356688Y-72478102D01*
X130426362Y-72393641D01*
X130487778Y-72312954D01*
X130544174Y-72231078D01*
X130598784Y-72143051D01*
X130654844Y-72043910D01*
X130715590Y-71928690D01*
X130784257Y-71792429D01*
X130787331Y-71786236D01*
X130888220Y-71588725D01*
X130984114Y-71414089D01*
X131078051Y-71257815D01*
X131173069Y-71115394D01*
X131272206Y-70982313D01*
X131378500Y-70854062D01*
X131494987Y-70726129D01*
X131516052Y-70704056D01*
X131718133Y-70512649D01*
X131933141Y-70344965D01*
X132159398Y-70201447D01*
X132395226Y-70082541D01*
X132638945Y-69988692D01*
X132888877Y-69920343D01*
X133143343Y-69877939D01*
X133400663Y-69861925D01*
X133659159Y-69872746D01*
G37*
G36*
X137520370Y-70773738D02*
G01*
X137606557Y-70799380D01*
X137685529Y-70849886D01*
X137713380Y-70876292D01*
X137747086Y-70923208D01*
X137783884Y-70994661D01*
X137822508Y-71086980D01*
X137861693Y-71196499D01*
X137900173Y-71319548D01*
X137936682Y-71452458D01*
X137969956Y-71591562D01*
X137985645Y-71665553D01*
X138044092Y-72018991D01*
X138079753Y-72388639D01*
X138092653Y-72773557D01*
X138082817Y-73172804D01*
X138050272Y-73585441D01*
X137995042Y-74010527D01*
X137917154Y-74447121D01*
X137909619Y-74484098D01*
X137888115Y-74583515D01*
X137868788Y-74659598D01*
X137849865Y-74717278D01*
X137829569Y-74761485D01*
X137806123Y-74797150D01*
X137789932Y-74816361D01*
X137727926Y-74865172D01*
X137649907Y-74897863D01*
X137564683Y-74912395D01*
X137481063Y-74906732D01*
X137444259Y-74896308D01*
X137367643Y-74853573D01*
X137305201Y-74790263D01*
X137261269Y-74712592D01*
X137240184Y-74626775D01*
X137238965Y-74602068D01*
X137241911Y-74560929D01*
X137250136Y-74500705D01*
X137262311Y-74430077D01*
X137274477Y-74369731D01*
X137346161Y-73987445D01*
X137400280Y-73585875D01*
X137436361Y-73168589D01*
X137439292Y-73120449D01*
X137447992Y-72856120D01*
X137443824Y-72590971D01*
X137427321Y-72329218D01*
X137399014Y-72075076D01*
X137359436Y-71832760D01*
X137309119Y-71606486D01*
X137248594Y-71400469D01*
X137208293Y-71290078D01*
X137171536Y-71180341D01*
X137155900Y-71086998D01*
X137161809Y-71006792D01*
X137189688Y-70936463D01*
X137239962Y-70872754D01*
X137265850Y-70848896D01*
X137345284Y-70798206D01*
X137431702Y-70773250D01*
X137520370Y-70773738D01*
G37*
G36*
X133515946Y-68749392D02*
G01*
X133623448Y-68751555D01*
X133723450Y-68754935D01*
X133809650Y-68759302D01*
X133875746Y-68764429D01*
X133892416Y-68766292D01*
X134202833Y-68817001D01*
X134504163Y-68889767D01*
X134792814Y-68983479D01*
X135065195Y-69097030D01*
X135226629Y-69178150D01*
X135488661Y-69335332D01*
X135737900Y-69516746D01*
X135972607Y-69720310D01*
X136191044Y-69943945D01*
X136391473Y-70185570D01*
X136572157Y-70443106D01*
X136731357Y-70714472D01*
X136867336Y-70997588D01*
X136969612Y-71264218D01*
X137024007Y-71457558D01*
X137060037Y-71663356D01*
X137077968Y-71884392D01*
X137078068Y-72123443D01*
X137068467Y-72292809D01*
X137061322Y-72381145D01*
X137053700Y-72464996D01*
X137045082Y-72548360D01*
X137034951Y-72635233D01*
X137022786Y-72729612D01*
X137008069Y-72835493D01*
X136990282Y-72956875D01*
X136968904Y-73097752D01*
X136943418Y-73262124D01*
X136938797Y-73291685D01*
X136905861Y-73505635D01*
X136878267Y-73694051D01*
X136856026Y-73859434D01*
X136839149Y-74004287D01*
X136827646Y-74131112D01*
X136821527Y-74242412D01*
X136820803Y-74340689D01*
X136825483Y-74428444D01*
X136835578Y-74508181D01*
X136851099Y-74582401D01*
X136872055Y-74653607D01*
X136898457Y-74724301D01*
X136930316Y-74796984D01*
X136945130Y-74828301D01*
X137000397Y-74935522D01*
X137061327Y-75037695D01*
X137131088Y-75139038D01*
X137212847Y-75243768D01*
X137309772Y-75356105D01*
X137425029Y-75480268D01*
X137468631Y-75525593D01*
X137537444Y-75598017D01*
X137587670Y-75654497D01*
X137621878Y-75698245D01*
X137642631Y-75732476D01*
X137650931Y-75753907D01*
X137666186Y-75851278D01*
X137654686Y-75939329D01*
X137615992Y-76019783D01*
X137568810Y-76076226D01*
X137491584Y-76135312D01*
X137406347Y-76167841D01*
X137316270Y-76173207D01*
X137224525Y-76150806D01*
X137210112Y-76144698D01*
X137168453Y-76119069D01*
X137111439Y-76072497D01*
X137038362Y-76004367D01*
X136967528Y-75933589D01*
X136780486Y-75731052D01*
X136620349Y-75532704D01*
X136486114Y-75336757D01*
X136376779Y-75141428D01*
X136291342Y-74944930D01*
X136228801Y-74745477D01*
X136188897Y-74546370D01*
X136179300Y-74469247D01*
X136173295Y-74389478D01*
X136171097Y-74304329D01*
X136172923Y-74211065D01*
X136178987Y-74106952D01*
X136189506Y-73989254D01*
X136204694Y-73855237D01*
X136224768Y-73702167D01*
X136249943Y-73527309D01*
X136280435Y-73327928D01*
X136289489Y-73270281D01*
X136326964Y-73028340D01*
X136358790Y-72812081D01*
X136385047Y-72619227D01*
X136405817Y-72447502D01*
X136421178Y-72294630D01*
X136431210Y-72158333D01*
X136435995Y-72036336D01*
X136435612Y-71926361D01*
X136430140Y-71826132D01*
X136419661Y-71733373D01*
X136404254Y-71645808D01*
X136383999Y-71561158D01*
X136358977Y-71477149D01*
X136353183Y-71459552D01*
X136262123Y-71225710D01*
X136146294Y-70991950D01*
X136008991Y-70763530D01*
X135853511Y-70545712D01*
X135683149Y-70343754D01*
X135598875Y-70255808D01*
X135390864Y-70065291D01*
X135171887Y-69899287D01*
X134940386Y-69757047D01*
X134694802Y-69637819D01*
X134433580Y-69540850D01*
X134155161Y-69465391D01*
X133857987Y-69410689D01*
X133842472Y-69408466D01*
X133757634Y-69399770D01*
X133651513Y-69393958D01*
X133531213Y-69390973D01*
X133403838Y-69390757D01*
X133276492Y-69393253D01*
X133156281Y-69398405D01*
X133050307Y-69406156D01*
X132972022Y-69415451D01*
X132708469Y-69467101D01*
X132457426Y-69539904D01*
X132217877Y-69634620D01*
X131988802Y-69752012D01*
X131769182Y-69892839D01*
X131558001Y-70057863D01*
X131354239Y-70247844D01*
X131156878Y-70463543D01*
X130964900Y-70705722D01*
X130777287Y-70975141D01*
X130680128Y-71127853D01*
X130579387Y-71289418D01*
X130489776Y-71429447D01*
X130408686Y-71551422D01*
X130333511Y-71658823D01*
X130261643Y-71755131D01*
X130190476Y-71843828D01*
X130117402Y-71928393D01*
X130039815Y-72012309D01*
X129955107Y-72099056D01*
X129945684Y-72108479D01*
X129857416Y-72192484D01*
X129759435Y-72278739D01*
X129656894Y-72363226D01*
X129554948Y-72441925D01*
X129458750Y-72510819D01*
X129373453Y-72565889D01*
X129322782Y-72594168D01*
X129224323Y-72631160D01*
X129130054Y-72640931D01*
X129041951Y-72623787D01*
X128961991Y-72580031D01*
X128908895Y-72530323D01*
X128862091Y-72460176D01*
X128838726Y-72380620D01*
X128836599Y-72292587D01*
X128845873Y-72230570D01*
X128866217Y-72177130D01*
X128901136Y-72127681D01*
X128954134Y-72077637D01*
X129028716Y-72022410D01*
X129058142Y-72002610D01*
X129283021Y-71837492D01*
X129492351Y-71649724D01*
X129687352Y-71438139D01*
X129808155Y-71285737D01*
X129842593Y-71237371D01*
X129887988Y-71170192D01*
X129940635Y-71089872D01*
X129996831Y-71002082D01*
X130052870Y-70912495D01*
X130068146Y-70887669D01*
X130244572Y-70610849D01*
X130418955Y-70359975D01*
X130593194Y-70132725D01*
X130769187Y-69926780D01*
X130948831Y-69739818D01*
X131134024Y-69569519D01*
X131174045Y-69535448D01*
X131417241Y-69349714D01*
X131676326Y-69187379D01*
X131950110Y-69048971D01*
X132237406Y-68935023D01*
X132537024Y-68846066D01*
X132847777Y-68782631D01*
X132865000Y-68779919D01*
X132940497Y-68769080D01*
X133012183Y-68760977D01*
X133086330Y-68755249D01*
X133169208Y-68751535D01*
X133267089Y-68749473D01*
X133386242Y-68748702D01*
X133407247Y-68748675D01*
X133515946Y-68749392D01*
G37*
G36*
X134490674Y-74833553D02*
G01*
X134572876Y-74865758D01*
X134635922Y-74913727D01*
X134694247Y-74988824D01*
X134725760Y-75071212D01*
X134730560Y-75161828D01*
X134708745Y-75261611D01*
X134680145Y-75332247D01*
X134640143Y-75423280D01*
X134611833Y-75504536D01*
X134593445Y-75584656D01*
X134583208Y-75672277D01*
X134579348Y-75776039D01*
X134579196Y-75824550D01*
X134580171Y-75910386D01*
X134583035Y-75975927D01*
X134588781Y-76029403D01*
X134598399Y-76079045D01*
X134612882Y-76133083D01*
X134618738Y-76152753D01*
X134666514Y-76290485D01*
X134725239Y-76420878D01*
X134797043Y-76546705D01*
X134884056Y-76670741D01*
X134988411Y-76795760D01*
X135112238Y-76924535D01*
X135257668Y-77059841D01*
X135426404Y-77204098D01*
X135482884Y-77256189D01*
X135528306Y-77308488D01*
X135551264Y-77344077D01*
X135578760Y-77428013D01*
X135580957Y-77515312D01*
X135559546Y-77600066D01*
X135516221Y-77676367D01*
X135452672Y-77738308D01*
X135434966Y-77750155D01*
X135355825Y-77784923D01*
X135269397Y-77799184D01*
X135184933Y-77792179D01*
X135133342Y-77774883D01*
X135079646Y-77743673D01*
X135010913Y-77694358D01*
X134930861Y-77630339D01*
X134843209Y-77555021D01*
X134751678Y-77471808D01*
X134659985Y-77384103D01*
X134571850Y-77295309D01*
X134490992Y-77208830D01*
X134421129Y-77128070D01*
X134405537Y-77108820D01*
X134267481Y-76915781D01*
X134150022Y-76710127D01*
X134055174Y-76496273D01*
X133984952Y-76278634D01*
X133948092Y-76106189D01*
X133937257Y-76011443D01*
X133931863Y-75899232D01*
X133931718Y-75778560D01*
X133936631Y-75658428D01*
X133946411Y-75547841D01*
X133960864Y-75455802D01*
X133962058Y-75450235D01*
X133999054Y-75305242D01*
X134042685Y-75175464D01*
X134091571Y-75063822D01*
X134144330Y-74973240D01*
X134199582Y-74906641D01*
X134231018Y-74880963D01*
X134313868Y-74840680D01*
X134402379Y-74825036D01*
X134490674Y-74833553D01*
G37*
G36*
X133517514Y-72324346D02*
G01*
X133595652Y-72355813D01*
X133658690Y-72410223D01*
X133703960Y-72478535D01*
X133729212Y-72535601D01*
X133741931Y-72590954D01*
X133741462Y-72649529D01*
X133727147Y-72716260D01*
X133698330Y-72796082D01*
X133654354Y-72893930D01*
X133646520Y-72910240D01*
X133524143Y-73146090D01*
X133382464Y-73386798D01*
X133220402Y-73633893D01*
X133036882Y-73888906D01*
X132830823Y-74153366D01*
X132601148Y-74428805D01*
X132472843Y-74575955D01*
X132387904Y-74669404D01*
X132285474Y-74777792D01*
X132169503Y-74897227D01*
X132043942Y-75023815D01*
X131912743Y-75153663D01*
X131779857Y-75282877D01*
X131649235Y-75407563D01*
X131524828Y-75523828D01*
X131410587Y-75627778D01*
X131359550Y-75673010D01*
X131230797Y-75784105D01*
X131088130Y-75904004D01*
X130935481Y-76029613D01*
X130776778Y-76157835D01*
X130615952Y-76285574D01*
X130456934Y-76409735D01*
X130303653Y-76527220D01*
X130160039Y-76634934D01*
X130030023Y-76729781D01*
X129920836Y-76806410D01*
X129830155Y-76857902D01*
X129745238Y-76883216D01*
X129662305Y-76883071D01*
X129600786Y-76867281D01*
X129517593Y-76823680D01*
X129452983Y-76761511D01*
X129408930Y-76685413D01*
X129387410Y-76600028D01*
X129390398Y-76509996D01*
X129414899Y-76430543D01*
X129426312Y-76406059D01*
X129438259Y-76384834D01*
X129453678Y-76364263D01*
X129475501Y-76341740D01*
X129506665Y-76314661D01*
X129550103Y-76280421D01*
X129608751Y-76236413D01*
X129685543Y-76180033D01*
X129750322Y-76132789D01*
X130155932Y-75828066D01*
X130544618Y-75517580D01*
X130914817Y-75202805D01*
X131264967Y-74885215D01*
X131593507Y-74566283D01*
X131898874Y-74247483D01*
X132179507Y-73930288D01*
X132433844Y-73616172D01*
X132475445Y-73561744D01*
X132616910Y-73369903D01*
X132740990Y-73190111D01*
X132851874Y-73015740D01*
X132953751Y-72840158D01*
X133050810Y-72656734D01*
X133064775Y-72629009D01*
X133106316Y-72546664D01*
X133138255Y-72485746D01*
X133163470Y-72442016D01*
X133184842Y-72411237D01*
X133205249Y-72389169D01*
X133227572Y-72371575D01*
X133249162Y-72357615D01*
X133291823Y-72333734D01*
X133329929Y-72320568D01*
X133375492Y-72315093D01*
X133421517Y-72314213D01*
X133517514Y-72324346D01*
G37*
%TO.C,C5*%
X118010000Y-54859420D02*
X118010000Y-55140580D01*
X116990000Y-54859420D02*
X116990000Y-55140580D01*
%TO.C,C3*%
X118359420Y-64510000D02*
X118640580Y-64510000D01*
X118359420Y-63490000D02*
X118640580Y-63490000D01*
%TO.C,D1*%
X136765000Y-54200000D02*
X136765000Y-56485000D01*
X138235000Y-56485000D02*
X138235000Y-54200000D01*
X136765000Y-56485000D02*
X138235000Y-56485000D01*
%TD*%
M02*
