%TF.GenerationSoftware,KiCad,Pcbnew,(6.0.5)*%
%TF.CreationDate,2022-09-01T18:41:32+02:00*%
%TF.ProjectId,4_Touch_Sensor_Board,345f546f-7563-4685-9f53-656e736f725f,rev?*%
%TF.SameCoordinates,Original*%
%TF.FileFunction,Legend,Bot*%
%TF.FilePolarity,Positive*%
%FSLAX46Y46*%
G04 Gerber Fmt 4.6, Leading zero omitted, Abs format (unit mm)*
G04 Created by KiCad (PCBNEW (6.0.5)) date 2022-09-01 18:41:32*
%MOMM*%
%LPD*%
G01*
G04 APERTURE LIST*
%ADD10C,0.300000*%
%ADD11C,0.010000*%
G04 APERTURE END LIST*
D10*
X134500000Y-73500000D02*
X134642857Y-73428571D01*
X134857142Y-73428571D01*
X135071428Y-73500000D01*
X135214285Y-73642857D01*
X135285714Y-73785714D01*
X135357142Y-74071428D01*
X135357142Y-74285714D01*
X135285714Y-74571428D01*
X135214285Y-74714285D01*
X135071428Y-74857142D01*
X134857142Y-74928571D01*
X134714285Y-74928571D01*
X134500000Y-74857142D01*
X134428571Y-74785714D01*
X134428571Y-74285714D01*
X134714285Y-74285714D01*
X133785714Y-74928571D02*
X133785714Y-73928571D01*
X133785714Y-73428571D02*
X133857142Y-73500000D01*
X133785714Y-73571428D01*
X133714285Y-73500000D01*
X133785714Y-73428571D01*
X133785714Y-73571428D01*
X133285714Y-73928571D02*
X132714285Y-73928571D01*
X133071428Y-73428571D02*
X133071428Y-74714285D01*
X133000000Y-74857142D01*
X132857142Y-74928571D01*
X132714285Y-74928571D01*
X132214285Y-74928571D02*
X132214285Y-73428571D01*
X132214285Y-74142857D02*
X131357142Y-74142857D01*
X131357142Y-74928571D02*
X131357142Y-73428571D01*
X130000000Y-73928571D02*
X130000000Y-74928571D01*
X130642857Y-73928571D02*
X130642857Y-74714285D01*
X130571428Y-74857142D01*
X130428571Y-74928571D01*
X130214285Y-74928571D01*
X130071428Y-74857142D01*
X130000000Y-74785714D01*
X129285714Y-74928571D02*
X129285714Y-73428571D01*
X129285714Y-74000000D02*
X129142857Y-73928571D01*
X128857142Y-73928571D01*
X128714285Y-74000000D01*
X128642857Y-74071428D01*
X128571428Y-74214285D01*
X128571428Y-74642857D01*
X128642857Y-74785714D01*
X128714285Y-74857142D01*
X128857142Y-74928571D01*
X129142857Y-74928571D01*
X129285714Y-74857142D01*
X127928571Y-74785714D02*
X127857142Y-74857142D01*
X127928571Y-74928571D01*
X128000000Y-74857142D01*
X127928571Y-74785714D01*
X127928571Y-74928571D01*
X127928571Y-74000000D02*
X127857142Y-74071428D01*
X127928571Y-74142857D01*
X128000000Y-74071428D01*
X127928571Y-74000000D01*
X127928571Y-74142857D01*
X125428571Y-74928571D02*
X125428571Y-73428571D01*
X125428571Y-74857142D02*
X125571428Y-74928571D01*
X125857142Y-74928571D01*
X126000000Y-74857142D01*
X126071428Y-74785714D01*
X126142857Y-74642857D01*
X126142857Y-74214285D01*
X126071428Y-74071428D01*
X126000000Y-74000000D01*
X125857142Y-73928571D01*
X125571428Y-73928571D01*
X125428571Y-74000000D01*
X124071428Y-74928571D02*
X124071428Y-74142857D01*
X124142857Y-74000000D01*
X124285714Y-73928571D01*
X124571428Y-73928571D01*
X124714285Y-74000000D01*
X124071428Y-74857142D02*
X124214285Y-74928571D01*
X124571428Y-74928571D01*
X124714285Y-74857142D01*
X124785714Y-74714285D01*
X124785714Y-74571428D01*
X124714285Y-74428571D01*
X124571428Y-74357142D01*
X124214285Y-74357142D01*
X124071428Y-74285714D01*
X123357142Y-74928571D02*
X123357142Y-73928571D01*
X123357142Y-74214285D02*
X123285714Y-74071428D01*
X123214285Y-74000000D01*
X123071428Y-73928571D01*
X122928571Y-73928571D01*
X122428571Y-74928571D02*
X122428571Y-73928571D01*
X122428571Y-73428571D02*
X122500000Y-73500000D01*
X122428571Y-73571428D01*
X122357142Y-73500000D01*
X122428571Y-73428571D01*
X122428571Y-73571428D01*
X121500000Y-74928571D02*
X121642857Y-74857142D01*
X121714285Y-74785714D01*
X121785714Y-74642857D01*
X121785714Y-74214285D01*
X121714285Y-74071428D01*
X121642857Y-74000000D01*
X121500000Y-73928571D01*
X121285714Y-73928571D01*
X121142857Y-74000000D01*
X121071428Y-74071428D01*
X121000000Y-74214285D01*
X121000000Y-74642857D01*
X121071428Y-74785714D01*
X121142857Y-74857142D01*
X121285714Y-74928571D01*
X121500000Y-74928571D01*
X119571428Y-73500000D02*
X119714285Y-73428571D01*
X119928571Y-73428571D01*
X120142857Y-73500000D01*
X120285714Y-73642857D01*
X120357142Y-73785714D01*
X120428571Y-74071428D01*
X120428571Y-74285714D01*
X120357142Y-74571428D01*
X120285714Y-74714285D01*
X120142857Y-74857142D01*
X119928571Y-74928571D01*
X119785714Y-74928571D01*
X119571428Y-74857142D01*
X119500000Y-74785714D01*
X119500000Y-74285714D01*
X119785714Y-74285714D01*
X118214285Y-73928571D02*
X118214285Y-75142857D01*
X118285714Y-75285714D01*
X118357142Y-75357142D01*
X118500000Y-75428571D01*
X118714285Y-75428571D01*
X118857142Y-75357142D01*
X118214285Y-74857142D02*
X118357142Y-74928571D01*
X118642857Y-74928571D01*
X118785714Y-74857142D01*
X118857142Y-74785714D01*
X118928571Y-74642857D01*
X118928571Y-74214285D01*
X118857142Y-74071428D01*
X118785714Y-74000000D01*
X118642857Y-73928571D01*
X118357142Y-73928571D01*
X118214285Y-74000000D01*
X117642857Y-73428571D02*
X116714285Y-73428571D01*
X117214285Y-74000000D01*
X117000000Y-74000000D01*
X116857142Y-74071428D01*
X116785714Y-74142857D01*
X116714285Y-74285714D01*
X116714285Y-74642857D01*
X116785714Y-74785714D01*
X116857142Y-74857142D01*
X117000000Y-74928571D01*
X117428571Y-74928571D01*
X117571428Y-74857142D01*
X117642857Y-74785714D01*
X115000000Y-73357142D02*
X116285714Y-75285714D01*
%TO.C,REF\u002A\u002A*%
G36*
X122747744Y-63858946D02*
G01*
X122740612Y-64012254D01*
X122721948Y-64124441D01*
X122687537Y-64207554D01*
X122633162Y-64273641D01*
X122554610Y-64334747D01*
X122504630Y-64362535D01*
X122424513Y-64381251D01*
X122311970Y-64379774D01*
X122249050Y-64373845D01*
X122173153Y-64355742D01*
X122112487Y-64316391D01*
X122041912Y-64243066D01*
X122032482Y-64232356D01*
X121969034Y-64149938D01*
X121938762Y-64078156D01*
X121931034Y-63993034D01*
X121931034Y-63867946D01*
X122018447Y-63900940D01*
X122082175Y-63939509D01*
X122137567Y-64030008D01*
X122149131Y-64058983D01*
X122213788Y-64141041D01*
X122301804Y-64182347D01*
X122397637Y-64178633D01*
X122485747Y-64125632D01*
X122516028Y-64092582D01*
X122543489Y-64042720D01*
X122534899Y-63997416D01*
X122485463Y-63950790D01*
X122390389Y-63896958D01*
X122244885Y-63830039D01*
X121945632Y-63699056D01*
X121937691Y-63569298D01*
X121940676Y-63486649D01*
X122135652Y-63486649D01*
X122150453Y-63537815D01*
X122217797Y-63592442D01*
X122340027Y-63654597D01*
X122360253Y-63663601D01*
X122456970Y-63705493D01*
X122529334Y-63734958D01*
X122562961Y-63746092D01*
X122568056Y-63737896D01*
X122570101Y-63687853D01*
X122562812Y-63607414D01*
X122544452Y-63528753D01*
X122487188Y-63429651D01*
X122404524Y-63373808D01*
X122305784Y-63366250D01*
X122200289Y-63412000D01*
X122171053Y-63434876D01*
X122135652Y-63486649D01*
X121940676Y-63486649D01*
X121941196Y-63472255D01*
X121985336Y-63349617D01*
X122041050Y-63282034D01*
X122156561Y-63206540D01*
X122293588Y-63168403D01*
X122435237Y-63171422D01*
X122564617Y-63219393D01*
X122593099Y-63237813D01*
X122658428Y-63294811D01*
X122703106Y-63366916D01*
X122730641Y-63464853D01*
X122744541Y-63599351D01*
X122746378Y-63687853D01*
X122748313Y-63781136D01*
X122747744Y-63858946D01*
G37*
D11*
X122747744Y-63858946D02*
X122740612Y-64012254D01*
X122721948Y-64124441D01*
X122687537Y-64207554D01*
X122633162Y-64273641D01*
X122554610Y-64334747D01*
X122504630Y-64362535D01*
X122424513Y-64381251D01*
X122311970Y-64379774D01*
X122249050Y-64373845D01*
X122173153Y-64355742D01*
X122112487Y-64316391D01*
X122041912Y-64243066D01*
X122032482Y-64232356D01*
X121969034Y-64149938D01*
X121938762Y-64078156D01*
X121931034Y-63993034D01*
X121931034Y-63867946D01*
X122018447Y-63900940D01*
X122082175Y-63939509D01*
X122137567Y-64030008D01*
X122149131Y-64058983D01*
X122213788Y-64141041D01*
X122301804Y-64182347D01*
X122397637Y-64178633D01*
X122485747Y-64125632D01*
X122516028Y-64092582D01*
X122543489Y-64042720D01*
X122534899Y-63997416D01*
X122485463Y-63950790D01*
X122390389Y-63896958D01*
X122244885Y-63830039D01*
X121945632Y-63699056D01*
X121937691Y-63569298D01*
X121940676Y-63486649D01*
X122135652Y-63486649D01*
X122150453Y-63537815D01*
X122217797Y-63592442D01*
X122340027Y-63654597D01*
X122360253Y-63663601D01*
X122456970Y-63705493D01*
X122529334Y-63734958D01*
X122562961Y-63746092D01*
X122568056Y-63737896D01*
X122570101Y-63687853D01*
X122562812Y-63607414D01*
X122544452Y-63528753D01*
X122487188Y-63429651D01*
X122404524Y-63373808D01*
X122305784Y-63366250D01*
X122200289Y-63412000D01*
X122171053Y-63434876D01*
X122135652Y-63486649D01*
X121940676Y-63486649D01*
X121941196Y-63472255D01*
X121985336Y-63349617D01*
X122041050Y-63282034D01*
X122156561Y-63206540D01*
X122293588Y-63168403D01*
X122435237Y-63171422D01*
X122564617Y-63219393D01*
X122593099Y-63237813D01*
X122658428Y-63294811D01*
X122703106Y-63366916D01*
X122730641Y-63464853D01*
X122744541Y-63599351D01*
X122746378Y-63687853D01*
X122748313Y-63781136D01*
X122747744Y-63858946D01*
G36*
X128729175Y-53703045D02*
G01*
X128881895Y-53704039D01*
X128991792Y-53706593D01*
X129066235Y-53711445D01*
X129112594Y-53719331D01*
X129138239Y-53730988D01*
X129150539Y-53747153D01*
X129156865Y-53768563D01*
X129157047Y-53769332D01*
X129167441Y-53819663D01*
X129186339Y-53916888D01*
X129211802Y-54050810D01*
X129241890Y-54211235D01*
X129274664Y-54387967D01*
X129277337Y-54402428D01*
X129310010Y-54573959D01*
X129340413Y-54724625D01*
X129366568Y-54845267D01*
X129386496Y-54926729D01*
X129398220Y-54959852D01*
X129398282Y-54959905D01*
X129435229Y-54978229D01*
X129511057Y-55008677D01*
X129609425Y-55044685D01*
X129614965Y-55046640D01*
X129740724Y-55094170D01*
X129887011Y-55153783D01*
X130023293Y-55213056D01*
X130247390Y-55314765D01*
X130743618Y-54975897D01*
X130778570Y-54952063D01*
X130928280Y-54850755D01*
X131061867Y-54761575D01*
X131171343Y-54689773D01*
X131248718Y-54640603D01*
X131286004Y-54619317D01*
X131311552Y-54624196D01*
X131369555Y-54662002D01*
X131459195Y-54736870D01*
X131582957Y-54850903D01*
X131743328Y-55006205D01*
X131757679Y-55020341D01*
X131884933Y-55146999D01*
X131997969Y-55261745D01*
X132089867Y-55357391D01*
X132153707Y-55426746D01*
X132182570Y-55462620D01*
X132182664Y-55462794D01*
X132186331Y-55490106D01*
X132172808Y-55534408D01*
X132138684Y-55601761D01*
X132080548Y-55698226D01*
X131994988Y-55829863D01*
X131878594Y-56002734D01*
X131858759Y-56031912D01*
X131758445Y-56179726D01*
X131669923Y-56310577D01*
X131598465Y-56416643D01*
X131549343Y-56490102D01*
X131527831Y-56523130D01*
X131526208Y-56530126D01*
X131536387Y-56582326D01*
X131566879Y-56667561D01*
X131612712Y-56771291D01*
X131675000Y-56906951D01*
X131744548Y-57067921D01*
X131803609Y-57213621D01*
X131818252Y-57251333D01*
X131856600Y-57347622D01*
X131884770Y-57414704D01*
X131897497Y-57439885D01*
X131911545Y-57441767D01*
X131974681Y-57452651D01*
X132078019Y-57471449D01*
X132210809Y-57496115D01*
X132362297Y-57524604D01*
X132521732Y-57554873D01*
X132678361Y-57584875D01*
X132821433Y-57612566D01*
X132940195Y-57635900D01*
X133023896Y-57652833D01*
X133061782Y-57661320D01*
X133068063Y-57663713D01*
X133083373Y-57676619D01*
X133094763Y-57704096D01*
X133102803Y-57753446D01*
X133108064Y-57831973D01*
X133111116Y-57946980D01*
X133112529Y-58105770D01*
X133112873Y-58315645D01*
X133112873Y-58953906D01*
X132959598Y-58984160D01*
X132941057Y-58987785D01*
X132842596Y-59006569D01*
X132706448Y-59032093D01*
X132548087Y-59061468D01*
X132382988Y-59091806D01*
X132317973Y-59104009D01*
X132172697Y-59133697D01*
X132051626Y-59161770D01*
X131965886Y-59185536D01*
X131926601Y-59202301D01*
X131908799Y-59229694D01*
X131876389Y-59302174D01*
X131843234Y-59395977D01*
X131831564Y-59431103D01*
X131788604Y-59546409D01*
X131733192Y-59682876D01*
X131674353Y-59817954D01*
X131642884Y-59888509D01*
X131598051Y-59993895D01*
X131567240Y-60072818D01*
X131555785Y-60112053D01*
X131556422Y-60115014D01*
X131578150Y-60156639D01*
X131627146Y-60236969D01*
X131698438Y-60348220D01*
X131787054Y-60482605D01*
X131888023Y-60632340D01*
X132220261Y-61119931D01*
X131783771Y-61557149D01*
X131741555Y-61599221D01*
X131612470Y-61725153D01*
X131497107Y-61833754D01*
X131402224Y-61918903D01*
X131334582Y-61974482D01*
X131300938Y-61994368D01*
X131264402Y-61979238D01*
X131187890Y-61935801D01*
X131080196Y-61869270D01*
X130949767Y-61784867D01*
X130805052Y-61687816D01*
X130662910Y-61591964D01*
X130534678Y-61507557D01*
X130430054Y-61440850D01*
X130357171Y-61397024D01*
X130324158Y-61381264D01*
X130322223Y-61381408D01*
X130278369Y-61396945D01*
X130200598Y-61433121D01*
X130104392Y-61482785D01*
X130103381Y-61483329D01*
X129975605Y-61547326D01*
X129888051Y-61578591D01*
X129833726Y-61578677D01*
X129805641Y-61549138D01*
X129793752Y-61520061D01*
X129761668Y-61442188D01*
X129712247Y-61322475D01*
X129648118Y-61167286D01*
X129571911Y-60982984D01*
X129486255Y-60775933D01*
X129393781Y-60552496D01*
X129309962Y-60349226D01*
X129224678Y-60140649D01*
X129149222Y-59954263D01*
X129086126Y-59796407D01*
X129037923Y-59673419D01*
X129007144Y-59591639D01*
X128996322Y-59557406D01*
X129016991Y-59526015D01*
X129074409Y-59473602D01*
X129155688Y-59412704D01*
X129350820Y-59253387D01*
X129525445Y-59049807D01*
X129653235Y-58825808D01*
X129733402Y-58588003D01*
X129765160Y-58343007D01*
X129747722Y-58097433D01*
X129680301Y-57857895D01*
X129562111Y-57631007D01*
X129392364Y-57423383D01*
X129303856Y-57342527D01*
X129091804Y-57199559D01*
X128864905Y-57106352D01*
X128629791Y-57060687D01*
X128393094Y-57060344D01*
X128161446Y-57103105D01*
X127941478Y-57186750D01*
X127739822Y-57309061D01*
X127563111Y-57467817D01*
X127417977Y-57660801D01*
X127311050Y-57885793D01*
X127248964Y-58140575D01*
X127237569Y-58263377D01*
X127253246Y-58529434D01*
X127323846Y-58781856D01*
X127447282Y-59016182D01*
X127621466Y-59227952D01*
X127844311Y-59412704D01*
X127922561Y-59471123D01*
X127981244Y-59524110D01*
X128003678Y-59557356D01*
X127994732Y-59586339D01*
X127965703Y-59663996D01*
X127919026Y-59783451D01*
X127857231Y-59938362D01*
X127782850Y-60122392D01*
X127698412Y-60329200D01*
X127606449Y-60552446D01*
X127522771Y-60754742D01*
X127436366Y-60963686D01*
X127359138Y-61150498D01*
X127293716Y-61308814D01*
X127242731Y-61432269D01*
X127208812Y-61514498D01*
X127194590Y-61549138D01*
X127194425Y-61549548D01*
X127165972Y-61578798D01*
X127111382Y-61578463D01*
X127023609Y-61546980D01*
X126895608Y-61482785D01*
X126885532Y-61477380D01*
X126790481Y-61428750D01*
X126715424Y-61394328D01*
X126675842Y-61381264D01*
X126643400Y-61396702D01*
X126570895Y-61440258D01*
X126466565Y-61506751D01*
X126338539Y-61590998D01*
X126194948Y-61687816D01*
X126053468Y-61782734D01*
X125922611Y-61867490D01*
X125814292Y-61934496D01*
X125736960Y-61978529D01*
X125699062Y-61994368D01*
X125692607Y-61992357D01*
X125647609Y-61960658D01*
X125570727Y-61895181D01*
X125468721Y-61802048D01*
X125348351Y-61687381D01*
X125216379Y-61557300D01*
X124780039Y-61120232D01*
X125459733Y-60120440D01*
X125356402Y-59896886D01*
X125356096Y-59896225D01*
X125294046Y-59753714D01*
X125230640Y-59595018D01*
X125179558Y-59454368D01*
X125171827Y-59431683D01*
X125132852Y-59326370D01*
X125097707Y-59244534D01*
X125073195Y-59202301D01*
X125063212Y-59196337D01*
X125003286Y-59176329D01*
X124901532Y-59150442D01*
X124769068Y-59121370D01*
X124617011Y-59091806D01*
X124571466Y-59083467D01*
X124406685Y-59053107D01*
X124252930Y-59024509D01*
X124125678Y-59000564D01*
X124040402Y-58984160D01*
X123887126Y-58953906D01*
X123887126Y-58315645D01*
X123887160Y-58237165D01*
X123887808Y-58045703D01*
X123889720Y-57902812D01*
X123893469Y-57801189D01*
X123899622Y-57733531D01*
X123908751Y-57692536D01*
X123921427Y-57670900D01*
X123938218Y-57661320D01*
X123954474Y-57657439D01*
X124020748Y-57643710D01*
X124126479Y-57622745D01*
X124260915Y-57596588D01*
X124413302Y-57567283D01*
X124572890Y-57536877D01*
X124728925Y-57507413D01*
X124870657Y-57480937D01*
X124987331Y-57459494D01*
X125068197Y-57445128D01*
X125102503Y-57439885D01*
X125104822Y-57436720D01*
X125123474Y-57395642D01*
X125155753Y-57317044D01*
X125196391Y-57213621D01*
X125252788Y-57074273D01*
X125322214Y-56913226D01*
X125387288Y-56771291D01*
X125402202Y-56739432D01*
X125444047Y-56639669D01*
X125469118Y-56562721D01*
X125472426Y-56523130D01*
X125470720Y-56520325D01*
X125443631Y-56479005D01*
X125389927Y-56398740D01*
X125314877Y-56287350D01*
X125223746Y-56152655D01*
X125121800Y-56002476D01*
X125006930Y-55831851D01*
X124920761Y-55699311D01*
X124862131Y-55602112D01*
X124827650Y-55534234D01*
X124813926Y-55489656D01*
X124817568Y-55462361D01*
X124818794Y-55460313D01*
X124851747Y-55420536D01*
X124918927Y-55348052D01*
X125013419Y-55250046D01*
X125128306Y-55133702D01*
X125256672Y-55006205D01*
X125389831Y-54876821D01*
X125520269Y-54755209D01*
X125616119Y-54673156D01*
X125679866Y-54628560D01*
X125713996Y-54619317D01*
X125718456Y-54621393D01*
X125765421Y-54649385D01*
X125850685Y-54704084D01*
X125966259Y-54780237D01*
X126104154Y-54872592D01*
X126256381Y-54975897D01*
X126752610Y-55314765D01*
X126976707Y-55213056D01*
X126983219Y-55210109D01*
X127120804Y-55150504D01*
X127266767Y-55091222D01*
X127390575Y-55044685D01*
X127391122Y-55044493D01*
X127489414Y-55008497D01*
X127565081Y-54978095D01*
X127601780Y-54959852D01*
X127602374Y-54959190D01*
X127614833Y-54921831D01*
X127635336Y-54836871D01*
X127661907Y-54713469D01*
X127692567Y-54560782D01*
X127725336Y-54387967D01*
X127726478Y-54381774D01*
X127759193Y-54205431D01*
X127789155Y-54045743D01*
X127814425Y-53912905D01*
X127833065Y-53817113D01*
X127843135Y-53768563D01*
X127843779Y-53765873D01*
X127850408Y-53745088D01*
X127863841Y-53729466D01*
X127891446Y-53718270D01*
X127940593Y-53710762D01*
X128018653Y-53706205D01*
X128132994Y-53703863D01*
X128290986Y-53702998D01*
X128500000Y-53702874D01*
X128526262Y-53702874D01*
X128729175Y-53703045D01*
G37*
X128729175Y-53703045D02*
X128881895Y-53704039D01*
X128991792Y-53706593D01*
X129066235Y-53711445D01*
X129112594Y-53719331D01*
X129138239Y-53730988D01*
X129150539Y-53747153D01*
X129156865Y-53768563D01*
X129157047Y-53769332D01*
X129167441Y-53819663D01*
X129186339Y-53916888D01*
X129211802Y-54050810D01*
X129241890Y-54211235D01*
X129274664Y-54387967D01*
X129277337Y-54402428D01*
X129310010Y-54573959D01*
X129340413Y-54724625D01*
X129366568Y-54845267D01*
X129386496Y-54926729D01*
X129398220Y-54959852D01*
X129398282Y-54959905D01*
X129435229Y-54978229D01*
X129511057Y-55008677D01*
X129609425Y-55044685D01*
X129614965Y-55046640D01*
X129740724Y-55094170D01*
X129887011Y-55153783D01*
X130023293Y-55213056D01*
X130247390Y-55314765D01*
X130743618Y-54975897D01*
X130778570Y-54952063D01*
X130928280Y-54850755D01*
X131061867Y-54761575D01*
X131171343Y-54689773D01*
X131248718Y-54640603D01*
X131286004Y-54619317D01*
X131311552Y-54624196D01*
X131369555Y-54662002D01*
X131459195Y-54736870D01*
X131582957Y-54850903D01*
X131743328Y-55006205D01*
X131757679Y-55020341D01*
X131884933Y-55146999D01*
X131997969Y-55261745D01*
X132089867Y-55357391D01*
X132153707Y-55426746D01*
X132182570Y-55462620D01*
X132182664Y-55462794D01*
X132186331Y-55490106D01*
X132172808Y-55534408D01*
X132138684Y-55601761D01*
X132080548Y-55698226D01*
X131994988Y-55829863D01*
X131878594Y-56002734D01*
X131858759Y-56031912D01*
X131758445Y-56179726D01*
X131669923Y-56310577D01*
X131598465Y-56416643D01*
X131549343Y-56490102D01*
X131527831Y-56523130D01*
X131526208Y-56530126D01*
X131536387Y-56582326D01*
X131566879Y-56667561D01*
X131612712Y-56771291D01*
X131675000Y-56906951D01*
X131744548Y-57067921D01*
X131803609Y-57213621D01*
X131818252Y-57251333D01*
X131856600Y-57347622D01*
X131884770Y-57414704D01*
X131897497Y-57439885D01*
X131911545Y-57441767D01*
X131974681Y-57452651D01*
X132078019Y-57471449D01*
X132210809Y-57496115D01*
X132362297Y-57524604D01*
X132521732Y-57554873D01*
X132678361Y-57584875D01*
X132821433Y-57612566D01*
X132940195Y-57635900D01*
X133023896Y-57652833D01*
X133061782Y-57661320D01*
X133068063Y-57663713D01*
X133083373Y-57676619D01*
X133094763Y-57704096D01*
X133102803Y-57753446D01*
X133108064Y-57831973D01*
X133111116Y-57946980D01*
X133112529Y-58105770D01*
X133112873Y-58315645D01*
X133112873Y-58953906D01*
X132959598Y-58984160D01*
X132941057Y-58987785D01*
X132842596Y-59006569D01*
X132706448Y-59032093D01*
X132548087Y-59061468D01*
X132382988Y-59091806D01*
X132317973Y-59104009D01*
X132172697Y-59133697D01*
X132051626Y-59161770D01*
X131965886Y-59185536D01*
X131926601Y-59202301D01*
X131908799Y-59229694D01*
X131876389Y-59302174D01*
X131843234Y-59395977D01*
X131831564Y-59431103D01*
X131788604Y-59546409D01*
X131733192Y-59682876D01*
X131674353Y-59817954D01*
X131642884Y-59888509D01*
X131598051Y-59993895D01*
X131567240Y-60072818D01*
X131555785Y-60112053D01*
X131556422Y-60115014D01*
X131578150Y-60156639D01*
X131627146Y-60236969D01*
X131698438Y-60348220D01*
X131787054Y-60482605D01*
X131888023Y-60632340D01*
X132220261Y-61119931D01*
X131783771Y-61557149D01*
X131741555Y-61599221D01*
X131612470Y-61725153D01*
X131497107Y-61833754D01*
X131402224Y-61918903D01*
X131334582Y-61974482D01*
X131300938Y-61994368D01*
X131264402Y-61979238D01*
X131187890Y-61935801D01*
X131080196Y-61869270D01*
X130949767Y-61784867D01*
X130805052Y-61687816D01*
X130662910Y-61591964D01*
X130534678Y-61507557D01*
X130430054Y-61440850D01*
X130357171Y-61397024D01*
X130324158Y-61381264D01*
X130322223Y-61381408D01*
X130278369Y-61396945D01*
X130200598Y-61433121D01*
X130104392Y-61482785D01*
X130103381Y-61483329D01*
X129975605Y-61547326D01*
X129888051Y-61578591D01*
X129833726Y-61578677D01*
X129805641Y-61549138D01*
X129793752Y-61520061D01*
X129761668Y-61442188D01*
X129712247Y-61322475D01*
X129648118Y-61167286D01*
X129571911Y-60982984D01*
X129486255Y-60775933D01*
X129393781Y-60552496D01*
X129309962Y-60349226D01*
X129224678Y-60140649D01*
X129149222Y-59954263D01*
X129086126Y-59796407D01*
X129037923Y-59673419D01*
X129007144Y-59591639D01*
X128996322Y-59557406D01*
X129016991Y-59526015D01*
X129074409Y-59473602D01*
X129155688Y-59412704D01*
X129350820Y-59253387D01*
X129525445Y-59049807D01*
X129653235Y-58825808D01*
X129733402Y-58588003D01*
X129765160Y-58343007D01*
X129747722Y-58097433D01*
X129680301Y-57857895D01*
X129562111Y-57631007D01*
X129392364Y-57423383D01*
X129303856Y-57342527D01*
X129091804Y-57199559D01*
X128864905Y-57106352D01*
X128629791Y-57060687D01*
X128393094Y-57060344D01*
X128161446Y-57103105D01*
X127941478Y-57186750D01*
X127739822Y-57309061D01*
X127563111Y-57467817D01*
X127417977Y-57660801D01*
X127311050Y-57885793D01*
X127248964Y-58140575D01*
X127237569Y-58263377D01*
X127253246Y-58529434D01*
X127323846Y-58781856D01*
X127447282Y-59016182D01*
X127621466Y-59227952D01*
X127844311Y-59412704D01*
X127922561Y-59471123D01*
X127981244Y-59524110D01*
X128003678Y-59557356D01*
X127994732Y-59586339D01*
X127965703Y-59663996D01*
X127919026Y-59783451D01*
X127857231Y-59938362D01*
X127782850Y-60122392D01*
X127698412Y-60329200D01*
X127606449Y-60552446D01*
X127522771Y-60754742D01*
X127436366Y-60963686D01*
X127359138Y-61150498D01*
X127293716Y-61308814D01*
X127242731Y-61432269D01*
X127208812Y-61514498D01*
X127194590Y-61549138D01*
X127194425Y-61549548D01*
X127165972Y-61578798D01*
X127111382Y-61578463D01*
X127023609Y-61546980D01*
X126895608Y-61482785D01*
X126885532Y-61477380D01*
X126790481Y-61428750D01*
X126715424Y-61394328D01*
X126675842Y-61381264D01*
X126643400Y-61396702D01*
X126570895Y-61440258D01*
X126466565Y-61506751D01*
X126338539Y-61590998D01*
X126194948Y-61687816D01*
X126053468Y-61782734D01*
X125922611Y-61867490D01*
X125814292Y-61934496D01*
X125736960Y-61978529D01*
X125699062Y-61994368D01*
X125692607Y-61992357D01*
X125647609Y-61960658D01*
X125570727Y-61895181D01*
X125468721Y-61802048D01*
X125348351Y-61687381D01*
X125216379Y-61557300D01*
X124780039Y-61120232D01*
X125459733Y-60120440D01*
X125356402Y-59896886D01*
X125356096Y-59896225D01*
X125294046Y-59753714D01*
X125230640Y-59595018D01*
X125179558Y-59454368D01*
X125171827Y-59431683D01*
X125132852Y-59326370D01*
X125097707Y-59244534D01*
X125073195Y-59202301D01*
X125063212Y-59196337D01*
X125003286Y-59176329D01*
X124901532Y-59150442D01*
X124769068Y-59121370D01*
X124617011Y-59091806D01*
X124571466Y-59083467D01*
X124406685Y-59053107D01*
X124252930Y-59024509D01*
X124125678Y-59000564D01*
X124040402Y-58984160D01*
X123887126Y-58953906D01*
X123887126Y-58315645D01*
X123887160Y-58237165D01*
X123887808Y-58045703D01*
X123889720Y-57902812D01*
X123893469Y-57801189D01*
X123899622Y-57733531D01*
X123908751Y-57692536D01*
X123921427Y-57670900D01*
X123938218Y-57661320D01*
X123954474Y-57657439D01*
X124020748Y-57643710D01*
X124126479Y-57622745D01*
X124260915Y-57596588D01*
X124413302Y-57567283D01*
X124572890Y-57536877D01*
X124728925Y-57507413D01*
X124870657Y-57480937D01*
X124987331Y-57459494D01*
X125068197Y-57445128D01*
X125102503Y-57439885D01*
X125104822Y-57436720D01*
X125123474Y-57395642D01*
X125155753Y-57317044D01*
X125196391Y-57213621D01*
X125252788Y-57074273D01*
X125322214Y-56913226D01*
X125387288Y-56771291D01*
X125402202Y-56739432D01*
X125444047Y-56639669D01*
X125469118Y-56562721D01*
X125472426Y-56523130D01*
X125470720Y-56520325D01*
X125443631Y-56479005D01*
X125389927Y-56398740D01*
X125314877Y-56287350D01*
X125223746Y-56152655D01*
X125121800Y-56002476D01*
X125006930Y-55831851D01*
X124920761Y-55699311D01*
X124862131Y-55602112D01*
X124827650Y-55534234D01*
X124813926Y-55489656D01*
X124817568Y-55462361D01*
X124818794Y-55460313D01*
X124851747Y-55420536D01*
X124918927Y-55348052D01*
X125013419Y-55250046D01*
X125128306Y-55133702D01*
X125256672Y-55006205D01*
X125389831Y-54876821D01*
X125520269Y-54755209D01*
X125616119Y-54673156D01*
X125679866Y-54628560D01*
X125713996Y-54619317D01*
X125718456Y-54621393D01*
X125765421Y-54649385D01*
X125850685Y-54704084D01*
X125966259Y-54780237D01*
X126104154Y-54872592D01*
X126256381Y-54975897D01*
X126752610Y-55314765D01*
X126976707Y-55213056D01*
X126983219Y-55210109D01*
X127120804Y-55150504D01*
X127266767Y-55091222D01*
X127390575Y-55044685D01*
X127391122Y-55044493D01*
X127489414Y-55008497D01*
X127565081Y-54978095D01*
X127601780Y-54959852D01*
X127602374Y-54959190D01*
X127614833Y-54921831D01*
X127635336Y-54836871D01*
X127661907Y-54713469D01*
X127692567Y-54560782D01*
X127725336Y-54387967D01*
X127726478Y-54381774D01*
X127759193Y-54205431D01*
X127789155Y-54045743D01*
X127814425Y-53912905D01*
X127833065Y-53817113D01*
X127843135Y-53768563D01*
X127843779Y-53765873D01*
X127850408Y-53745088D01*
X127863841Y-53729466D01*
X127891446Y-53718270D01*
X127940593Y-53710762D01*
X128018653Y-53706205D01*
X128132994Y-53703863D01*
X128290986Y-53702998D01*
X128500000Y-53702874D01*
X128526262Y-53702874D01*
X128729175Y-53703045D01*
G36*
X128679995Y-63193674D02*
G01*
X128780355Y-63252191D01*
X128824505Y-63297784D01*
X128909347Y-63434072D01*
X128937931Y-63582658D01*
X128937931Y-63684882D01*
X128843963Y-63645372D01*
X128778977Y-63605504D01*
X128727763Y-63522734D01*
X128722504Y-63505669D01*
X128665903Y-63418724D01*
X128580594Y-63371758D01*
X128482641Y-63369741D01*
X128388106Y-63417644D01*
X128373993Y-63429998D01*
X128326797Y-63483683D01*
X128319003Y-63530488D01*
X128354706Y-63576446D01*
X128438003Y-63627588D01*
X128572988Y-63689948D01*
X128582118Y-63693897D01*
X128731969Y-63763772D01*
X128834316Y-63825672D01*
X128897320Y-63887476D01*
X128929138Y-63957062D01*
X128937931Y-64042308D01*
X128926409Y-64136816D01*
X128868228Y-64257785D01*
X128765875Y-64344688D01*
X128691843Y-64370778D01*
X128587367Y-64385055D01*
X128485917Y-64382006D01*
X128413472Y-64360467D01*
X128405777Y-64355104D01*
X128385341Y-64317632D01*
X128399522Y-64251591D01*
X128424161Y-64199753D01*
X128463670Y-64178172D01*
X128538602Y-64179246D01*
X128642630Y-64173055D01*
X128710605Y-64130311D01*
X128733563Y-64051189D01*
X128733542Y-64048916D01*
X128719629Y-64002986D01*
X128672303Y-63960845D01*
X128580287Y-63912272D01*
X128455151Y-63853790D01*
X128372268Y-63821975D01*
X128324420Y-63824025D01*
X128302063Y-63866051D01*
X128295649Y-63954162D01*
X128295632Y-64094469D01*
X128294917Y-64181081D01*
X128291635Y-64288041D01*
X128286300Y-64361250D01*
X128279585Y-64388391D01*
X128277790Y-64388206D01*
X128238982Y-64373498D01*
X128174709Y-64342456D01*
X128085880Y-64296521D01*
X128096436Y-63882628D01*
X128097171Y-63855179D01*
X128105555Y-63662517D01*
X128120366Y-63517309D01*
X128144629Y-63409887D01*
X128181364Y-63330584D01*
X128233597Y-63269730D01*
X128304348Y-63217658D01*
X128305657Y-63216842D01*
X128420056Y-63174360D01*
X128552365Y-63167184D01*
X128679995Y-63193674D01*
G37*
X128679995Y-63193674D02*
X128780355Y-63252191D01*
X128824505Y-63297784D01*
X128909347Y-63434072D01*
X128937931Y-63582658D01*
X128937931Y-63684882D01*
X128843963Y-63645372D01*
X128778977Y-63605504D01*
X128727763Y-63522734D01*
X128722504Y-63505669D01*
X128665903Y-63418724D01*
X128580594Y-63371758D01*
X128482641Y-63369741D01*
X128388106Y-63417644D01*
X128373993Y-63429998D01*
X128326797Y-63483683D01*
X128319003Y-63530488D01*
X128354706Y-63576446D01*
X128438003Y-63627588D01*
X128572988Y-63689948D01*
X128582118Y-63693897D01*
X128731969Y-63763772D01*
X128834316Y-63825672D01*
X128897320Y-63887476D01*
X128929138Y-63957062D01*
X128937931Y-64042308D01*
X128926409Y-64136816D01*
X128868228Y-64257785D01*
X128765875Y-64344688D01*
X128691843Y-64370778D01*
X128587367Y-64385055D01*
X128485917Y-64382006D01*
X128413472Y-64360467D01*
X128405777Y-64355104D01*
X128385341Y-64317632D01*
X128399522Y-64251591D01*
X128424161Y-64199753D01*
X128463670Y-64178172D01*
X128538602Y-64179246D01*
X128642630Y-64173055D01*
X128710605Y-64130311D01*
X128733563Y-64051189D01*
X128733542Y-64048916D01*
X128719629Y-64002986D01*
X128672303Y-63960845D01*
X128580287Y-63912272D01*
X128455151Y-63853790D01*
X128372268Y-63821975D01*
X128324420Y-63824025D01*
X128302063Y-63866051D01*
X128295649Y-63954162D01*
X128295632Y-64094469D01*
X128294917Y-64181081D01*
X128291635Y-64288041D01*
X128286300Y-64361250D01*
X128279585Y-64388391D01*
X128277790Y-64388206D01*
X128238982Y-64373498D01*
X128174709Y-64342456D01*
X128085880Y-64296521D01*
X128096436Y-63882628D01*
X128097171Y-63855179D01*
X128105555Y-63662517D01*
X128120366Y-63517309D01*
X128144629Y-63409887D01*
X128181364Y-63330584D01*
X128233597Y-63269730D01*
X128304348Y-63217658D01*
X128305657Y-63216842D01*
X128420056Y-63174360D01*
X128552365Y-63167184D01*
X128679995Y-63193674D01*
G36*
X124411628Y-63164810D02*
G01*
X124474194Y-63180702D01*
X124532446Y-63220322D01*
X124607418Y-63294076D01*
X124655633Y-63346163D01*
X124705858Y-63413786D01*
X124728510Y-63477168D01*
X124733793Y-63557584D01*
X124733793Y-63689201D01*
X124644035Y-63642785D01*
X124572904Y-63586225D01*
X124524183Y-63510040D01*
X124515814Y-63489326D01*
X124452056Y-63409041D01*
X124363470Y-63368784D01*
X124266873Y-63372702D01*
X124179080Y-63424943D01*
X124141936Y-63467370D01*
X124120300Y-63521647D01*
X124143461Y-63569954D01*
X124215479Y-63618545D01*
X124340410Y-63673677D01*
X124359368Y-63681292D01*
X124473105Y-63731125D01*
X124570706Y-63780265D01*
X124632803Y-63819080D01*
X124694999Y-63888411D01*
X124736346Y-63999051D01*
X124731957Y-64117782D01*
X124683037Y-64230148D01*
X124590797Y-64321690D01*
X124516110Y-64360658D01*
X124371832Y-64387944D01*
X124291656Y-64384263D01*
X124217435Y-64364360D01*
X124188960Y-64322598D01*
X124199608Y-64253820D01*
X124202705Y-64244726D01*
X124227268Y-64196498D01*
X124268165Y-64178245D01*
X124346079Y-64179466D01*
X124401091Y-64181126D01*
X124465459Y-64166881D01*
X124509561Y-64124292D01*
X124534680Y-64071857D01*
X124537481Y-64016929D01*
X124537352Y-64016608D01*
X124504785Y-63986928D01*
X124435083Y-63943735D01*
X124344898Y-63895461D01*
X124250883Y-63850539D01*
X124169689Y-63817402D01*
X124117968Y-63804483D01*
X124110274Y-63817134D01*
X124100588Y-63876668D01*
X124093954Y-63973887D01*
X124091494Y-64096437D01*
X124090922Y-64181263D01*
X124088225Y-64288094D01*
X124083821Y-64361257D01*
X124078270Y-64388391D01*
X124049254Y-64379272D01*
X123990684Y-64354509D01*
X123916322Y-64320627D01*
X123916322Y-63885933D01*
X123916797Y-63774508D01*
X123921293Y-63605301D01*
X123932747Y-63479769D01*
X123953828Y-63388363D01*
X123987206Y-63321532D01*
X124035550Y-63269726D01*
X124101531Y-63223393D01*
X124185594Y-63185156D01*
X124340807Y-63162184D01*
X124411628Y-63164810D01*
G37*
X124411628Y-63164810D02*
X124474194Y-63180702D01*
X124532446Y-63220322D01*
X124607418Y-63294076D01*
X124655633Y-63346163D01*
X124705858Y-63413786D01*
X124728510Y-63477168D01*
X124733793Y-63557584D01*
X124733793Y-63689201D01*
X124644035Y-63642785D01*
X124572904Y-63586225D01*
X124524183Y-63510040D01*
X124515814Y-63489326D01*
X124452056Y-63409041D01*
X124363470Y-63368784D01*
X124266873Y-63372702D01*
X124179080Y-63424943D01*
X124141936Y-63467370D01*
X124120300Y-63521647D01*
X124143461Y-63569954D01*
X124215479Y-63618545D01*
X124340410Y-63673677D01*
X124359368Y-63681292D01*
X124473105Y-63731125D01*
X124570706Y-63780265D01*
X124632803Y-63819080D01*
X124694999Y-63888411D01*
X124736346Y-63999051D01*
X124731957Y-64117782D01*
X124683037Y-64230148D01*
X124590797Y-64321690D01*
X124516110Y-64360658D01*
X124371832Y-64387944D01*
X124291656Y-64384263D01*
X124217435Y-64364360D01*
X124188960Y-64322598D01*
X124199608Y-64253820D01*
X124202705Y-64244726D01*
X124227268Y-64196498D01*
X124268165Y-64178245D01*
X124346079Y-64179466D01*
X124401091Y-64181126D01*
X124465459Y-64166881D01*
X124509561Y-64124292D01*
X124534680Y-64071857D01*
X124537481Y-64016929D01*
X124537352Y-64016608D01*
X124504785Y-63986928D01*
X124435083Y-63943735D01*
X124344898Y-63895461D01*
X124250883Y-63850539D01*
X124169689Y-63817402D01*
X124117968Y-63804483D01*
X124110274Y-63817134D01*
X124100588Y-63876668D01*
X124093954Y-63973887D01*
X124091494Y-64096437D01*
X124090922Y-64181263D01*
X124088225Y-64288094D01*
X124083821Y-64361257D01*
X124078270Y-64388391D01*
X124049254Y-64379272D01*
X123990684Y-64354509D01*
X123916322Y-64320627D01*
X123916322Y-63885933D01*
X123916797Y-63774508D01*
X123921293Y-63605301D01*
X123932747Y-63479769D01*
X123953828Y-63388363D01*
X123987206Y-63321532D01*
X124035550Y-63269726D01*
X124101531Y-63223393D01*
X124185594Y-63185156D01*
X124340807Y-63162184D01*
X124411628Y-63164810D01*
G36*
X126950219Y-63889135D02*
G01*
X126933739Y-64044320D01*
X126897883Y-64160612D01*
X126838455Y-64249411D01*
X126751257Y-64322119D01*
X126668195Y-64364150D01*
X126528709Y-64387538D01*
X126389412Y-64361965D01*
X126263510Y-64290694D01*
X126164210Y-64176991D01*
X126152219Y-64156024D01*
X126136384Y-64119291D01*
X126124638Y-64072415D01*
X126116378Y-64007355D01*
X126110998Y-63916070D01*
X126107892Y-63790519D01*
X126107797Y-63779379D01*
X126310345Y-63779379D01*
X126311035Y-63885644D01*
X126315400Y-63981762D01*
X126326192Y-64043811D01*
X126346126Y-64085502D01*
X126377916Y-64120543D01*
X126385364Y-64127279D01*
X126481060Y-64176992D01*
X126582312Y-64171905D01*
X126676614Y-64112362D01*
X126704694Y-64081514D01*
X126728196Y-64040618D01*
X126741322Y-63984080D01*
X126747030Y-63897657D01*
X126748276Y-63767106D01*
X126747661Y-63667487D01*
X126743407Y-63570251D01*
X126732682Y-63507502D01*
X126712707Y-63465382D01*
X126680704Y-63430032D01*
X126661905Y-63414114D01*
X126564492Y-63371235D01*
X126462437Y-63377985D01*
X126373825Y-63434123D01*
X126354749Y-63456382D01*
X126331486Y-63498293D01*
X126318036Y-63556822D01*
X126311841Y-63645880D01*
X126310345Y-63779379D01*
X126107797Y-63779379D01*
X126106457Y-63622661D01*
X126106086Y-63404455D01*
X126105977Y-62727072D01*
X126200862Y-62766819D01*
X126225949Y-62777699D01*
X126265881Y-62802268D01*
X126288739Y-62839475D01*
X126301301Y-62904541D01*
X126310345Y-63012687D01*
X126318605Y-63109788D01*
X126329523Y-63173535D01*
X126345165Y-63197323D01*
X126368736Y-63190943D01*
X126428801Y-63168525D01*
X126536145Y-63162967D01*
X126651624Y-63183728D01*
X126751257Y-63228455D01*
X126806072Y-63269856D01*
X126876452Y-63350632D01*
X126921528Y-63454195D01*
X126945496Y-63591947D01*
X126952239Y-63767106D01*
X126952553Y-63775287D01*
X126950219Y-63889135D01*
G37*
X126950219Y-63889135D02*
X126933739Y-64044320D01*
X126897883Y-64160612D01*
X126838455Y-64249411D01*
X126751257Y-64322119D01*
X126668195Y-64364150D01*
X126528709Y-64387538D01*
X126389412Y-64361965D01*
X126263510Y-64290694D01*
X126164210Y-64176991D01*
X126152219Y-64156024D01*
X126136384Y-64119291D01*
X126124638Y-64072415D01*
X126116378Y-64007355D01*
X126110998Y-63916070D01*
X126107892Y-63790519D01*
X126107797Y-63779379D01*
X126310345Y-63779379D01*
X126311035Y-63885644D01*
X126315400Y-63981762D01*
X126326192Y-64043811D01*
X126346126Y-64085502D01*
X126377916Y-64120543D01*
X126385364Y-64127279D01*
X126481060Y-64176992D01*
X126582312Y-64171905D01*
X126676614Y-64112362D01*
X126704694Y-64081514D01*
X126728196Y-64040618D01*
X126741322Y-63984080D01*
X126747030Y-63897657D01*
X126748276Y-63767106D01*
X126747661Y-63667487D01*
X126743407Y-63570251D01*
X126732682Y-63507502D01*
X126712707Y-63465382D01*
X126680704Y-63430032D01*
X126661905Y-63414114D01*
X126564492Y-63371235D01*
X126462437Y-63377985D01*
X126373825Y-63434123D01*
X126354749Y-63456382D01*
X126331486Y-63498293D01*
X126318036Y-63556822D01*
X126311841Y-63645880D01*
X126310345Y-63779379D01*
X126107797Y-63779379D01*
X126106457Y-63622661D01*
X126106086Y-63404455D01*
X126105977Y-62727072D01*
X126200862Y-62766819D01*
X126225949Y-62777699D01*
X126265881Y-62802268D01*
X126288739Y-62839475D01*
X126301301Y-62904541D01*
X126310345Y-63012687D01*
X126318605Y-63109788D01*
X126329523Y-63173535D01*
X126345165Y-63197323D01*
X126368736Y-63190943D01*
X126428801Y-63168525D01*
X126536145Y-63162967D01*
X126651624Y-63183728D01*
X126751257Y-63228455D01*
X126806072Y-63269856D01*
X126876452Y-63350632D01*
X126921528Y-63454195D01*
X126945496Y-63591947D01*
X126952239Y-63767106D01*
X126952553Y-63775287D01*
X126950219Y-63889135D01*
G36*
X127710872Y-63205536D02*
G01*
X127720090Y-63210638D01*
X127795381Y-63269080D01*
X127862698Y-63344215D01*
X127874439Y-63361196D01*
X127896883Y-63400825D01*
X127912918Y-63447858D01*
X127923945Y-63512492D01*
X127931365Y-63604923D01*
X127936579Y-63735349D01*
X127940989Y-63913965D01*
X127941614Y-63944162D01*
X127943620Y-64139941D01*
X127940792Y-64278603D01*
X127933088Y-64361103D01*
X127920466Y-64388391D01*
X127882267Y-64380220D01*
X127817374Y-64355463D01*
X127802094Y-64348223D01*
X127778227Y-64331835D01*
X127761769Y-64304893D01*
X127751005Y-64257833D01*
X127744219Y-64181088D01*
X127739693Y-64065095D01*
X127735713Y-63900287D01*
X127734622Y-63852112D01*
X127730407Y-63699960D01*
X127724936Y-63593476D01*
X127716554Y-63522565D01*
X127703606Y-63477129D01*
X127684439Y-63447072D01*
X127657398Y-63422296D01*
X127577337Y-63378861D01*
X127478846Y-63370498D01*
X127390719Y-63403734D01*
X127327314Y-63472548D01*
X127302988Y-63570920D01*
X127302311Y-63597658D01*
X127289024Y-63646065D01*
X127249796Y-63653450D01*
X127172983Y-63624624D01*
X127155192Y-63615378D01*
X127107109Y-63561006D01*
X127106157Y-63480161D01*
X127151968Y-63368352D01*
X127193990Y-63307419D01*
X127301435Y-63220859D01*
X127434057Y-63171920D01*
X127575867Y-63165260D01*
X127710872Y-63205536D01*
G37*
X127710872Y-63205536D02*
X127720090Y-63210638D01*
X127795381Y-63269080D01*
X127862698Y-63344215D01*
X127874439Y-63361196D01*
X127896883Y-63400825D01*
X127912918Y-63447858D01*
X127923945Y-63512492D01*
X127931365Y-63604923D01*
X127936579Y-63735349D01*
X127940989Y-63913965D01*
X127941614Y-63944162D01*
X127943620Y-64139941D01*
X127940792Y-64278603D01*
X127933088Y-64361103D01*
X127920466Y-64388391D01*
X127882267Y-64380220D01*
X127817374Y-64355463D01*
X127802094Y-64348223D01*
X127778227Y-64331835D01*
X127761769Y-64304893D01*
X127751005Y-64257833D01*
X127744219Y-64181088D01*
X127739693Y-64065095D01*
X127735713Y-63900287D01*
X127734622Y-63852112D01*
X127730407Y-63699960D01*
X127724936Y-63593476D01*
X127716554Y-63522565D01*
X127703606Y-63477129D01*
X127684439Y-63447072D01*
X127657398Y-63422296D01*
X127577337Y-63378861D01*
X127478846Y-63370498D01*
X127390719Y-63403734D01*
X127327314Y-63472548D01*
X127302988Y-63570920D01*
X127302311Y-63597658D01*
X127289024Y-63646065D01*
X127249796Y-63653450D01*
X127172983Y-63624624D01*
X127155192Y-63615378D01*
X127107109Y-63561006D01*
X127106157Y-63480161D01*
X127151968Y-63368352D01*
X127193990Y-63307419D01*
X127301435Y-63220859D01*
X127434057Y-63171920D01*
X127575867Y-63165260D01*
X127710872Y-63205536D01*
G36*
X131378487Y-63107689D02*
G01*
X131514848Y-63171770D01*
X131626598Y-63282584D01*
X131649761Y-63317273D01*
X131668973Y-63356590D01*
X131682598Y-63406145D01*
X131691877Y-63475568D01*
X131698050Y-63574490D01*
X131702357Y-63712539D01*
X131706038Y-63899346D01*
X131715180Y-64417542D01*
X131638383Y-64388344D01*
X131568068Y-64361520D01*
X131515424Y-64335706D01*
X131481060Y-64302431D01*
X131461093Y-64251510D01*
X131451639Y-64172761D01*
X131448814Y-64055999D01*
X131448736Y-63891042D01*
X131448336Y-63759558D01*
X131445951Y-63633394D01*
X131440259Y-63547223D01*
X131429961Y-63490672D01*
X131413755Y-63453370D01*
X131390345Y-63424943D01*
X131332793Y-63384827D01*
X131236112Y-63369706D01*
X131140465Y-63407917D01*
X131134152Y-63412810D01*
X131114477Y-63435413D01*
X131099963Y-63471664D01*
X131089394Y-63530511D01*
X131081555Y-63620901D01*
X131075227Y-63751779D01*
X131069195Y-63932095D01*
X131054598Y-64414907D01*
X130930517Y-64359283D01*
X130806437Y-64303659D01*
X130806437Y-63862851D01*
X130806951Y-63743098D01*
X130811380Y-63576506D01*
X130822594Y-63452468D01*
X130843272Y-63360987D01*
X130876093Y-63292066D01*
X130923736Y-63235707D01*
X130988877Y-63181914D01*
X131082571Y-63127719D01*
X131230175Y-63092339D01*
X131378487Y-63107689D01*
G37*
X131378487Y-63107689D02*
X131514848Y-63171770D01*
X131626598Y-63282584D01*
X131649761Y-63317273D01*
X131668973Y-63356590D01*
X131682598Y-63406145D01*
X131691877Y-63475568D01*
X131698050Y-63574490D01*
X131702357Y-63712539D01*
X131706038Y-63899346D01*
X131715180Y-64417542D01*
X131638383Y-64388344D01*
X131568068Y-64361520D01*
X131515424Y-64335706D01*
X131481060Y-64302431D01*
X131461093Y-64251510D01*
X131451639Y-64172761D01*
X131448814Y-64055999D01*
X131448736Y-63891042D01*
X131448336Y-63759558D01*
X131445951Y-63633394D01*
X131440259Y-63547223D01*
X131429961Y-63490672D01*
X131413755Y-63453370D01*
X131390345Y-63424943D01*
X131332793Y-63384827D01*
X131236112Y-63369706D01*
X131140465Y-63407917D01*
X131134152Y-63412810D01*
X131114477Y-63435413D01*
X131099963Y-63471664D01*
X131089394Y-63530511D01*
X131081555Y-63620901D01*
X131075227Y-63751779D01*
X131069195Y-63932095D01*
X131054598Y-64414907D01*
X130930517Y-64359283D01*
X130806437Y-64303659D01*
X130806437Y-63862851D01*
X130806951Y-63743098D01*
X130811380Y-63576506D01*
X130822594Y-63452468D01*
X130843272Y-63360987D01*
X130876093Y-63292066D01*
X130923736Y-63235707D01*
X130988877Y-63181914D01*
X131082571Y-63127719D01*
X131230175Y-63092339D01*
X131378487Y-63107689D01*
G36*
X133953668Y-64103736D02*
G01*
X133954471Y-64168785D01*
X133957040Y-64386260D01*
X133957556Y-64552672D01*
X133954437Y-64673846D01*
X133946100Y-64755607D01*
X133930962Y-64803781D01*
X133907441Y-64824194D01*
X133873956Y-64822672D01*
X133828923Y-64805039D01*
X133770761Y-64777121D01*
X133758332Y-64771164D01*
X133706578Y-64742006D01*
X133679550Y-64707314D01*
X133669207Y-64649470D01*
X133667509Y-64550857D01*
X133667433Y-64373793D01*
X133485038Y-64373793D01*
X133372840Y-64368880D01*
X133284620Y-64348953D01*
X133211358Y-64308678D01*
X133205896Y-64304741D01*
X133131558Y-64238243D01*
X133079823Y-64157908D01*
X133047196Y-64052758D01*
X133030182Y-63911815D01*
X133026030Y-63752588D01*
X133317241Y-63752588D01*
X133317291Y-63779276D01*
X133320064Y-63899738D01*
X133328967Y-63978484D01*
X133346617Y-64029618D01*
X133375632Y-64067241D01*
X133377440Y-64069038D01*
X133448753Y-64117720D01*
X133517865Y-64112921D01*
X133595925Y-64053971D01*
X133615019Y-64033823D01*
X133643142Y-63992515D01*
X133659000Y-63938787D01*
X133666009Y-63857326D01*
X133667586Y-63732821D01*
X133666220Y-63657445D01*
X133651402Y-63520362D01*
X133617579Y-63430548D01*
X133561389Y-63381460D01*
X133479472Y-63366552D01*
X133444956Y-63369729D01*
X133385235Y-63401254D01*
X133345752Y-63471505D01*
X133323942Y-63586583D01*
X133317241Y-63752588D01*
X133026030Y-63752588D01*
X133025287Y-63724101D01*
X133026371Y-63587122D01*
X133031307Y-63483364D01*
X133042272Y-63411412D01*
X133061438Y-63357500D01*
X133090977Y-63307864D01*
X133118092Y-63269931D01*
X133216550Y-63167522D01*
X133328100Y-63111903D01*
X133468246Y-63094297D01*
X133628635Y-63111847D01*
X133767288Y-63174797D01*
X133876951Y-63285824D01*
X133885218Y-63297578D01*
X133904499Y-63328813D01*
X133919269Y-63364507D01*
X133930254Y-63412364D01*
X133938174Y-63480087D01*
X133943753Y-63575382D01*
X133947713Y-63705952D01*
X133948188Y-63732821D01*
X133950778Y-63879502D01*
X133953668Y-64103736D01*
G37*
X133953668Y-64103736D02*
X133954471Y-64168785D01*
X133957040Y-64386260D01*
X133957556Y-64552672D01*
X133954437Y-64673846D01*
X133946100Y-64755607D01*
X133930962Y-64803781D01*
X133907441Y-64824194D01*
X133873956Y-64822672D01*
X133828923Y-64805039D01*
X133770761Y-64777121D01*
X133758332Y-64771164D01*
X133706578Y-64742006D01*
X133679550Y-64707314D01*
X133669207Y-64649470D01*
X133667509Y-64550857D01*
X133667433Y-64373793D01*
X133485038Y-64373793D01*
X133372840Y-64368880D01*
X133284620Y-64348953D01*
X133211358Y-64308678D01*
X133205896Y-64304741D01*
X133131558Y-64238243D01*
X133079823Y-64157908D01*
X133047196Y-64052758D01*
X133030182Y-63911815D01*
X133026030Y-63752588D01*
X133317241Y-63752588D01*
X133317291Y-63779276D01*
X133320064Y-63899738D01*
X133328967Y-63978484D01*
X133346617Y-64029618D01*
X133375632Y-64067241D01*
X133377440Y-64069038D01*
X133448753Y-64117720D01*
X133517865Y-64112921D01*
X133595925Y-64053971D01*
X133615019Y-64033823D01*
X133643142Y-63992515D01*
X133659000Y-63938787D01*
X133666009Y-63857326D01*
X133667586Y-63732821D01*
X133666220Y-63657445D01*
X133651402Y-63520362D01*
X133617579Y-63430548D01*
X133561389Y-63381460D01*
X133479472Y-63366552D01*
X133444956Y-63369729D01*
X133385235Y-63401254D01*
X133345752Y-63471505D01*
X133323942Y-63586583D01*
X133317241Y-63752588D01*
X133026030Y-63752588D01*
X133025287Y-63724101D01*
X133026371Y-63587122D01*
X133031307Y-63483364D01*
X133042272Y-63411412D01*
X133061438Y-63357500D01*
X133090977Y-63307864D01*
X133118092Y-63269931D01*
X133216550Y-63167522D01*
X133328100Y-63111903D01*
X133468246Y-63094297D01*
X133628635Y-63111847D01*
X133767288Y-63174797D01*
X133876951Y-63285824D01*
X133885218Y-63297578D01*
X133904499Y-63328813D01*
X133919269Y-63364507D01*
X133930254Y-63412364D01*
X133938174Y-63480087D01*
X133943753Y-63575382D01*
X133947713Y-63705952D01*
X133948188Y-63732821D01*
X133950778Y-63879502D01*
X133953668Y-64103736D01*
G36*
X123436725Y-63174619D02*
G01*
X123557261Y-63219393D01*
X123607388Y-63253034D01*
X123658152Y-63301236D01*
X123694362Y-63362551D01*
X123718393Y-63446024D01*
X123732618Y-63560697D01*
X123739412Y-63715613D01*
X123741149Y-63919814D01*
X123740809Y-64025341D01*
X123739101Y-64169541D01*
X123736201Y-64284620D01*
X123732384Y-64360822D01*
X123727925Y-64388391D01*
X123698909Y-64379272D01*
X123640339Y-64354509D01*
X123638581Y-64353707D01*
X123608167Y-64337785D01*
X123587712Y-64315938D01*
X123575240Y-64277672D01*
X123568777Y-64212495D01*
X123566348Y-64109913D01*
X123565977Y-63959433D01*
X123565229Y-63863974D01*
X123557256Y-63684571D01*
X123538998Y-63553163D01*
X123508526Y-63462859D01*
X123463912Y-63406767D01*
X123403226Y-63377994D01*
X123394807Y-63375989D01*
X123281139Y-63374423D01*
X123192492Y-63425348D01*
X123131265Y-63527445D01*
X123120346Y-63556961D01*
X123095458Y-63622283D01*
X123082854Y-63652300D01*
X123056969Y-63648164D01*
X123000439Y-63625717D01*
X122947715Y-63588647D01*
X122923678Y-63518587D01*
X122930847Y-63468406D01*
X122974897Y-63366618D01*
X123046123Y-63271235D01*
X123129415Y-63205269D01*
X123164310Y-63190018D01*
X123296443Y-63164521D01*
X123436725Y-63174619D01*
G37*
X123436725Y-63174619D02*
X123557261Y-63219393D01*
X123607388Y-63253034D01*
X123658152Y-63301236D01*
X123694362Y-63362551D01*
X123718393Y-63446024D01*
X123732618Y-63560697D01*
X123739412Y-63715613D01*
X123741149Y-63919814D01*
X123740809Y-64025341D01*
X123739101Y-64169541D01*
X123736201Y-64284620D01*
X123732384Y-64360822D01*
X123727925Y-64388391D01*
X123698909Y-64379272D01*
X123640339Y-64354509D01*
X123638581Y-64353707D01*
X123608167Y-64337785D01*
X123587712Y-64315938D01*
X123575240Y-64277672D01*
X123568777Y-64212495D01*
X123566348Y-64109913D01*
X123565977Y-63959433D01*
X123565229Y-63863974D01*
X123557256Y-63684571D01*
X123538998Y-63553163D01*
X123508526Y-63462859D01*
X123463912Y-63406767D01*
X123403226Y-63377994D01*
X123394807Y-63375989D01*
X123281139Y-63374423D01*
X123192492Y-63425348D01*
X123131265Y-63527445D01*
X123120346Y-63556961D01*
X123095458Y-63622283D01*
X123082854Y-63652300D01*
X123056969Y-63648164D01*
X123000439Y-63625717D01*
X122947715Y-63588647D01*
X122923678Y-63518587D01*
X122930847Y-63468406D01*
X122974897Y-63366618D01*
X123046123Y-63271235D01*
X123129415Y-63205269D01*
X123164310Y-63190018D01*
X123296443Y-63164521D01*
X123436725Y-63174619D01*
G36*
X135068938Y-63777744D02*
G01*
X135067355Y-63918918D01*
X135061916Y-64017285D01*
X135050643Y-64085990D01*
X135031561Y-64138181D01*
X135002694Y-64187004D01*
X134995592Y-64197135D01*
X134920444Y-64277012D01*
X134834820Y-64337253D01*
X134790852Y-64356802D01*
X134632861Y-64389408D01*
X134476613Y-64368317D01*
X134332618Y-64296249D01*
X134211385Y-64175922D01*
X134201150Y-64159803D01*
X134167847Y-64066205D01*
X134145405Y-63935879D01*
X134134516Y-63785371D01*
X134135740Y-63646147D01*
X134430384Y-63646147D01*
X134432706Y-63839020D01*
X134433639Y-63851433D01*
X134447242Y-63957857D01*
X134471465Y-64025346D01*
X134512365Y-64071584D01*
X134580941Y-64114895D01*
X134648764Y-64117172D01*
X134718621Y-64067241D01*
X134730771Y-64054102D01*
X134754575Y-64014785D01*
X134768628Y-63957674D01*
X134775313Y-63869256D01*
X134777011Y-63736019D01*
X134774101Y-63611222D01*
X134759582Y-63492326D01*
X134729610Y-63417184D01*
X134680589Y-63377893D01*
X134608924Y-63366552D01*
X134581632Y-63368807D01*
X134505176Y-63410160D01*
X134454650Y-63502900D01*
X134430384Y-63646147D01*
X134135740Y-63646147D01*
X134135871Y-63631227D01*
X134150161Y-63489992D01*
X134178075Y-63378213D01*
X134213949Y-63303766D01*
X134314939Y-63187968D01*
X134451779Y-63116015D01*
X134619283Y-63091281D01*
X134664019Y-63092619D01*
X134795758Y-63120008D01*
X134903968Y-63189007D01*
X135003276Y-63307864D01*
X135009184Y-63316681D01*
X135035921Y-63364108D01*
X135053312Y-63417714D01*
X135063312Y-63490549D01*
X135067878Y-63595659D01*
X135068893Y-63736019D01*
X135068965Y-63746092D01*
X135068938Y-63777744D01*
G37*
X135068938Y-63777744D02*
X135067355Y-63918918D01*
X135061916Y-64017285D01*
X135050643Y-64085990D01*
X135031561Y-64138181D01*
X135002694Y-64187004D01*
X134995592Y-64197135D01*
X134920444Y-64277012D01*
X134834820Y-64337253D01*
X134790852Y-64356802D01*
X134632861Y-64389408D01*
X134476613Y-64368317D01*
X134332618Y-64296249D01*
X134211385Y-64175922D01*
X134201150Y-64159803D01*
X134167847Y-64066205D01*
X134145405Y-63935879D01*
X134134516Y-63785371D01*
X134135740Y-63646147D01*
X134430384Y-63646147D01*
X134432706Y-63839020D01*
X134433639Y-63851433D01*
X134447242Y-63957857D01*
X134471465Y-64025346D01*
X134512365Y-64071584D01*
X134580941Y-64114895D01*
X134648764Y-64117172D01*
X134718621Y-64067241D01*
X134730771Y-64054102D01*
X134754575Y-64014785D01*
X134768628Y-63957674D01*
X134775313Y-63869256D01*
X134777011Y-63736019D01*
X134774101Y-63611222D01*
X134759582Y-63492326D01*
X134729610Y-63417184D01*
X134680589Y-63377893D01*
X134608924Y-63366552D01*
X134581632Y-63368807D01*
X134505176Y-63410160D01*
X134454650Y-63502900D01*
X134430384Y-63646147D01*
X134135740Y-63646147D01*
X134135871Y-63631227D01*
X134150161Y-63489992D01*
X134178075Y-63378213D01*
X134213949Y-63303766D01*
X134314939Y-63187968D01*
X134451779Y-63116015D01*
X134619283Y-63091281D01*
X134664019Y-63092619D01*
X134795758Y-63120008D01*
X134903968Y-63189007D01*
X135003276Y-63307864D01*
X135009184Y-63316681D01*
X135035921Y-63364108D01*
X135053312Y-63417714D01*
X135063312Y-63490549D01*
X135067878Y-63595659D01*
X135068893Y-63736019D01*
X135068965Y-63746092D01*
X135068938Y-63777744D01*
G36*
X132840168Y-63884639D02*
G01*
X132834926Y-63931526D01*
X132795868Y-64098409D01*
X132725290Y-64225326D01*
X132617955Y-64322602D01*
X132611888Y-64326616D01*
X132475440Y-64383706D01*
X132332973Y-64388786D01*
X132195696Y-64345311D01*
X132074819Y-64256734D01*
X131981552Y-64126509D01*
X131979986Y-64123369D01*
X131948993Y-64042501D01*
X131926292Y-63950593D01*
X131914250Y-63864311D01*
X131915237Y-63800321D01*
X131931623Y-63775287D01*
X131946179Y-63776809D01*
X132015792Y-63804496D01*
X132094697Y-63855409D01*
X132161820Y-63914343D01*
X132196087Y-63966094D01*
X132231707Y-64036291D01*
X132304711Y-64100138D01*
X132389485Y-64125632D01*
X132420558Y-64118261D01*
X132481891Y-64081154D01*
X132535315Y-64029644D01*
X132558161Y-63982913D01*
X132558154Y-63982740D01*
X132532233Y-63961280D01*
X132463127Y-63922565D01*
X132361249Y-63872037D01*
X132237011Y-63815134D01*
X132236328Y-63814833D01*
X132101355Y-63754738D01*
X132010884Y-63711440D01*
X131956039Y-63678179D01*
X131927944Y-63648194D01*
X131917724Y-63614726D01*
X131916503Y-63571015D01*
X131924996Y-63488244D01*
X132213219Y-63488244D01*
X132242970Y-63514265D01*
X132317101Y-63553256D01*
X132319274Y-63554359D01*
X132406733Y-63596009D01*
X132484974Y-63629235D01*
X132534611Y-63643291D01*
X132554521Y-63624503D01*
X132558161Y-63560124D01*
X132543035Y-63480001D01*
X132490597Y-63407189D01*
X132414677Y-63369439D01*
X132330040Y-63373251D01*
X132251447Y-63425121D01*
X132220555Y-63460965D01*
X132213219Y-63488244D01*
X131924996Y-63488244D01*
X131927251Y-63466265D01*
X131980389Y-63323949D01*
X132069342Y-63212111D01*
X132184448Y-63134676D01*
X132316045Y-63095568D01*
X132454472Y-63098711D01*
X132590065Y-63148030D01*
X132713164Y-63247447D01*
X132781366Y-63345829D01*
X132830356Y-63486261D01*
X132838322Y-63560124D01*
X132849452Y-63663329D01*
X132840168Y-63884639D01*
G37*
X132840168Y-63884639D02*
X132834926Y-63931526D01*
X132795868Y-64098409D01*
X132725290Y-64225326D01*
X132617955Y-64322602D01*
X132611888Y-64326616D01*
X132475440Y-64383706D01*
X132332973Y-64388786D01*
X132195696Y-64345311D01*
X132074819Y-64256734D01*
X131981552Y-64126509D01*
X131979986Y-64123369D01*
X131948993Y-64042501D01*
X131926292Y-63950593D01*
X131914250Y-63864311D01*
X131915237Y-63800321D01*
X131931623Y-63775287D01*
X131946179Y-63776809D01*
X132015792Y-63804496D01*
X132094697Y-63855409D01*
X132161820Y-63914343D01*
X132196087Y-63966094D01*
X132231707Y-64036291D01*
X132304711Y-64100138D01*
X132389485Y-64125632D01*
X132420558Y-64118261D01*
X132481891Y-64081154D01*
X132535315Y-64029644D01*
X132558161Y-63982913D01*
X132558154Y-63982740D01*
X132532233Y-63961280D01*
X132463127Y-63922565D01*
X132361249Y-63872037D01*
X132237011Y-63815134D01*
X132236328Y-63814833D01*
X132101355Y-63754738D01*
X132010884Y-63711440D01*
X131956039Y-63678179D01*
X131927944Y-63648194D01*
X131917724Y-63614726D01*
X131916503Y-63571015D01*
X131924996Y-63488244D01*
X132213219Y-63488244D01*
X132242970Y-63514265D01*
X132317101Y-63553256D01*
X132319274Y-63554359D01*
X132406733Y-63596009D01*
X132484974Y-63629235D01*
X132534611Y-63643291D01*
X132554521Y-63624503D01*
X132558161Y-63560124D01*
X132543035Y-63480001D01*
X132490597Y-63407189D01*
X132414677Y-63369439D01*
X132330040Y-63373251D01*
X132251447Y-63425121D01*
X132220555Y-63460965D01*
X132213219Y-63488244D01*
X131924996Y-63488244D01*
X131927251Y-63466265D01*
X131980389Y-63323949D01*
X132069342Y-63212111D01*
X132184448Y-63134676D01*
X132316045Y-63095568D01*
X132454472Y-63098711D01*
X132590065Y-63148030D01*
X132713164Y-63247447D01*
X132781366Y-63345829D01*
X132830356Y-63486261D01*
X132838322Y-63560124D01*
X132849452Y-63663329D01*
X132840168Y-63884639D01*
G36*
X125792410Y-63170970D02*
G01*
X125856442Y-63196066D01*
X125930805Y-63229947D01*
X125930805Y-64208727D01*
X125838415Y-64301117D01*
X125817310Y-64321835D01*
X125758847Y-64367885D01*
X125699886Y-64382801D01*
X125612150Y-64375934D01*
X125576429Y-64371494D01*
X125484301Y-64362102D01*
X125419885Y-64358361D01*
X125400778Y-64358933D01*
X125322390Y-64365126D01*
X125227620Y-64375934D01*
X125197298Y-64379647D01*
X125120911Y-64381107D01*
X125065022Y-64358047D01*
X125001355Y-64301117D01*
X124908965Y-64208727D01*
X124908965Y-63685455D01*
X124909685Y-63530821D01*
X124911929Y-63383391D01*
X124915421Y-63266653D01*
X124919876Y-63189840D01*
X124925013Y-63162184D01*
X124926090Y-63162258D01*
X124963407Y-63176019D01*
X125026457Y-63206344D01*
X125111854Y-63250505D01*
X125119893Y-63709965D01*
X125127931Y-64169425D01*
X125303103Y-64169425D01*
X125311092Y-63665805D01*
X125313624Y-63528904D01*
X125317249Y-63382579D01*
X125321177Y-63266411D01*
X125325080Y-63189809D01*
X125328632Y-63162184D01*
X125329653Y-63162281D01*
X125365051Y-63172443D01*
X125430126Y-63194235D01*
X125522069Y-63226287D01*
X125522516Y-63668661D01*
X125522964Y-63745507D01*
X125526069Y-63894834D01*
X125531622Y-64019544D01*
X125539033Y-64108379D01*
X125547714Y-64150083D01*
X125578771Y-64172389D01*
X125642152Y-64179278D01*
X125711839Y-64169425D01*
X125719827Y-63665805D01*
X125722686Y-63537828D01*
X125728614Y-63386348D01*
X125736365Y-63267530D01*
X125745343Y-63189950D01*
X125754948Y-63162184D01*
X125792410Y-63170970D01*
G37*
X125792410Y-63170970D02*
X125856442Y-63196066D01*
X125930805Y-63229947D01*
X125930805Y-64208727D01*
X125838415Y-64301117D01*
X125817310Y-64321835D01*
X125758847Y-64367885D01*
X125699886Y-64382801D01*
X125612150Y-64375934D01*
X125576429Y-64371494D01*
X125484301Y-64362102D01*
X125419885Y-64358361D01*
X125400778Y-64358933D01*
X125322390Y-64365126D01*
X125227620Y-64375934D01*
X125197298Y-64379647D01*
X125120911Y-64381107D01*
X125065022Y-64358047D01*
X125001355Y-64301117D01*
X124908965Y-64208727D01*
X124908965Y-63685455D01*
X124909685Y-63530821D01*
X124911929Y-63383391D01*
X124915421Y-63266653D01*
X124919876Y-63189840D01*
X124925013Y-63162184D01*
X124926090Y-63162258D01*
X124963407Y-63176019D01*
X125026457Y-63206344D01*
X125111854Y-63250505D01*
X125119893Y-63709965D01*
X125127931Y-64169425D01*
X125303103Y-64169425D01*
X125311092Y-63665805D01*
X125313624Y-63528904D01*
X125317249Y-63382579D01*
X125321177Y-63266411D01*
X125325080Y-63189809D01*
X125328632Y-63162184D01*
X125329653Y-63162281D01*
X125365051Y-63172443D01*
X125430126Y-63194235D01*
X125522069Y-63226287D01*
X125522516Y-63668661D01*
X125522964Y-63745507D01*
X125526069Y-63894834D01*
X125531622Y-64019544D01*
X125539033Y-64108379D01*
X125547714Y-64150083D01*
X125578771Y-64172389D01*
X125642152Y-64179278D01*
X125711839Y-64169425D01*
X125719827Y-63665805D01*
X125722686Y-63537828D01*
X125728614Y-63386348D01*
X125736365Y-63267530D01*
X125745343Y-63189950D01*
X125754948Y-63162184D01*
X125792410Y-63170970D01*
G36*
X129864885Y-62768997D02*
G01*
X129959770Y-62809020D01*
X129959770Y-63598706D01*
X129959769Y-63607920D01*
X129959377Y-63815083D01*
X129958329Y-64001432D01*
X129956722Y-64159453D01*
X129954655Y-64281630D01*
X129952225Y-64360448D01*
X129949529Y-64388391D01*
X129948475Y-64388297D01*
X129912647Y-64378144D01*
X129847345Y-64356339D01*
X129755402Y-64324288D01*
X129755402Y-63912991D01*
X129754818Y-63751385D01*
X129752104Y-63634177D01*
X129745858Y-63554415D01*
X129734680Y-63501531D01*
X129717168Y-63464957D01*
X129691922Y-63434123D01*
X129674710Y-63417725D01*
X129581636Y-63372307D01*
X129479051Y-63376328D01*
X129385043Y-63430032D01*
X129371358Y-63443359D01*
X129349439Y-63471032D01*
X129334440Y-63507614D01*
X129325053Y-63563000D01*
X129319968Y-63647088D01*
X129317877Y-63769773D01*
X129317471Y-63940951D01*
X129317276Y-64027769D01*
X129316010Y-64170565D01*
X129313761Y-64284923D01*
X129310758Y-64360860D01*
X129307230Y-64388391D01*
X129306176Y-64388297D01*
X129270348Y-64378144D01*
X129205046Y-64356339D01*
X129113103Y-64324288D01*
X129113149Y-63911109D01*
X129113218Y-63874326D01*
X129117081Y-63682580D01*
X129128950Y-63537586D01*
X129151725Y-63429510D01*
X129188307Y-63348519D01*
X129241595Y-63284778D01*
X129314490Y-63228455D01*
X129385586Y-63193199D01*
X129499255Y-63165946D01*
X129611060Y-63164398D01*
X129697011Y-63190910D01*
X129703473Y-63194571D01*
X129723401Y-63194179D01*
X129737019Y-63163506D01*
X129746846Y-63093188D01*
X129755402Y-62973857D01*
X129770000Y-62728973D01*
X129864885Y-62768997D01*
G37*
X129864885Y-62768997D02*
X129959770Y-62809020D01*
X129959770Y-63598706D01*
X129959769Y-63607920D01*
X129959377Y-63815083D01*
X129958329Y-64001432D01*
X129956722Y-64159453D01*
X129954655Y-64281630D01*
X129952225Y-64360448D01*
X129949529Y-64388391D01*
X129948475Y-64388297D01*
X129912647Y-64378144D01*
X129847345Y-64356339D01*
X129755402Y-64324288D01*
X129755402Y-63912991D01*
X129754818Y-63751385D01*
X129752104Y-63634177D01*
X129745858Y-63554415D01*
X129734680Y-63501531D01*
X129717168Y-63464957D01*
X129691922Y-63434123D01*
X129674710Y-63417725D01*
X129581636Y-63372307D01*
X129479051Y-63376328D01*
X129385043Y-63430032D01*
X129371358Y-63443359D01*
X129349439Y-63471032D01*
X129334440Y-63507614D01*
X129325053Y-63563000D01*
X129319968Y-63647088D01*
X129317877Y-63769773D01*
X129317471Y-63940951D01*
X129317276Y-64027769D01*
X129316010Y-64170565D01*
X129313761Y-64284923D01*
X129310758Y-64360860D01*
X129307230Y-64388391D01*
X129306176Y-64388297D01*
X129270348Y-64378144D01*
X129205046Y-64356339D01*
X129113103Y-64324288D01*
X129113149Y-63911109D01*
X129113218Y-63874326D01*
X129117081Y-63682580D01*
X129128950Y-63537586D01*
X129151725Y-63429510D01*
X129188307Y-63348519D01*
X129241595Y-63284778D01*
X129314490Y-63228455D01*
X129385586Y-63193199D01*
X129499255Y-63165946D01*
X129611060Y-63164398D01*
X129697011Y-63190910D01*
X129703473Y-63194571D01*
X129723401Y-63194179D01*
X129737019Y-63163506D01*
X129746846Y-63093188D01*
X129755402Y-62973857D01*
X129770000Y-62728973D01*
X129864885Y-62768997D01*
G36*
X98136337Y-68820839D02*
G01*
X98275779Y-68855005D01*
X98407955Y-68916325D01*
X98528699Y-69004810D01*
X98633846Y-69120470D01*
X98719230Y-69263313D01*
X98742121Y-69313633D01*
X98760666Y-69364636D01*
X98771072Y-69415624D01*
X98775633Y-69478691D01*
X98776643Y-69565929D01*
X98776032Y-69638539D01*
X98772350Y-69705270D01*
X98763322Y-69757334D01*
X98746694Y-69806686D01*
X98720212Y-69865286D01*
X98712552Y-69880902D01*
X98622006Y-70023893D01*
X98508125Y-70141543D01*
X98374141Y-70231089D01*
X98223286Y-70289772D01*
X98145881Y-70306147D01*
X97988849Y-70313810D01*
X97836753Y-70289016D01*
X97694054Y-70234306D01*
X97565212Y-70152223D01*
X97454686Y-70045309D01*
X97366936Y-69916107D01*
X97306423Y-69767158D01*
X97284283Y-69645265D01*
X97282288Y-69510751D01*
X97300295Y-69379908D01*
X97337446Y-69266572D01*
X97380372Y-69185543D01*
X97475933Y-69056987D01*
X97589221Y-68955527D01*
X97716071Y-68881172D01*
X97852318Y-68833933D01*
X97993795Y-68813818D01*
X98136337Y-68820839D01*
G37*
X98136337Y-68820839D02*
X98275779Y-68855005D01*
X98407955Y-68916325D01*
X98528699Y-69004810D01*
X98633846Y-69120470D01*
X98719230Y-69263313D01*
X98742121Y-69313633D01*
X98760666Y-69364636D01*
X98771072Y-69415624D01*
X98775633Y-69478691D01*
X98776643Y-69565929D01*
X98776032Y-69638539D01*
X98772350Y-69705270D01*
X98763322Y-69757334D01*
X98746694Y-69806686D01*
X98720212Y-69865286D01*
X98712552Y-69880902D01*
X98622006Y-70023893D01*
X98508125Y-70141543D01*
X98374141Y-70231089D01*
X98223286Y-70289772D01*
X98145881Y-70306147D01*
X97988849Y-70313810D01*
X97836753Y-70289016D01*
X97694054Y-70234306D01*
X97565212Y-70152223D01*
X97454686Y-70045309D01*
X97366936Y-69916107D01*
X97306423Y-69767158D01*
X97284283Y-69645265D01*
X97282288Y-69510751D01*
X97300295Y-69379908D01*
X97337446Y-69266572D01*
X97380372Y-69185543D01*
X97475933Y-69056987D01*
X97589221Y-68955527D01*
X97716071Y-68881172D01*
X97852318Y-68833933D01*
X97993795Y-68813818D01*
X98136337Y-68820839D01*
G36*
X92189842Y-74813722D02*
G01*
X92172232Y-74949833D01*
X92145659Y-75063214D01*
X92103259Y-75179867D01*
X92004976Y-75372110D01*
X91879350Y-75541247D01*
X91727681Y-75686126D01*
X91551271Y-75805594D01*
X91351420Y-75898499D01*
X91129429Y-75963689D01*
X91038907Y-75978392D01*
X90909552Y-75988611D01*
X90768675Y-75990909D01*
X90628050Y-75985472D01*
X90499449Y-75972485D01*
X90394643Y-75952133D01*
X90341979Y-75936109D01*
X90222369Y-75889219D01*
X90100783Y-75829688D01*
X89989765Y-75763971D01*
X89901859Y-75698524D01*
X89900778Y-75697579D01*
X89852607Y-75656736D01*
X89815545Y-75627653D01*
X89797537Y-75616572D01*
X89795568Y-75619217D01*
X89791113Y-75647794D01*
X89788018Y-75701094D01*
X89786857Y-75770786D01*
X89786857Y-75925000D01*
X89106500Y-75925000D01*
X89088389Y-75924997D01*
X88936490Y-75924731D01*
X88797078Y-75924070D01*
X88674118Y-75923062D01*
X88571579Y-75921758D01*
X88493426Y-75920205D01*
X88443625Y-75918454D01*
X88426143Y-75916553D01*
X88426550Y-75914893D01*
X88437988Y-75890377D01*
X88461962Y-75844317D01*
X88494179Y-75785018D01*
X88562215Y-75661929D01*
X88572190Y-74446689D01*
X89859429Y-74446689D01*
X89859935Y-74542703D01*
X89862387Y-74643587D01*
X89867190Y-74716507D01*
X89874695Y-74766212D01*
X89885250Y-74797449D01*
X89898828Y-74819755D01*
X89949962Y-74880561D01*
X90018475Y-74943863D01*
X90093568Y-75000265D01*
X90164440Y-75040370D01*
X90203761Y-75055085D01*
X90294302Y-75074677D01*
X90412555Y-75084694D01*
X90537232Y-75083177D01*
X90655627Y-75062574D01*
X90754449Y-75020011D01*
X90839948Y-74953571D01*
X90864000Y-74928995D01*
X90926622Y-74845185D01*
X90960504Y-74754850D01*
X90970679Y-74646151D01*
X90967922Y-74588725D01*
X90940661Y-74470507D01*
X90883390Y-74369039D01*
X90795068Y-74283179D01*
X90674651Y-74211784D01*
X90521097Y-74153714D01*
X90459193Y-74138475D01*
X90384251Y-74128041D01*
X90289937Y-74122246D01*
X90167857Y-74120298D01*
X90148026Y-74120299D01*
X90056696Y-74121414D01*
X89978244Y-74124108D01*
X89920471Y-74128029D01*
X89891179Y-74132824D01*
X89887808Y-74134380D01*
X89876910Y-74144154D01*
X89869192Y-74163794D01*
X89864119Y-74198585D01*
X89861157Y-74253809D01*
X89859772Y-74334750D01*
X89859429Y-74446689D01*
X88572190Y-74446689D01*
X88572714Y-74382857D01*
X88574275Y-74196561D01*
X88576458Y-73958965D01*
X88578750Y-73752698D01*
X88581335Y-73574842D01*
X88584400Y-73422481D01*
X88588128Y-73292696D01*
X88592705Y-73182572D01*
X88598316Y-73089190D01*
X88605147Y-73009635D01*
X88613383Y-72940988D01*
X88623208Y-72880333D01*
X88634808Y-72824752D01*
X88648368Y-72771329D01*
X88664073Y-72717146D01*
X88682109Y-72659286D01*
X88753161Y-72477898D01*
X88850464Y-72310258D01*
X88971641Y-72166732D01*
X89117803Y-72046570D01*
X89290057Y-71949020D01*
X89489515Y-71873331D01*
X89717285Y-71818753D01*
X89974477Y-71784535D01*
X90064368Y-71777730D01*
X90215760Y-71772755D01*
X90365814Y-71777235D01*
X90521554Y-71791927D01*
X90690005Y-71817584D01*
X90878193Y-71854962D01*
X91093143Y-71904818D01*
X91142828Y-71916881D01*
X91267601Y-71946565D01*
X91385861Y-71973898D01*
X91490436Y-71997263D01*
X91574154Y-72015047D01*
X91629845Y-72025636D01*
X91758333Y-72046740D01*
X91577695Y-72484549D01*
X91532512Y-72593859D01*
X91488061Y-72700969D01*
X91449923Y-72792418D01*
X91419969Y-72863733D01*
X91400071Y-72910437D01*
X91392103Y-72928058D01*
X91390850Y-72928310D01*
X91367758Y-72920443D01*
X91322353Y-72900283D01*
X91262824Y-72871417D01*
X91139096Y-72815203D01*
X90968837Y-72753740D01*
X90794578Y-72706670D01*
X90623133Y-72675177D01*
X90461317Y-72660443D01*
X90315944Y-72663650D01*
X90193829Y-72685979D01*
X90108601Y-72721409D01*
X90011809Y-72794017D01*
X89937297Y-72892518D01*
X89887199Y-73013883D01*
X89863649Y-73155080D01*
X89855355Y-73285215D01*
X90288285Y-73286400D01*
X90434285Y-73287624D01*
X90595771Y-73291972D01*
X90733725Y-73300178D01*
X90855281Y-73313039D01*
X90967577Y-73331354D01*
X91077747Y-73355919D01*
X91192929Y-73387533D01*
X91365268Y-73447709D01*
X91567975Y-73546806D01*
X91745876Y-73668190D01*
X91897217Y-73810155D01*
X92020243Y-73970993D01*
X92113199Y-74148997D01*
X92174330Y-74342460D01*
X92183904Y-74394565D01*
X92196177Y-74523533D01*
X92197722Y-74646151D01*
X92197990Y-74667437D01*
X92189842Y-74813722D01*
G37*
X92189842Y-74813722D02*
X92172232Y-74949833D01*
X92145659Y-75063214D01*
X92103259Y-75179867D01*
X92004976Y-75372110D01*
X91879350Y-75541247D01*
X91727681Y-75686126D01*
X91551271Y-75805594D01*
X91351420Y-75898499D01*
X91129429Y-75963689D01*
X91038907Y-75978392D01*
X90909552Y-75988611D01*
X90768675Y-75990909D01*
X90628050Y-75985472D01*
X90499449Y-75972485D01*
X90394643Y-75952133D01*
X90341979Y-75936109D01*
X90222369Y-75889219D01*
X90100783Y-75829688D01*
X89989765Y-75763971D01*
X89901859Y-75698524D01*
X89900778Y-75697579D01*
X89852607Y-75656736D01*
X89815545Y-75627653D01*
X89797537Y-75616572D01*
X89795568Y-75619217D01*
X89791113Y-75647794D01*
X89788018Y-75701094D01*
X89786857Y-75770786D01*
X89786857Y-75925000D01*
X89106500Y-75925000D01*
X89088389Y-75924997D01*
X88936490Y-75924731D01*
X88797078Y-75924070D01*
X88674118Y-75923062D01*
X88571579Y-75921758D01*
X88493426Y-75920205D01*
X88443625Y-75918454D01*
X88426143Y-75916553D01*
X88426550Y-75914893D01*
X88437988Y-75890377D01*
X88461962Y-75844317D01*
X88494179Y-75785018D01*
X88562215Y-75661929D01*
X88572190Y-74446689D01*
X89859429Y-74446689D01*
X89859935Y-74542703D01*
X89862387Y-74643587D01*
X89867190Y-74716507D01*
X89874695Y-74766212D01*
X89885250Y-74797449D01*
X89898828Y-74819755D01*
X89949962Y-74880561D01*
X90018475Y-74943863D01*
X90093568Y-75000265D01*
X90164440Y-75040370D01*
X90203761Y-75055085D01*
X90294302Y-75074677D01*
X90412555Y-75084694D01*
X90537232Y-75083177D01*
X90655627Y-75062574D01*
X90754449Y-75020011D01*
X90839948Y-74953571D01*
X90864000Y-74928995D01*
X90926622Y-74845185D01*
X90960504Y-74754850D01*
X90970679Y-74646151D01*
X90967922Y-74588725D01*
X90940661Y-74470507D01*
X90883390Y-74369039D01*
X90795068Y-74283179D01*
X90674651Y-74211784D01*
X90521097Y-74153714D01*
X90459193Y-74138475D01*
X90384251Y-74128041D01*
X90289937Y-74122246D01*
X90167857Y-74120298D01*
X90148026Y-74120299D01*
X90056696Y-74121414D01*
X89978244Y-74124108D01*
X89920471Y-74128029D01*
X89891179Y-74132824D01*
X89887808Y-74134380D01*
X89876910Y-74144154D01*
X89869192Y-74163794D01*
X89864119Y-74198585D01*
X89861157Y-74253809D01*
X89859772Y-74334750D01*
X89859429Y-74446689D01*
X88572190Y-74446689D01*
X88572714Y-74382857D01*
X88574275Y-74196561D01*
X88576458Y-73958965D01*
X88578750Y-73752698D01*
X88581335Y-73574842D01*
X88584400Y-73422481D01*
X88588128Y-73292696D01*
X88592705Y-73182572D01*
X88598316Y-73089190D01*
X88605147Y-73009635D01*
X88613383Y-72940988D01*
X88623208Y-72880333D01*
X88634808Y-72824752D01*
X88648368Y-72771329D01*
X88664073Y-72717146D01*
X88682109Y-72659286D01*
X88753161Y-72477898D01*
X88850464Y-72310258D01*
X88971641Y-72166732D01*
X89117803Y-72046570D01*
X89290057Y-71949020D01*
X89489515Y-71873331D01*
X89717285Y-71818753D01*
X89974477Y-71784535D01*
X90064368Y-71777730D01*
X90215760Y-71772755D01*
X90365814Y-71777235D01*
X90521554Y-71791927D01*
X90690005Y-71817584D01*
X90878193Y-71854962D01*
X91093143Y-71904818D01*
X91142828Y-71916881D01*
X91267601Y-71946565D01*
X91385861Y-71973898D01*
X91490436Y-71997263D01*
X91574154Y-72015047D01*
X91629845Y-72025636D01*
X91758333Y-72046740D01*
X91577695Y-72484549D01*
X91532512Y-72593859D01*
X91488061Y-72700969D01*
X91449923Y-72792418D01*
X91419969Y-72863733D01*
X91400071Y-72910437D01*
X91392103Y-72928058D01*
X91390850Y-72928310D01*
X91367758Y-72920443D01*
X91322353Y-72900283D01*
X91262824Y-72871417D01*
X91139096Y-72815203D01*
X90968837Y-72753740D01*
X90794578Y-72706670D01*
X90623133Y-72675177D01*
X90461317Y-72660443D01*
X90315944Y-72663650D01*
X90193829Y-72685979D01*
X90108601Y-72721409D01*
X90011809Y-72794017D01*
X89937297Y-72892518D01*
X89887199Y-73013883D01*
X89863649Y-73155080D01*
X89855355Y-73285215D01*
X90288285Y-73286400D01*
X90434285Y-73287624D01*
X90595771Y-73291972D01*
X90733725Y-73300178D01*
X90855281Y-73313039D01*
X90967577Y-73331354D01*
X91077747Y-73355919D01*
X91192929Y-73387533D01*
X91365268Y-73447709D01*
X91567975Y-73546806D01*
X91745876Y-73668190D01*
X91897217Y-73810155D01*
X92020243Y-73970993D01*
X92113199Y-74148997D01*
X92174330Y-74342460D01*
X92183904Y-74394565D01*
X92196177Y-74523533D01*
X92197722Y-74646151D01*
X92197990Y-74667437D01*
X92189842Y-74813722D01*
G36*
X104367560Y-76101553D02*
G01*
X104365241Y-76222746D01*
X104362425Y-76325940D01*
X104359064Y-76412635D01*
X104355110Y-76484332D01*
X104350517Y-76542530D01*
X104345238Y-76588730D01*
X104339225Y-76624433D01*
X104332430Y-76651137D01*
X104324808Y-76670345D01*
X104316309Y-76683555D01*
X104306889Y-76692268D01*
X104296498Y-76697985D01*
X104285090Y-76702206D01*
X104272618Y-76706430D01*
X104259034Y-76712159D01*
X104251391Y-76715030D01*
X104237371Y-76718165D01*
X104216538Y-76721037D01*
X104187421Y-76723659D01*
X104148544Y-76726040D01*
X104098434Y-76728194D01*
X104035617Y-76730130D01*
X103958620Y-76731862D01*
X103865969Y-76733400D01*
X103756190Y-76734756D01*
X103627810Y-76735941D01*
X103479354Y-76736968D01*
X103309350Y-76737846D01*
X103116323Y-76738589D01*
X102898800Y-76739207D01*
X102655308Y-76739713D01*
X102384371Y-76740116D01*
X102084517Y-76740430D01*
X101754273Y-76740665D01*
X101392164Y-76740834D01*
X100996716Y-76740947D01*
X100566456Y-76741016D01*
X100430108Y-76741029D01*
X100009186Y-76741038D01*
X99622647Y-76740985D01*
X99269034Y-76740860D01*
X98946890Y-76740652D01*
X98654761Y-76740351D01*
X98391188Y-76739946D01*
X98154716Y-76739426D01*
X97943890Y-76738782D01*
X97757251Y-76738002D01*
X97593345Y-76737076D01*
X97450715Y-76735993D01*
X97327905Y-76734743D01*
X97223458Y-76733315D01*
X97135919Y-76731698D01*
X97063830Y-76729883D01*
X97005736Y-76727858D01*
X96960180Y-76725613D01*
X96925707Y-76723137D01*
X96900859Y-76720420D01*
X96884181Y-76717451D01*
X96874217Y-76714220D01*
X96871046Y-76712782D01*
X96858067Y-76708058D01*
X96846165Y-76704608D01*
X96835292Y-76700930D01*
X96825398Y-76695521D01*
X96816437Y-76686879D01*
X96808359Y-76673502D01*
X96801116Y-76653886D01*
X96794661Y-76626531D01*
X96788945Y-76589933D01*
X96783919Y-76542590D01*
X96779536Y-76483000D01*
X96775747Y-76409659D01*
X96772504Y-76321067D01*
X96769759Y-76215720D01*
X96767463Y-76092117D01*
X96765568Y-75948754D01*
X96764946Y-75882367D01*
X97243373Y-75882367D01*
X97243898Y-75888725D01*
X97253521Y-75893877D01*
X97275264Y-75897950D01*
X97312148Y-75901070D01*
X97367193Y-75903365D01*
X97443419Y-75904959D01*
X97543848Y-75905979D01*
X97671501Y-75906551D01*
X97829398Y-75906802D01*
X98020559Y-75906857D01*
X98821314Y-75906857D01*
X98753621Y-75784393D01*
X98685929Y-75661929D01*
X98685929Y-72105929D01*
X98753621Y-71983465D01*
X98821314Y-71861000D01*
X97389993Y-71861000D01*
X97384818Y-73743322D01*
X97379643Y-75625643D01*
X97328903Y-75734008D01*
X97302151Y-75787719D01*
X97271860Y-75841524D01*
X97248984Y-75874615D01*
X97248926Y-75874679D01*
X97243373Y-75882367D01*
X96764946Y-75882367D01*
X96764026Y-75784129D01*
X96762789Y-75596740D01*
X96761808Y-75385085D01*
X96761035Y-75147661D01*
X96760422Y-74882966D01*
X96759921Y-74589498D01*
X96759484Y-74265753D01*
X96759061Y-73910230D01*
X96758605Y-73521426D01*
X96758068Y-73097840D01*
X96757999Y-73046560D01*
X96757400Y-72625657D01*
X96756827Y-72239362D01*
X96756323Y-71886172D01*
X96755930Y-71564584D01*
X96755690Y-71273094D01*
X96755646Y-71010200D01*
X96755840Y-70774398D01*
X96756314Y-70564186D01*
X96757112Y-70378060D01*
X96758274Y-70214517D01*
X96759844Y-70072055D01*
X96761864Y-69949170D01*
X96764377Y-69844359D01*
X96767424Y-69756119D01*
X96771049Y-69682947D01*
X96775293Y-69623340D01*
X96780198Y-69575795D01*
X96785808Y-69538808D01*
X96792165Y-69510878D01*
X96799311Y-69490500D01*
X96807288Y-69476171D01*
X96816139Y-69466390D01*
X96825906Y-69459651D01*
X96836632Y-69454454D01*
X96848358Y-69449293D01*
X96861128Y-69442667D01*
X96864865Y-69440556D01*
X96921405Y-69420118D01*
X96983300Y-69411717D01*
X97053072Y-69411720D01*
X97054234Y-69570467D01*
X97054529Y-69588735D01*
X97076706Y-69774427D01*
X97133188Y-69949147D01*
X97223192Y-70111043D01*
X97345932Y-70258265D01*
X97411798Y-70318311D01*
X97558454Y-70417838D01*
X97718470Y-70487242D01*
X97887185Y-70526487D01*
X98059939Y-70535537D01*
X98232072Y-70514353D01*
X98398922Y-70462899D01*
X98536080Y-70391429D01*
X99143127Y-70391429D01*
X99222957Y-70448862D01*
X99290470Y-70502841D01*
X99385603Y-70590886D01*
X99493507Y-70701230D01*
X99610097Y-70829670D01*
X99731285Y-70972000D01*
X99762494Y-71010062D01*
X99815629Y-71075343D01*
X99885083Y-71160988D01*
X99968556Y-71264140D01*
X100063746Y-71381939D01*
X100168354Y-71511528D01*
X100280077Y-71650047D01*
X100396615Y-71794639D01*
X100450067Y-71861000D01*
X100515667Y-71942444D01*
X100634932Y-72090603D01*
X100752109Y-72236260D01*
X100864896Y-72376554D01*
X100970994Y-72508627D01*
X101068101Y-72629621D01*
X101153916Y-72736678D01*
X101226138Y-72826938D01*
X101282466Y-72897543D01*
X101320599Y-72945635D01*
X101338237Y-72968355D01*
X101339692Y-72976893D01*
X101334850Y-72993132D01*
X101322302Y-73018679D01*
X101300797Y-73055347D01*
X101269080Y-73104949D01*
X101225900Y-73169295D01*
X101170005Y-73250198D01*
X101100141Y-73349471D01*
X101015057Y-73468926D01*
X100913499Y-73610374D01*
X100794216Y-73775629D01*
X100655954Y-73966501D01*
X100497462Y-74184804D01*
X100371177Y-74358571D01*
X100217105Y-74570407D01*
X100081580Y-74756440D01*
X99963024Y-74918734D01*
X99859861Y-75059354D01*
X99770515Y-75180365D01*
X99693411Y-75283832D01*
X99626972Y-75371818D01*
X99569623Y-75446390D01*
X99519786Y-75509610D01*
X99475886Y-75563545D01*
X99436347Y-75610258D01*
X99399593Y-75651814D01*
X99364047Y-75690279D01*
X99328135Y-75727715D01*
X99290278Y-75766189D01*
X99150771Y-75906857D01*
X101026357Y-75906933D01*
X101020464Y-75793275D01*
X101020179Y-75787564D01*
X101019060Y-75742127D01*
X101021181Y-75698593D01*
X101027958Y-75654576D01*
X101040812Y-75607693D01*
X101061160Y-75555558D01*
X101090420Y-75495786D01*
X101130012Y-75425994D01*
X101181353Y-75343797D01*
X101245862Y-75246809D01*
X101324957Y-75132647D01*
X101420057Y-74998925D01*
X101532581Y-74843260D01*
X101663946Y-74663265D01*
X101815572Y-74456557D01*
X102350786Y-73727911D01*
X102355501Y-74572755D01*
X102355919Y-74651562D01*
X102356656Y-74863832D01*
X102356321Y-75044381D01*
X102354519Y-75196628D01*
X102350856Y-75323988D01*
X102344936Y-75429878D01*
X102336367Y-75517715D01*
X102324751Y-75590916D01*
X102309697Y-75652898D01*
X102290807Y-75707076D01*
X102267689Y-75756869D01*
X102239947Y-75805693D01*
X102207187Y-75856964D01*
X102174256Y-75906857D01*
X103885704Y-75906857D01*
X103841496Y-75847893D01*
X103834572Y-75838565D01*
X103779221Y-75753070D01*
X103741064Y-75666644D01*
X103716008Y-75567613D01*
X103699959Y-75444304D01*
X103699518Y-75438929D01*
X103697189Y-75388067D01*
X103695087Y-75303206D01*
X103693219Y-75186286D01*
X103691596Y-75039246D01*
X103690227Y-74864026D01*
X103689120Y-74662563D01*
X103688285Y-74436798D01*
X103687732Y-74188669D01*
X103687468Y-73920115D01*
X103687503Y-73633077D01*
X103687847Y-73329492D01*
X103688508Y-73011300D01*
X103689209Y-72725881D01*
X103689958Y-72415196D01*
X103690696Y-72137226D01*
X103691515Y-71890022D01*
X103692507Y-71671637D01*
X103693766Y-71480125D01*
X103695383Y-71313537D01*
X103697452Y-71169925D01*
X103700065Y-71047344D01*
X103703315Y-70943844D01*
X103707293Y-70857479D01*
X103712094Y-70786301D01*
X103717809Y-70728363D01*
X103724532Y-70681717D01*
X103732354Y-70644416D01*
X103741368Y-70614512D01*
X103751667Y-70590058D01*
X103763344Y-70569106D01*
X103776492Y-70549709D01*
X103791202Y-70529920D01*
X103807567Y-70507791D01*
X103823396Y-70485615D01*
X103853991Y-70441769D01*
X103872317Y-70414107D01*
X103872759Y-70412949D01*
X103866360Y-70407718D01*
X103843779Y-70403353D01*
X103802502Y-70399788D01*
X103740017Y-70396954D01*
X103653812Y-70394787D01*
X103541373Y-70393217D01*
X103400188Y-70392179D01*
X103227745Y-70391605D01*
X103021530Y-70391429D01*
X102157060Y-70391429D01*
X102202621Y-70445574D01*
X102229026Y-70482763D01*
X102272978Y-70570446D01*
X102311495Y-70679499D01*
X102340893Y-70800468D01*
X102342766Y-70811952D01*
X102348341Y-70872492D01*
X102352563Y-70966056D01*
X102355443Y-71093292D01*
X102356992Y-71254846D01*
X102357221Y-71451368D01*
X102356143Y-71683504D01*
X102350786Y-72458508D01*
X101797429Y-71758742D01*
X101781579Y-71738698D01*
X101641253Y-71561052D01*
X101521453Y-71408914D01*
X101420270Y-71279698D01*
X101335800Y-71170817D01*
X101266135Y-71079685D01*
X101209368Y-71003714D01*
X101163594Y-70940317D01*
X101126906Y-70886908D01*
X101097396Y-70840901D01*
X101073159Y-70799707D01*
X101052288Y-70760741D01*
X101032877Y-70721415D01*
X101003015Y-70651805D01*
X100983724Y-70578372D01*
X100978592Y-70499165D01*
X100979108Y-70391429D01*
X99143127Y-70391429D01*
X98536080Y-70391429D01*
X98555830Y-70381138D01*
X98698136Y-70269032D01*
X98737695Y-70229510D01*
X98854620Y-70083175D01*
X98937588Y-69924367D01*
X98987043Y-69752063D01*
X99003429Y-69565238D01*
X99003429Y-69411715D01*
X101607830Y-69411714D01*
X101770540Y-69411707D01*
X102120089Y-69411660D01*
X102435856Y-69411626D01*
X102719588Y-69411673D01*
X102973031Y-69411872D01*
X103197931Y-69412291D01*
X103396034Y-69412998D01*
X103569087Y-69414065D01*
X103718835Y-69415558D01*
X103847025Y-69417547D01*
X103955403Y-69420102D01*
X104045715Y-69423291D01*
X104119707Y-69427183D01*
X104179125Y-69431848D01*
X104225716Y-69437354D01*
X104261226Y-69443771D01*
X104287400Y-69451167D01*
X104305986Y-69459611D01*
X104318728Y-69469173D01*
X104327374Y-69479922D01*
X104333670Y-69491926D01*
X104339360Y-69505255D01*
X104346193Y-69519978D01*
X104346316Y-69520218D01*
X104349633Y-69529856D01*
X104352676Y-69545993D01*
X104355456Y-69570121D01*
X104357985Y-69603727D01*
X104360274Y-69648301D01*
X104362334Y-69705333D01*
X104364179Y-69776311D01*
X104365817Y-69862725D01*
X104367263Y-69966064D01*
X104368526Y-70087818D01*
X104369619Y-70229475D01*
X104370553Y-70392526D01*
X104371340Y-70578458D01*
X104371991Y-70788762D01*
X104372517Y-71024927D01*
X104372931Y-71288442D01*
X104373244Y-71580797D01*
X104373467Y-71903480D01*
X104373612Y-72257981D01*
X104373691Y-72645789D01*
X104373714Y-73068393D01*
X104373715Y-73151414D01*
X104373755Y-73569614D01*
X104373817Y-73953313D01*
X104373854Y-74304009D01*
X104373817Y-74623204D01*
X104373662Y-74912398D01*
X104373339Y-75173091D01*
X104372801Y-75406784D01*
X104372001Y-75614976D01*
X104370892Y-75799168D01*
X104369916Y-75906857D01*
X104369428Y-75960860D01*
X104367560Y-76101553D01*
G37*
X104367560Y-76101553D02*
X104365241Y-76222746D01*
X104362425Y-76325940D01*
X104359064Y-76412635D01*
X104355110Y-76484332D01*
X104350517Y-76542530D01*
X104345238Y-76588730D01*
X104339225Y-76624433D01*
X104332430Y-76651137D01*
X104324808Y-76670345D01*
X104316309Y-76683555D01*
X104306889Y-76692268D01*
X104296498Y-76697985D01*
X104285090Y-76702206D01*
X104272618Y-76706430D01*
X104259034Y-76712159D01*
X104251391Y-76715030D01*
X104237371Y-76718165D01*
X104216538Y-76721037D01*
X104187421Y-76723659D01*
X104148544Y-76726040D01*
X104098434Y-76728194D01*
X104035617Y-76730130D01*
X103958620Y-76731862D01*
X103865969Y-76733400D01*
X103756190Y-76734756D01*
X103627810Y-76735941D01*
X103479354Y-76736968D01*
X103309350Y-76737846D01*
X103116323Y-76738589D01*
X102898800Y-76739207D01*
X102655308Y-76739713D01*
X102384371Y-76740116D01*
X102084517Y-76740430D01*
X101754273Y-76740665D01*
X101392164Y-76740834D01*
X100996716Y-76740947D01*
X100566456Y-76741016D01*
X100430108Y-76741029D01*
X100009186Y-76741038D01*
X99622647Y-76740985D01*
X99269034Y-76740860D01*
X98946890Y-76740652D01*
X98654761Y-76740351D01*
X98391188Y-76739946D01*
X98154716Y-76739426D01*
X97943890Y-76738782D01*
X97757251Y-76738002D01*
X97593345Y-76737076D01*
X97450715Y-76735993D01*
X97327905Y-76734743D01*
X97223458Y-76733315D01*
X97135919Y-76731698D01*
X97063830Y-76729883D01*
X97005736Y-76727858D01*
X96960180Y-76725613D01*
X96925707Y-76723137D01*
X96900859Y-76720420D01*
X96884181Y-76717451D01*
X96874217Y-76714220D01*
X96871046Y-76712782D01*
X96858067Y-76708058D01*
X96846165Y-76704608D01*
X96835292Y-76700930D01*
X96825398Y-76695521D01*
X96816437Y-76686879D01*
X96808359Y-76673502D01*
X96801116Y-76653886D01*
X96794661Y-76626531D01*
X96788945Y-76589933D01*
X96783919Y-76542590D01*
X96779536Y-76483000D01*
X96775747Y-76409659D01*
X96772504Y-76321067D01*
X96769759Y-76215720D01*
X96767463Y-76092117D01*
X96765568Y-75948754D01*
X96764946Y-75882367D01*
X97243373Y-75882367D01*
X97243898Y-75888725D01*
X97253521Y-75893877D01*
X97275264Y-75897950D01*
X97312148Y-75901070D01*
X97367193Y-75903365D01*
X97443419Y-75904959D01*
X97543848Y-75905979D01*
X97671501Y-75906551D01*
X97829398Y-75906802D01*
X98020559Y-75906857D01*
X98821314Y-75906857D01*
X98753621Y-75784393D01*
X98685929Y-75661929D01*
X98685929Y-72105929D01*
X98753621Y-71983465D01*
X98821314Y-71861000D01*
X97389993Y-71861000D01*
X97384818Y-73743322D01*
X97379643Y-75625643D01*
X97328903Y-75734008D01*
X97302151Y-75787719D01*
X97271860Y-75841524D01*
X97248984Y-75874615D01*
X97248926Y-75874679D01*
X97243373Y-75882367D01*
X96764946Y-75882367D01*
X96764026Y-75784129D01*
X96762789Y-75596740D01*
X96761808Y-75385085D01*
X96761035Y-75147661D01*
X96760422Y-74882966D01*
X96759921Y-74589498D01*
X96759484Y-74265753D01*
X96759061Y-73910230D01*
X96758605Y-73521426D01*
X96758068Y-73097840D01*
X96757999Y-73046560D01*
X96757400Y-72625657D01*
X96756827Y-72239362D01*
X96756323Y-71886172D01*
X96755930Y-71564584D01*
X96755690Y-71273094D01*
X96755646Y-71010200D01*
X96755840Y-70774398D01*
X96756314Y-70564186D01*
X96757112Y-70378060D01*
X96758274Y-70214517D01*
X96759844Y-70072055D01*
X96761864Y-69949170D01*
X96764377Y-69844359D01*
X96767424Y-69756119D01*
X96771049Y-69682947D01*
X96775293Y-69623340D01*
X96780198Y-69575795D01*
X96785808Y-69538808D01*
X96792165Y-69510878D01*
X96799311Y-69490500D01*
X96807288Y-69476171D01*
X96816139Y-69466390D01*
X96825906Y-69459651D01*
X96836632Y-69454454D01*
X96848358Y-69449293D01*
X96861128Y-69442667D01*
X96864865Y-69440556D01*
X96921405Y-69420118D01*
X96983300Y-69411717D01*
X97053072Y-69411720D01*
X97054234Y-69570467D01*
X97054529Y-69588735D01*
X97076706Y-69774427D01*
X97133188Y-69949147D01*
X97223192Y-70111043D01*
X97345932Y-70258265D01*
X97411798Y-70318311D01*
X97558454Y-70417838D01*
X97718470Y-70487242D01*
X97887185Y-70526487D01*
X98059939Y-70535537D01*
X98232072Y-70514353D01*
X98398922Y-70462899D01*
X98536080Y-70391429D01*
X99143127Y-70391429D01*
X99222957Y-70448862D01*
X99290470Y-70502841D01*
X99385603Y-70590886D01*
X99493507Y-70701230D01*
X99610097Y-70829670D01*
X99731285Y-70972000D01*
X99762494Y-71010062D01*
X99815629Y-71075343D01*
X99885083Y-71160988D01*
X99968556Y-71264140D01*
X100063746Y-71381939D01*
X100168354Y-71511528D01*
X100280077Y-71650047D01*
X100396615Y-71794639D01*
X100450067Y-71861000D01*
X100515667Y-71942444D01*
X100634932Y-72090603D01*
X100752109Y-72236260D01*
X100864896Y-72376554D01*
X100970994Y-72508627D01*
X101068101Y-72629621D01*
X101153916Y-72736678D01*
X101226138Y-72826938D01*
X101282466Y-72897543D01*
X101320599Y-72945635D01*
X101338237Y-72968355D01*
X101339692Y-72976893D01*
X101334850Y-72993132D01*
X101322302Y-73018679D01*
X101300797Y-73055347D01*
X101269080Y-73104949D01*
X101225900Y-73169295D01*
X101170005Y-73250198D01*
X101100141Y-73349471D01*
X101015057Y-73468926D01*
X100913499Y-73610374D01*
X100794216Y-73775629D01*
X100655954Y-73966501D01*
X100497462Y-74184804D01*
X100371177Y-74358571D01*
X100217105Y-74570407D01*
X100081580Y-74756440D01*
X99963024Y-74918734D01*
X99859861Y-75059354D01*
X99770515Y-75180365D01*
X99693411Y-75283832D01*
X99626972Y-75371818D01*
X99569623Y-75446390D01*
X99519786Y-75509610D01*
X99475886Y-75563545D01*
X99436347Y-75610258D01*
X99399593Y-75651814D01*
X99364047Y-75690279D01*
X99328135Y-75727715D01*
X99290278Y-75766189D01*
X99150771Y-75906857D01*
X101026357Y-75906933D01*
X101020464Y-75793275D01*
X101020179Y-75787564D01*
X101019060Y-75742127D01*
X101021181Y-75698593D01*
X101027958Y-75654576D01*
X101040812Y-75607693D01*
X101061160Y-75555558D01*
X101090420Y-75495786D01*
X101130012Y-75425994D01*
X101181353Y-75343797D01*
X101245862Y-75246809D01*
X101324957Y-75132647D01*
X101420057Y-74998925D01*
X101532581Y-74843260D01*
X101663946Y-74663265D01*
X101815572Y-74456557D01*
X102350786Y-73727911D01*
X102355501Y-74572755D01*
X102355919Y-74651562D01*
X102356656Y-74863832D01*
X102356321Y-75044381D01*
X102354519Y-75196628D01*
X102350856Y-75323988D01*
X102344936Y-75429878D01*
X102336367Y-75517715D01*
X102324751Y-75590916D01*
X102309697Y-75652898D01*
X102290807Y-75707076D01*
X102267689Y-75756869D01*
X102239947Y-75805693D01*
X102207187Y-75856964D01*
X102174256Y-75906857D01*
X103885704Y-75906857D01*
X103841496Y-75847893D01*
X103834572Y-75838565D01*
X103779221Y-75753070D01*
X103741064Y-75666644D01*
X103716008Y-75567613D01*
X103699959Y-75444304D01*
X103699518Y-75438929D01*
X103697189Y-75388067D01*
X103695087Y-75303206D01*
X103693219Y-75186286D01*
X103691596Y-75039246D01*
X103690227Y-74864026D01*
X103689120Y-74662563D01*
X103688285Y-74436798D01*
X103687732Y-74188669D01*
X103687468Y-73920115D01*
X103687503Y-73633077D01*
X103687847Y-73329492D01*
X103688508Y-73011300D01*
X103689209Y-72725881D01*
X103689958Y-72415196D01*
X103690696Y-72137226D01*
X103691515Y-71890022D01*
X103692507Y-71671637D01*
X103693766Y-71480125D01*
X103695383Y-71313537D01*
X103697452Y-71169925D01*
X103700065Y-71047344D01*
X103703315Y-70943844D01*
X103707293Y-70857479D01*
X103712094Y-70786301D01*
X103717809Y-70728363D01*
X103724532Y-70681717D01*
X103732354Y-70644416D01*
X103741368Y-70614512D01*
X103751667Y-70590058D01*
X103763344Y-70569106D01*
X103776492Y-70549709D01*
X103791202Y-70529920D01*
X103807567Y-70507791D01*
X103823396Y-70485615D01*
X103853991Y-70441769D01*
X103872317Y-70414107D01*
X103872759Y-70412949D01*
X103866360Y-70407718D01*
X103843779Y-70403353D01*
X103802502Y-70399788D01*
X103740017Y-70396954D01*
X103653812Y-70394787D01*
X103541373Y-70393217D01*
X103400188Y-70392179D01*
X103227745Y-70391605D01*
X103021530Y-70391429D01*
X102157060Y-70391429D01*
X102202621Y-70445574D01*
X102229026Y-70482763D01*
X102272978Y-70570446D01*
X102311495Y-70679499D01*
X102340893Y-70800468D01*
X102342766Y-70811952D01*
X102348341Y-70872492D01*
X102352563Y-70966056D01*
X102355443Y-71093292D01*
X102356992Y-71254846D01*
X102357221Y-71451368D01*
X102356143Y-71683504D01*
X102350786Y-72458508D01*
X101797429Y-71758742D01*
X101781579Y-71738698D01*
X101641253Y-71561052D01*
X101521453Y-71408914D01*
X101420270Y-71279698D01*
X101335800Y-71170817D01*
X101266135Y-71079685D01*
X101209368Y-71003714D01*
X101163594Y-70940317D01*
X101126906Y-70886908D01*
X101097396Y-70840901D01*
X101073159Y-70799707D01*
X101052288Y-70760741D01*
X101032877Y-70721415D01*
X101003015Y-70651805D01*
X100983724Y-70578372D01*
X100978592Y-70499165D01*
X100979108Y-70391429D01*
X99143127Y-70391429D01*
X98536080Y-70391429D01*
X98555830Y-70381138D01*
X98698136Y-70269032D01*
X98737695Y-70229510D01*
X98854620Y-70083175D01*
X98937588Y-69924367D01*
X98987043Y-69752063D01*
X99003429Y-69565238D01*
X99003429Y-69411715D01*
X101607830Y-69411714D01*
X101770540Y-69411707D01*
X102120089Y-69411660D01*
X102435856Y-69411626D01*
X102719588Y-69411673D01*
X102973031Y-69411872D01*
X103197931Y-69412291D01*
X103396034Y-69412998D01*
X103569087Y-69414065D01*
X103718835Y-69415558D01*
X103847025Y-69417547D01*
X103955403Y-69420102D01*
X104045715Y-69423291D01*
X104119707Y-69427183D01*
X104179125Y-69431848D01*
X104225716Y-69437354D01*
X104261226Y-69443771D01*
X104287400Y-69451167D01*
X104305986Y-69459611D01*
X104318728Y-69469173D01*
X104327374Y-69479922D01*
X104333670Y-69491926D01*
X104339360Y-69505255D01*
X104346193Y-69519978D01*
X104346316Y-69520218D01*
X104349633Y-69529856D01*
X104352676Y-69545993D01*
X104355456Y-69570121D01*
X104357985Y-69603727D01*
X104360274Y-69648301D01*
X104362334Y-69705333D01*
X104364179Y-69776311D01*
X104365817Y-69862725D01*
X104367263Y-69966064D01*
X104368526Y-70087818D01*
X104369619Y-70229475D01*
X104370553Y-70392526D01*
X104371340Y-70578458D01*
X104371991Y-70788762D01*
X104372517Y-71024927D01*
X104372931Y-71288442D01*
X104373244Y-71580797D01*
X104373467Y-71903480D01*
X104373612Y-72257981D01*
X104373691Y-72645789D01*
X104373714Y-73068393D01*
X104373715Y-73151414D01*
X104373755Y-73569614D01*
X104373817Y-73953313D01*
X104373854Y-74304009D01*
X104373817Y-74623204D01*
X104373662Y-74912398D01*
X104373339Y-75173091D01*
X104372801Y-75406784D01*
X104372001Y-75614976D01*
X104370892Y-75799168D01*
X104369916Y-75906857D01*
X104369428Y-75960860D01*
X104367560Y-76101553D01*
G36*
X99188515Y-77357568D02*
G01*
X99276713Y-77364797D01*
X99350338Y-77377576D01*
X99418081Y-77397361D01*
X99513024Y-77441472D01*
X99581132Y-77498298D01*
X99622169Y-77567615D01*
X99635901Y-77649199D01*
X99634653Y-77690802D01*
X99626941Y-77723816D01*
X99607227Y-77752666D01*
X99569986Y-77789080D01*
X99559364Y-77798837D01*
X99527798Y-77826666D01*
X99497984Y-77849260D01*
X99465986Y-77867837D01*
X99427872Y-77883615D01*
X99379708Y-77897812D01*
X99317560Y-77911647D01*
X99237494Y-77926338D01*
X99135576Y-77943103D01*
X99007874Y-77963161D01*
X98983425Y-77967200D01*
X98900442Y-77985334D01*
X98840241Y-78006281D01*
X98805247Y-78029009D01*
X98797886Y-78052487D01*
X98801375Y-78058172D01*
X98825250Y-78078229D01*
X98862695Y-78100375D01*
X98879736Y-78108351D01*
X98908092Y-78117927D01*
X98943221Y-78124287D01*
X98990943Y-78128040D01*
X99057076Y-78129794D01*
X99147439Y-78130158D01*
X99171117Y-78130061D01*
X99261145Y-78128582D01*
X99347602Y-78125619D01*
X99421659Y-78121537D01*
X99474489Y-78116698D01*
X99521767Y-78111282D01*
X99560712Y-78110240D01*
X99585876Y-78116363D01*
X99605998Y-78130576D01*
X99610866Y-78135359D01*
X99632623Y-78177662D01*
X99630865Y-78225130D01*
X99605627Y-78265895D01*
X99578506Y-78281346D01*
X99530599Y-78298248D01*
X99474118Y-78311628D01*
X99469524Y-78312425D01*
X99412716Y-78319370D01*
X99336313Y-78325193D01*
X99249752Y-78329304D01*
X99162469Y-78331113D01*
X99140857Y-78331169D01*
X99009968Y-78327870D01*
X98903390Y-78317211D01*
X98816612Y-78297864D01*
X98745124Y-78268502D01*
X98684413Y-78227798D01*
X98629969Y-78174424D01*
X98603181Y-78139507D01*
X98587702Y-78100169D01*
X98583830Y-78047292D01*
X98584017Y-78031357D01*
X98589173Y-77987846D01*
X98605662Y-77952531D01*
X98639165Y-77911460D01*
X98667406Y-77881984D01*
X98702549Y-77851967D01*
X98742113Y-77827513D01*
X98790347Y-77807202D01*
X98851500Y-77789612D01*
X98929819Y-77773323D01*
X99029554Y-77756913D01*
X99154954Y-77738962D01*
X99215280Y-77729630D01*
X99305752Y-77710246D01*
X99371169Y-77688280D01*
X99410534Y-77664451D01*
X99422850Y-77639482D01*
X99407118Y-77614093D01*
X99362342Y-77589005D01*
X99358287Y-77587389D01*
X99296566Y-77571309D01*
X99213156Y-77560391D01*
X99115389Y-77554852D01*
X99010598Y-77554909D01*
X98906115Y-77560778D01*
X98809273Y-77572675D01*
X98804045Y-77573539D01*
X98739053Y-77583800D01*
X98696114Y-77588608D01*
X98668159Y-77587813D01*
X98648117Y-77581261D01*
X98628918Y-77568801D01*
X98627361Y-77567642D01*
X98594720Y-77527204D01*
X98588338Y-77479939D01*
X98609383Y-77433899D01*
X98615435Y-77427966D01*
X98654862Y-77407810D01*
X98717412Y-77390338D01*
X98797698Y-77375959D01*
X98890337Y-77365084D01*
X98989942Y-77358121D01*
X99091130Y-77355479D01*
X99188515Y-77357568D01*
G37*
X99188515Y-77357568D02*
X99276713Y-77364797D01*
X99350338Y-77377576D01*
X99418081Y-77397361D01*
X99513024Y-77441472D01*
X99581132Y-77498298D01*
X99622169Y-77567615D01*
X99635901Y-77649199D01*
X99634653Y-77690802D01*
X99626941Y-77723816D01*
X99607227Y-77752666D01*
X99569986Y-77789080D01*
X99559364Y-77798837D01*
X99527798Y-77826666D01*
X99497984Y-77849260D01*
X99465986Y-77867837D01*
X99427872Y-77883615D01*
X99379708Y-77897812D01*
X99317560Y-77911647D01*
X99237494Y-77926338D01*
X99135576Y-77943103D01*
X99007874Y-77963161D01*
X98983425Y-77967200D01*
X98900442Y-77985334D01*
X98840241Y-78006281D01*
X98805247Y-78029009D01*
X98797886Y-78052487D01*
X98801375Y-78058172D01*
X98825250Y-78078229D01*
X98862695Y-78100375D01*
X98879736Y-78108351D01*
X98908092Y-78117927D01*
X98943221Y-78124287D01*
X98990943Y-78128040D01*
X99057076Y-78129794D01*
X99147439Y-78130158D01*
X99171117Y-78130061D01*
X99261145Y-78128582D01*
X99347602Y-78125619D01*
X99421659Y-78121537D01*
X99474489Y-78116698D01*
X99521767Y-78111282D01*
X99560712Y-78110240D01*
X99585876Y-78116363D01*
X99605998Y-78130576D01*
X99610866Y-78135359D01*
X99632623Y-78177662D01*
X99630865Y-78225130D01*
X99605627Y-78265895D01*
X99578506Y-78281346D01*
X99530599Y-78298248D01*
X99474118Y-78311628D01*
X99469524Y-78312425D01*
X99412716Y-78319370D01*
X99336313Y-78325193D01*
X99249752Y-78329304D01*
X99162469Y-78331113D01*
X99140857Y-78331169D01*
X99009968Y-78327870D01*
X98903390Y-78317211D01*
X98816612Y-78297864D01*
X98745124Y-78268502D01*
X98684413Y-78227798D01*
X98629969Y-78174424D01*
X98603181Y-78139507D01*
X98587702Y-78100169D01*
X98583830Y-78047292D01*
X98584017Y-78031357D01*
X98589173Y-77987846D01*
X98605662Y-77952531D01*
X98639165Y-77911460D01*
X98667406Y-77881984D01*
X98702549Y-77851967D01*
X98742113Y-77827513D01*
X98790347Y-77807202D01*
X98851500Y-77789612D01*
X98929819Y-77773323D01*
X99029554Y-77756913D01*
X99154954Y-77738962D01*
X99215280Y-77729630D01*
X99305752Y-77710246D01*
X99371169Y-77688280D01*
X99410534Y-77664451D01*
X99422850Y-77639482D01*
X99407118Y-77614093D01*
X99362342Y-77589005D01*
X99358287Y-77587389D01*
X99296566Y-77571309D01*
X99213156Y-77560391D01*
X99115389Y-77554852D01*
X99010598Y-77554909D01*
X98906115Y-77560778D01*
X98809273Y-77572675D01*
X98804045Y-77573539D01*
X98739053Y-77583800D01*
X98696114Y-77588608D01*
X98668159Y-77587813D01*
X98648117Y-77581261D01*
X98628918Y-77568801D01*
X98627361Y-77567642D01*
X98594720Y-77527204D01*
X98588338Y-77479939D01*
X98609383Y-77433899D01*
X98615435Y-77427966D01*
X98654862Y-77407810D01*
X98717412Y-77390338D01*
X98797698Y-77375959D01*
X98890337Y-77365084D01*
X98989942Y-77358121D01*
X99091130Y-77355479D01*
X99188515Y-77357568D01*
G36*
X88093255Y-74264433D02*
G01*
X88082247Y-74412502D01*
X88063229Y-74548798D01*
X88035349Y-74681375D01*
X87997754Y-74818286D01*
X87940743Y-74981936D01*
X87836036Y-75202857D01*
X87707598Y-75400734D01*
X87557393Y-75573697D01*
X87387387Y-75719876D01*
X87199545Y-75837401D01*
X86995832Y-75924402D01*
X86778212Y-75979009D01*
X86775593Y-75979447D01*
X86616553Y-75994750D01*
X86441809Y-75992707D01*
X86263820Y-75974579D01*
X86095046Y-75941624D01*
X85947948Y-75895101D01*
X85885161Y-75866791D01*
X85803387Y-75823761D01*
X85719359Y-75774546D01*
X85641845Y-75724563D01*
X85579612Y-75679229D01*
X85541429Y-75643960D01*
X85532663Y-75634277D01*
X85522214Y-75630892D01*
X85515229Y-75647696D01*
X85510082Y-75690045D01*
X85505143Y-75763295D01*
X85496072Y-75915929D01*
X84106360Y-75925433D01*
X84154439Y-75843393D01*
X84157305Y-75838543D01*
X84171285Y-75815772D01*
X84183969Y-75795487D01*
X84195423Y-75775925D01*
X84205715Y-75755324D01*
X84214915Y-75731920D01*
X84223090Y-75703953D01*
X84230309Y-75669660D01*
X84236640Y-75627278D01*
X84242151Y-75575046D01*
X84246910Y-75511200D01*
X84250985Y-75433979D01*
X84254446Y-75341620D01*
X84257359Y-75232361D01*
X84259794Y-75104440D01*
X84261818Y-74956094D01*
X84263452Y-74790556D01*
X85586786Y-74790556D01*
X85677500Y-74850057D01*
X85712386Y-74871491D01*
X85792265Y-74914311D01*
X85868000Y-74948410D01*
X85901168Y-74959955D01*
X86006705Y-74983004D01*
X86140143Y-74994773D01*
X86207996Y-74997222D01*
X86270980Y-74996666D01*
X86317866Y-74990375D01*
X86359920Y-74976626D01*
X86408409Y-74953692D01*
X86501595Y-74892259D01*
X86582324Y-74805358D01*
X86646945Y-74693369D01*
X86696073Y-74554539D01*
X86730321Y-74387111D01*
X86750306Y-74189329D01*
X86756641Y-73959440D01*
X86756333Y-73907175D01*
X86747225Y-73665015D01*
X86725109Y-73454302D01*
X86689447Y-73272814D01*
X86639701Y-73118327D01*
X86575333Y-72988619D01*
X86495805Y-72881466D01*
X86462812Y-72848763D01*
X86360560Y-72780632D01*
X86240526Y-72739173D01*
X86107910Y-72724622D01*
X85967913Y-72737214D01*
X85825733Y-72777185D01*
X85686572Y-72844771D01*
X85586786Y-72904584D01*
X85586786Y-74790556D01*
X84263452Y-74790556D01*
X84263501Y-74785562D01*
X84264909Y-74591081D01*
X84266112Y-74370888D01*
X84267177Y-74123221D01*
X84268173Y-73846318D01*
X84269168Y-73538417D01*
X84270231Y-73197756D01*
X84271429Y-72822572D01*
X84280500Y-70055786D01*
X85001679Y-70051042D01*
X85054124Y-70050723D01*
X85208429Y-70050089D01*
X85349564Y-70049961D01*
X85473677Y-70050311D01*
X85576915Y-70051112D01*
X85655426Y-70052340D01*
X85705357Y-70053967D01*
X85722857Y-70055967D01*
X85720618Y-70062305D01*
X85703917Y-70092356D01*
X85676255Y-70136057D01*
X85673495Y-70140235D01*
X85652048Y-70173977D01*
X85634065Y-70206806D01*
X85619242Y-70242105D01*
X85607274Y-70283255D01*
X85597856Y-70333638D01*
X85590683Y-70396634D01*
X85585450Y-70475627D01*
X85581852Y-70573997D01*
X85579584Y-70695126D01*
X85578342Y-70842396D01*
X85577821Y-71019188D01*
X85577714Y-71228884D01*
X85577905Y-71392603D01*
X85578487Y-71553339D01*
X85579419Y-71699083D01*
X85580659Y-71826286D01*
X85582164Y-71931400D01*
X85583893Y-72010875D01*
X85585802Y-72061163D01*
X85587850Y-72078714D01*
X85594455Y-72075990D01*
X85623490Y-72056807D01*
X85664957Y-72025303D01*
X85725072Y-71982936D01*
X85838021Y-71920511D01*
X85967116Y-71864828D01*
X86100309Y-71821525D01*
X86212215Y-71799444D01*
X86351587Y-71785368D01*
X86502426Y-71780492D01*
X86653093Y-71784820D01*
X86791946Y-71798359D01*
X86907345Y-71821115D01*
X87024847Y-71859447D01*
X87220869Y-71952371D01*
X87402371Y-72075908D01*
X87566004Y-72227212D01*
X87708419Y-72403440D01*
X87826270Y-72601746D01*
X87855528Y-72662556D01*
X87937518Y-72867670D01*
X88001619Y-73090285D01*
X88048642Y-73334325D01*
X88079395Y-73603713D01*
X88094690Y-73902374D01*
X88095400Y-73959440D01*
X88097105Y-74096537D01*
X88093255Y-74264433D01*
G37*
X88093255Y-74264433D02*
X88082247Y-74412502D01*
X88063229Y-74548798D01*
X88035349Y-74681375D01*
X87997754Y-74818286D01*
X87940743Y-74981936D01*
X87836036Y-75202857D01*
X87707598Y-75400734D01*
X87557393Y-75573697D01*
X87387387Y-75719876D01*
X87199545Y-75837401D01*
X86995832Y-75924402D01*
X86778212Y-75979009D01*
X86775593Y-75979447D01*
X86616553Y-75994750D01*
X86441809Y-75992707D01*
X86263820Y-75974579D01*
X86095046Y-75941624D01*
X85947948Y-75895101D01*
X85885161Y-75866791D01*
X85803387Y-75823761D01*
X85719359Y-75774546D01*
X85641845Y-75724563D01*
X85579612Y-75679229D01*
X85541429Y-75643960D01*
X85532663Y-75634277D01*
X85522214Y-75630892D01*
X85515229Y-75647696D01*
X85510082Y-75690045D01*
X85505143Y-75763295D01*
X85496072Y-75915929D01*
X84106360Y-75925433D01*
X84154439Y-75843393D01*
X84157305Y-75838543D01*
X84171285Y-75815772D01*
X84183969Y-75795487D01*
X84195423Y-75775925D01*
X84205715Y-75755324D01*
X84214915Y-75731920D01*
X84223090Y-75703953D01*
X84230309Y-75669660D01*
X84236640Y-75627278D01*
X84242151Y-75575046D01*
X84246910Y-75511200D01*
X84250985Y-75433979D01*
X84254446Y-75341620D01*
X84257359Y-75232361D01*
X84259794Y-75104440D01*
X84261818Y-74956094D01*
X84263452Y-74790556D01*
X85586786Y-74790556D01*
X85677500Y-74850057D01*
X85712386Y-74871491D01*
X85792265Y-74914311D01*
X85868000Y-74948410D01*
X85901168Y-74959955D01*
X86006705Y-74983004D01*
X86140143Y-74994773D01*
X86207996Y-74997222D01*
X86270980Y-74996666D01*
X86317866Y-74990375D01*
X86359920Y-74976626D01*
X86408409Y-74953692D01*
X86501595Y-74892259D01*
X86582324Y-74805358D01*
X86646945Y-74693369D01*
X86696073Y-74554539D01*
X86730321Y-74387111D01*
X86750306Y-74189329D01*
X86756641Y-73959440D01*
X86756333Y-73907175D01*
X86747225Y-73665015D01*
X86725109Y-73454302D01*
X86689447Y-73272814D01*
X86639701Y-73118327D01*
X86575333Y-72988619D01*
X86495805Y-72881466D01*
X86462812Y-72848763D01*
X86360560Y-72780632D01*
X86240526Y-72739173D01*
X86107910Y-72724622D01*
X85967913Y-72737214D01*
X85825733Y-72777185D01*
X85686572Y-72844771D01*
X85586786Y-72904584D01*
X85586786Y-74790556D01*
X84263452Y-74790556D01*
X84263501Y-74785562D01*
X84264909Y-74591081D01*
X84266112Y-74370888D01*
X84267177Y-74123221D01*
X84268173Y-73846318D01*
X84269168Y-73538417D01*
X84270231Y-73197756D01*
X84271429Y-72822572D01*
X84280500Y-70055786D01*
X85001679Y-70051042D01*
X85054124Y-70050723D01*
X85208429Y-70050089D01*
X85349564Y-70049961D01*
X85473677Y-70050311D01*
X85576915Y-70051112D01*
X85655426Y-70052340D01*
X85705357Y-70053967D01*
X85722857Y-70055967D01*
X85720618Y-70062305D01*
X85703917Y-70092356D01*
X85676255Y-70136057D01*
X85673495Y-70140235D01*
X85652048Y-70173977D01*
X85634065Y-70206806D01*
X85619242Y-70242105D01*
X85607274Y-70283255D01*
X85597856Y-70333638D01*
X85590683Y-70396634D01*
X85585450Y-70475627D01*
X85581852Y-70573997D01*
X85579584Y-70695126D01*
X85578342Y-70842396D01*
X85577821Y-71019188D01*
X85577714Y-71228884D01*
X85577905Y-71392603D01*
X85578487Y-71553339D01*
X85579419Y-71699083D01*
X85580659Y-71826286D01*
X85582164Y-71931400D01*
X85583893Y-72010875D01*
X85585802Y-72061163D01*
X85587850Y-72078714D01*
X85594455Y-72075990D01*
X85623490Y-72056807D01*
X85664957Y-72025303D01*
X85725072Y-71982936D01*
X85838021Y-71920511D01*
X85967116Y-71864828D01*
X86100309Y-71821525D01*
X86212215Y-71799444D01*
X86351587Y-71785368D01*
X86502426Y-71780492D01*
X86653093Y-71784820D01*
X86791946Y-71798359D01*
X86907345Y-71821115D01*
X87024847Y-71859447D01*
X87220869Y-71952371D01*
X87402371Y-72075908D01*
X87566004Y-72227212D01*
X87708419Y-72403440D01*
X87826270Y-72601746D01*
X87855528Y-72662556D01*
X87937518Y-72867670D01*
X88001619Y-73090285D01*
X88048642Y-73334325D01*
X88079395Y-73603713D01*
X88094690Y-73902374D01*
X88095400Y-73959440D01*
X88097105Y-74096537D01*
X88093255Y-74264433D01*
G36*
X98050579Y-77362264D02*
G01*
X98096051Y-77393301D01*
X98132942Y-77430192D01*
X98132942Y-77846978D01*
X98132887Y-77958852D01*
X98132543Y-78057668D01*
X98131650Y-78133226D01*
X98129949Y-78189104D01*
X98127181Y-78228882D01*
X98123088Y-78256136D01*
X98117409Y-78274447D01*
X98109888Y-78287391D01*
X98100263Y-78298548D01*
X98058374Y-78327125D01*
X98011556Y-78329476D01*
X97967617Y-78303274D01*
X97960551Y-78295461D01*
X97953296Y-78283367D01*
X97947750Y-78265605D01*
X97943683Y-78238690D01*
X97940869Y-78199138D01*
X97939077Y-78143465D01*
X97938081Y-78068185D01*
X97937650Y-77969816D01*
X97937557Y-77844872D01*
X97937610Y-77744140D01*
X97937949Y-77640414D01*
X97938807Y-77560519D01*
X97940410Y-77500971D01*
X97942988Y-77458284D01*
X97946769Y-77428975D01*
X97951982Y-77409559D01*
X97958855Y-77396552D01*
X97967617Y-77386470D01*
X98006470Y-77361145D01*
X98050579Y-77362264D01*
G37*
X98050579Y-77362264D02*
X98096051Y-77393301D01*
X98132942Y-77430192D01*
X98132942Y-77846978D01*
X98132887Y-77958852D01*
X98132543Y-78057668D01*
X98131650Y-78133226D01*
X98129949Y-78189104D01*
X98127181Y-78228882D01*
X98123088Y-78256136D01*
X98117409Y-78274447D01*
X98109888Y-78287391D01*
X98100263Y-78298548D01*
X98058374Y-78327125D01*
X98011556Y-78329476D01*
X97967617Y-78303274D01*
X97960551Y-78295461D01*
X97953296Y-78283367D01*
X97947750Y-78265605D01*
X97943683Y-78238690D01*
X97940869Y-78199138D01*
X97939077Y-78143465D01*
X97938081Y-78068185D01*
X97937650Y-77969816D01*
X97937557Y-77844872D01*
X97937610Y-77744140D01*
X97937949Y-77640414D01*
X97938807Y-77560519D01*
X97940410Y-77500971D01*
X97942988Y-77458284D01*
X97946769Y-77428975D01*
X97951982Y-77409559D01*
X97958855Y-77396552D01*
X97967617Y-77386470D01*
X98006470Y-77361145D01*
X98050579Y-77362264D01*
G36*
X92987449Y-78213950D02*
G01*
X92983550Y-78244466D01*
X92978122Y-78265504D01*
X92970914Y-78280711D01*
X92961674Y-78293733D01*
X92930524Y-78333334D01*
X92709928Y-78332543D01*
X92663602Y-78332146D01*
X92532485Y-78327579D01*
X92424696Y-78317351D01*
X92335369Y-78300632D01*
X92259637Y-78276595D01*
X92192634Y-78244409D01*
X92188162Y-78241857D01*
X92111194Y-78192972D01*
X92054805Y-78143757D01*
X92011115Y-78085862D01*
X91972239Y-78010937D01*
X91966539Y-77998135D01*
X91936480Y-77914012D01*
X91928845Y-77853362D01*
X92127544Y-77853362D01*
X92135017Y-77886284D01*
X92142640Y-77907424D01*
X92186482Y-77987183D01*
X92249506Y-78048097D01*
X92334401Y-78092212D01*
X92443851Y-78121575D01*
X92447570Y-78122243D01*
X92509193Y-78130181D01*
X92584277Y-78135810D01*
X92657418Y-78137949D01*
X92782409Y-78137949D01*
X92782409Y-77551795D01*
X92665930Y-77552392D01*
X92576836Y-77555688D01*
X92453821Y-77570668D01*
X92348224Y-77596682D01*
X92265713Y-77632594D01*
X92224521Y-77660191D01*
X92187083Y-77699820D01*
X92156010Y-77756307D01*
X92146521Y-77777564D01*
X92130779Y-77820836D01*
X92127544Y-77853362D01*
X91928845Y-77853362D01*
X91927199Y-77840284D01*
X91938651Y-77767024D01*
X91970792Y-77684304D01*
X91971851Y-77682050D01*
X92025707Y-77589624D01*
X92093186Y-77514271D01*
X92176697Y-77454935D01*
X92278647Y-77410563D01*
X92401445Y-77380101D01*
X92547499Y-77362493D01*
X92719217Y-77356687D01*
X92723972Y-77356681D01*
X92803881Y-77356867D01*
X92859706Y-77358247D01*
X92897135Y-77361701D01*
X92921857Y-77368108D01*
X92939560Y-77378348D01*
X92955933Y-77393301D01*
X92992824Y-77430192D01*
X92992824Y-77842162D01*
X92992790Y-77924181D01*
X92992490Y-78029072D01*
X92991668Y-78109900D01*
X92990926Y-78137949D01*
X92990071Y-78170311D01*
X92987449Y-78213950D01*
G37*
X92987449Y-78213950D02*
X92983550Y-78244466D01*
X92978122Y-78265504D01*
X92970914Y-78280711D01*
X92961674Y-78293733D01*
X92930524Y-78333334D01*
X92709928Y-78332543D01*
X92663602Y-78332146D01*
X92532485Y-78327579D01*
X92424696Y-78317351D01*
X92335369Y-78300632D01*
X92259637Y-78276595D01*
X92192634Y-78244409D01*
X92188162Y-78241857D01*
X92111194Y-78192972D01*
X92054805Y-78143757D01*
X92011115Y-78085862D01*
X91972239Y-78010937D01*
X91966539Y-77998135D01*
X91936480Y-77914012D01*
X91928845Y-77853362D01*
X92127544Y-77853362D01*
X92135017Y-77886284D01*
X92142640Y-77907424D01*
X92186482Y-77987183D01*
X92249506Y-78048097D01*
X92334401Y-78092212D01*
X92443851Y-78121575D01*
X92447570Y-78122243D01*
X92509193Y-78130181D01*
X92584277Y-78135810D01*
X92657418Y-78137949D01*
X92782409Y-78137949D01*
X92782409Y-77551795D01*
X92665930Y-77552392D01*
X92576836Y-77555688D01*
X92453821Y-77570668D01*
X92348224Y-77596682D01*
X92265713Y-77632594D01*
X92224521Y-77660191D01*
X92187083Y-77699820D01*
X92156010Y-77756307D01*
X92146521Y-77777564D01*
X92130779Y-77820836D01*
X92127544Y-77853362D01*
X91928845Y-77853362D01*
X91927199Y-77840284D01*
X91938651Y-77767024D01*
X91970792Y-77684304D01*
X91971851Y-77682050D01*
X92025707Y-77589624D01*
X92093186Y-77514271D01*
X92176697Y-77454935D01*
X92278647Y-77410563D01*
X92401445Y-77380101D01*
X92547499Y-77362493D01*
X92719217Y-77356687D01*
X92723972Y-77356681D01*
X92803881Y-77356867D01*
X92859706Y-77358247D01*
X92897135Y-77361701D01*
X92921857Y-77368108D01*
X92939560Y-77378348D01*
X92955933Y-77393301D01*
X92992824Y-77430192D01*
X92992824Y-77842162D01*
X92992790Y-77924181D01*
X92992490Y-78029072D01*
X92991668Y-78109900D01*
X92990926Y-78137949D01*
X92990071Y-78170311D01*
X92987449Y-78213950D01*
G36*
X95848184Y-77354846D02*
G01*
X95863372Y-77363017D01*
X95877416Y-77377212D01*
X95892443Y-77396011D01*
X95898371Y-77403948D01*
X95906357Y-77417920D01*
X95912454Y-77436327D01*
X95916916Y-77462827D01*
X95919997Y-77501083D01*
X95921951Y-77554755D01*
X95923033Y-77627503D01*
X95923495Y-77722988D01*
X95923593Y-77844872D01*
X95923562Y-77922797D01*
X95923272Y-78028091D01*
X95922461Y-78109227D01*
X95920875Y-78169866D01*
X95918262Y-78213669D01*
X95914366Y-78244296D01*
X95908933Y-78265409D01*
X95901710Y-78280667D01*
X95892443Y-78293733D01*
X95851931Y-78326209D01*
X95805410Y-78330042D01*
X95756175Y-78304626D01*
X95750605Y-78300000D01*
X95739720Y-78288646D01*
X95731651Y-78273268D01*
X95725816Y-78249526D01*
X95721633Y-78213084D01*
X95718521Y-78159604D01*
X95715897Y-78084747D01*
X95713179Y-77984177D01*
X95705664Y-77692435D01*
X95352469Y-78012814D01*
X95254169Y-78101718D01*
X95167391Y-78179091D01*
X95097902Y-78238946D01*
X95043217Y-78282777D01*
X95000854Y-78312077D01*
X94968332Y-78328340D01*
X94943166Y-78333060D01*
X94922875Y-78327731D01*
X94904976Y-78313846D01*
X94886987Y-78292899D01*
X94878672Y-78281605D01*
X94871174Y-78267523D01*
X94865568Y-78248673D01*
X94861638Y-78221443D01*
X94859168Y-78182221D01*
X94857944Y-78127394D01*
X94857751Y-78053348D01*
X94858373Y-77956471D01*
X94859594Y-77833150D01*
X94864007Y-77413835D01*
X94899489Y-77385123D01*
X94934191Y-77363566D01*
X94977937Y-77359877D01*
X95023910Y-77385110D01*
X95029651Y-77389882D01*
X95040478Y-77401238D01*
X95048505Y-77416671D01*
X95054310Y-77440510D01*
X95058474Y-77477084D01*
X95061576Y-77530722D01*
X95064193Y-77605754D01*
X95066906Y-77706508D01*
X95074421Y-77999207D01*
X95314895Y-77781138D01*
X95430374Y-77676448D01*
X95531253Y-77585392D01*
X95613979Y-77511702D01*
X95680678Y-77453960D01*
X95733476Y-77410749D01*
X95774499Y-77380649D01*
X95805874Y-77362244D01*
X95829727Y-77354116D01*
X95848184Y-77354846D01*
G37*
X95848184Y-77354846D02*
X95863372Y-77363017D01*
X95877416Y-77377212D01*
X95892443Y-77396011D01*
X95898371Y-77403948D01*
X95906357Y-77417920D01*
X95912454Y-77436327D01*
X95916916Y-77462827D01*
X95919997Y-77501083D01*
X95921951Y-77554755D01*
X95923033Y-77627503D01*
X95923495Y-77722988D01*
X95923593Y-77844872D01*
X95923562Y-77922797D01*
X95923272Y-78028091D01*
X95922461Y-78109227D01*
X95920875Y-78169866D01*
X95918262Y-78213669D01*
X95914366Y-78244296D01*
X95908933Y-78265409D01*
X95901710Y-78280667D01*
X95892443Y-78293733D01*
X95851931Y-78326209D01*
X95805410Y-78330042D01*
X95756175Y-78304626D01*
X95750605Y-78300000D01*
X95739720Y-78288646D01*
X95731651Y-78273268D01*
X95725816Y-78249526D01*
X95721633Y-78213084D01*
X95718521Y-78159604D01*
X95715897Y-78084747D01*
X95713179Y-77984177D01*
X95705664Y-77692435D01*
X95352469Y-78012814D01*
X95254169Y-78101718D01*
X95167391Y-78179091D01*
X95097902Y-78238946D01*
X95043217Y-78282777D01*
X95000854Y-78312077D01*
X94968332Y-78328340D01*
X94943166Y-78333060D01*
X94922875Y-78327731D01*
X94904976Y-78313846D01*
X94886987Y-78292899D01*
X94878672Y-78281605D01*
X94871174Y-78267523D01*
X94865568Y-78248673D01*
X94861638Y-78221443D01*
X94859168Y-78182221D01*
X94857944Y-78127394D01*
X94857751Y-78053348D01*
X94858373Y-77956471D01*
X94859594Y-77833150D01*
X94864007Y-77413835D01*
X94899489Y-77385123D01*
X94934191Y-77363566D01*
X94977937Y-77359877D01*
X95023910Y-77385110D01*
X95029651Y-77389882D01*
X95040478Y-77401238D01*
X95048505Y-77416671D01*
X95054310Y-77440510D01*
X95058474Y-77477084D01*
X95061576Y-77530722D01*
X95064193Y-77605754D01*
X95066906Y-77706508D01*
X95074421Y-77999207D01*
X95314895Y-77781138D01*
X95430374Y-77676448D01*
X95531253Y-77585392D01*
X95613979Y-77511702D01*
X95680678Y-77453960D01*
X95733476Y-77410749D01*
X95774499Y-77380649D01*
X95805874Y-77362244D01*
X95829727Y-77354116D01*
X95848184Y-77354846D01*
G36*
X88557002Y-77364242D02*
G01*
X88591247Y-77385142D01*
X88626729Y-77413873D01*
X88626729Y-78275871D01*
X88591247Y-78304602D01*
X88549495Y-78327867D01*
X88501832Y-78328980D01*
X88459976Y-78301696D01*
X88454815Y-78295486D01*
X88447538Y-78282881D01*
X88441937Y-78264666D01*
X88437794Y-78237347D01*
X88434892Y-78197433D01*
X88433014Y-78141430D01*
X88431941Y-78065847D01*
X88431457Y-77967190D01*
X88431344Y-77841966D01*
X88431344Y-77413873D01*
X88466826Y-77385142D01*
X88498396Y-77365477D01*
X88529037Y-77356410D01*
X88557002Y-77364242D01*
G37*
X88557002Y-77364242D02*
X88591247Y-77385142D01*
X88626729Y-77413873D01*
X88626729Y-78275871D01*
X88591247Y-78304602D01*
X88549495Y-78327867D01*
X88501832Y-78328980D01*
X88459976Y-78301696D01*
X88454815Y-78295486D01*
X88447538Y-78282881D01*
X88441937Y-78264666D01*
X88437794Y-78237347D01*
X88434892Y-78197433D01*
X88433014Y-78141430D01*
X88431941Y-78065847D01*
X88431457Y-77967190D01*
X88431344Y-77841966D01*
X88431344Y-77413873D01*
X88466826Y-77385142D01*
X88498396Y-77365477D01*
X88529037Y-77356410D01*
X88557002Y-77364242D01*
G36*
X94314336Y-77396011D02*
G01*
X94320925Y-77404910D01*
X94328706Y-77418984D01*
X94334645Y-77437739D01*
X94338991Y-77464799D01*
X94341990Y-77503790D01*
X94343892Y-77558339D01*
X94344943Y-77632069D01*
X94345392Y-77728608D01*
X94345486Y-77851580D01*
X94345448Y-77939339D01*
X94345139Y-78043607D01*
X94344313Y-78123845D01*
X94342725Y-78183621D01*
X94340132Y-78226502D01*
X94336291Y-78256056D01*
X94330958Y-78275852D01*
X94323890Y-78289457D01*
X94314842Y-78300440D01*
X94308831Y-78306641D01*
X94297874Y-78315277D01*
X94282750Y-78321816D01*
X94259760Y-78326550D01*
X94225204Y-78329769D01*
X94175386Y-78331766D01*
X94106604Y-78332831D01*
X94015161Y-78333256D01*
X93897357Y-78333334D01*
X93871163Y-78333325D01*
X93755302Y-78332970D01*
X93665232Y-78331951D01*
X93597393Y-78330068D01*
X93548224Y-78327123D01*
X93514162Y-78322919D01*
X93491646Y-78317256D01*
X93477115Y-78309937D01*
X93463145Y-78296642D01*
X93445490Y-78255214D01*
X93447064Y-78207434D01*
X93468585Y-78165434D01*
X93471500Y-78162404D01*
X93483066Y-78154059D01*
X93500829Y-78147847D01*
X93528765Y-78143458D01*
X93570851Y-78140584D01*
X93631065Y-78138914D01*
X93713382Y-78138139D01*
X93821780Y-78137949D01*
X94150102Y-78137949D01*
X94150102Y-77927535D01*
X93933838Y-77927535D01*
X93886350Y-77927428D01*
X93812100Y-77926366D01*
X93759993Y-77923697D01*
X93724774Y-77918849D01*
X93701185Y-77911249D01*
X93683971Y-77900325D01*
X93679121Y-77896086D01*
X93654614Y-77854847D01*
X93653770Y-77806471D01*
X93677120Y-77761711D01*
X93677203Y-77761620D01*
X93690078Y-77750135D01*
X93707777Y-77742073D01*
X93735346Y-77736839D01*
X93777831Y-77733837D01*
X93840279Y-77732473D01*
X93927737Y-77732150D01*
X94151602Y-77732150D01*
X94147094Y-77645730D01*
X94142587Y-77559310D01*
X93820295Y-77555245D01*
X93786989Y-77554809D01*
X93678324Y-77552839D01*
X93595354Y-77549665D01*
X93534626Y-77544345D01*
X93492685Y-77535940D01*
X93466078Y-77523506D01*
X93451349Y-77506103D01*
X93445045Y-77482790D01*
X93443711Y-77452626D01*
X93443719Y-77449476D01*
X93445255Y-77422808D01*
X93451643Y-77401782D01*
X93466032Y-77385731D01*
X93491573Y-77373984D01*
X93531419Y-77365874D01*
X93588718Y-77360730D01*
X93666623Y-77357884D01*
X93768284Y-77356667D01*
X93896852Y-77356410D01*
X94283186Y-77356410D01*
X94314336Y-77396011D01*
G37*
X94314336Y-77396011D02*
X94320925Y-77404910D01*
X94328706Y-77418984D01*
X94334645Y-77437739D01*
X94338991Y-77464799D01*
X94341990Y-77503790D01*
X94343892Y-77558339D01*
X94344943Y-77632069D01*
X94345392Y-77728608D01*
X94345486Y-77851580D01*
X94345448Y-77939339D01*
X94345139Y-78043607D01*
X94344313Y-78123845D01*
X94342725Y-78183621D01*
X94340132Y-78226502D01*
X94336291Y-78256056D01*
X94330958Y-78275852D01*
X94323890Y-78289457D01*
X94314842Y-78300440D01*
X94308831Y-78306641D01*
X94297874Y-78315277D01*
X94282750Y-78321816D01*
X94259760Y-78326550D01*
X94225204Y-78329769D01*
X94175386Y-78331766D01*
X94106604Y-78332831D01*
X94015161Y-78333256D01*
X93897357Y-78333334D01*
X93871163Y-78333325D01*
X93755302Y-78332970D01*
X93665232Y-78331951D01*
X93597393Y-78330068D01*
X93548224Y-78327123D01*
X93514162Y-78322919D01*
X93491646Y-78317256D01*
X93477115Y-78309937D01*
X93463145Y-78296642D01*
X93445490Y-78255214D01*
X93447064Y-78207434D01*
X93468585Y-78165434D01*
X93471500Y-78162404D01*
X93483066Y-78154059D01*
X93500829Y-78147847D01*
X93528765Y-78143458D01*
X93570851Y-78140584D01*
X93631065Y-78138914D01*
X93713382Y-78138139D01*
X93821780Y-78137949D01*
X94150102Y-78137949D01*
X94150102Y-77927535D01*
X93933838Y-77927535D01*
X93886350Y-77927428D01*
X93812100Y-77926366D01*
X93759993Y-77923697D01*
X93724774Y-77918849D01*
X93701185Y-77911249D01*
X93683971Y-77900325D01*
X93679121Y-77896086D01*
X93654614Y-77854847D01*
X93653770Y-77806471D01*
X93677120Y-77761711D01*
X93677203Y-77761620D01*
X93690078Y-77750135D01*
X93707777Y-77742073D01*
X93735346Y-77736839D01*
X93777831Y-77733837D01*
X93840279Y-77732473D01*
X93927737Y-77732150D01*
X94151602Y-77732150D01*
X94147094Y-77645730D01*
X94142587Y-77559310D01*
X93820295Y-77555245D01*
X93786989Y-77554809D01*
X93678324Y-77552839D01*
X93595354Y-77549665D01*
X93534626Y-77544345D01*
X93492685Y-77535940D01*
X93466078Y-77523506D01*
X93451349Y-77506103D01*
X93445045Y-77482790D01*
X93443711Y-77452626D01*
X93443719Y-77449476D01*
X93445255Y-77422808D01*
X93451643Y-77401782D01*
X93466032Y-77385731D01*
X93491573Y-77373984D01*
X93531419Y-77365874D01*
X93588718Y-77360730D01*
X93666623Y-77357884D01*
X93768284Y-77356667D01*
X93896852Y-77356410D01*
X94283186Y-77356410D01*
X94314336Y-77396011D01*
G36*
X96909621Y-77363217D02*
G01*
X97050754Y-77384938D01*
X97175652Y-77422285D01*
X97280557Y-77474083D01*
X97361709Y-77539162D01*
X97396418Y-77582913D01*
X97435703Y-77648414D01*
X97469349Y-77720119D01*
X97492847Y-77788241D01*
X97501688Y-77842993D01*
X97499611Y-77869241D01*
X97482381Y-77937583D01*
X97451543Y-78012840D01*
X97411746Y-78084622D01*
X97367640Y-78142542D01*
X97354065Y-78156319D01*
X97264750Y-78225250D01*
X97158074Y-78278362D01*
X97043297Y-78310849D01*
X96970120Y-78321649D01*
X96845700Y-78330442D01*
X96726170Y-78327663D01*
X96616346Y-78314023D01*
X96521044Y-78290232D01*
X96445079Y-78256998D01*
X96393267Y-78215033D01*
X96391436Y-78212403D01*
X96382000Y-78178818D01*
X96376356Y-78115910D01*
X96374480Y-78023428D01*
X96375625Y-77940574D01*
X96381909Y-77877491D01*
X96397472Y-77834750D01*
X96426455Y-77808719D01*
X96472998Y-77795764D01*
X96541241Y-77792253D01*
X96635324Y-77794554D01*
X96700055Y-77798564D01*
X96766884Y-77809471D01*
X96810145Y-77828181D01*
X96833389Y-77856453D01*
X96840167Y-77896048D01*
X96840026Y-77902094D01*
X96828440Y-77948417D01*
X96796475Y-77979594D01*
X96741536Y-77997168D01*
X96661031Y-78002683D01*
X96569865Y-78002683D01*
X96569865Y-78053743D01*
X96569932Y-78065906D01*
X96572888Y-78088873D01*
X96585226Y-78102578D01*
X96613692Y-78111814D01*
X96665031Y-78121376D01*
X96672319Y-78122620D01*
X96801395Y-78135805D01*
X96921206Y-78131918D01*
X97028924Y-78112307D01*
X97121718Y-78078317D01*
X97196760Y-78031293D01*
X97251220Y-77972581D01*
X97282270Y-77903527D01*
X97287079Y-77825478D01*
X97279732Y-77787008D01*
X97244207Y-77712599D01*
X97182713Y-77651810D01*
X97096199Y-77605431D01*
X96985614Y-77574252D01*
X96952763Y-77568329D01*
X96833834Y-77554351D01*
X96727582Y-77555987D01*
X96623613Y-77573209D01*
X96576824Y-77582248D01*
X96516330Y-77583603D01*
X96474639Y-77566919D01*
X96447807Y-77531256D01*
X96439308Y-77493649D01*
X96451938Y-77452078D01*
X96464358Y-77434204D01*
X96509936Y-77402875D01*
X96579995Y-77379082D01*
X96671216Y-77363776D01*
X96780279Y-77357909D01*
X96909621Y-77363217D01*
G37*
X96909621Y-77363217D02*
X97050754Y-77384938D01*
X97175652Y-77422285D01*
X97280557Y-77474083D01*
X97361709Y-77539162D01*
X97396418Y-77582913D01*
X97435703Y-77648414D01*
X97469349Y-77720119D01*
X97492847Y-77788241D01*
X97501688Y-77842993D01*
X97499611Y-77869241D01*
X97482381Y-77937583D01*
X97451543Y-78012840D01*
X97411746Y-78084622D01*
X97367640Y-78142542D01*
X97354065Y-78156319D01*
X97264750Y-78225250D01*
X97158074Y-78278362D01*
X97043297Y-78310849D01*
X96970120Y-78321649D01*
X96845700Y-78330442D01*
X96726170Y-78327663D01*
X96616346Y-78314023D01*
X96521044Y-78290232D01*
X96445079Y-78256998D01*
X96393267Y-78215033D01*
X96391436Y-78212403D01*
X96382000Y-78178818D01*
X96376356Y-78115910D01*
X96374480Y-78023428D01*
X96375625Y-77940574D01*
X96381909Y-77877491D01*
X96397472Y-77834750D01*
X96426455Y-77808719D01*
X96472998Y-77795764D01*
X96541241Y-77792253D01*
X96635324Y-77794554D01*
X96700055Y-77798564D01*
X96766884Y-77809471D01*
X96810145Y-77828181D01*
X96833389Y-77856453D01*
X96840167Y-77896048D01*
X96840026Y-77902094D01*
X96828440Y-77948417D01*
X96796475Y-77979594D01*
X96741536Y-77997168D01*
X96661031Y-78002683D01*
X96569865Y-78002683D01*
X96569865Y-78053743D01*
X96569932Y-78065906D01*
X96572888Y-78088873D01*
X96585226Y-78102578D01*
X96613692Y-78111814D01*
X96665031Y-78121376D01*
X96672319Y-78122620D01*
X96801395Y-78135805D01*
X96921206Y-78131918D01*
X97028924Y-78112307D01*
X97121718Y-78078317D01*
X97196760Y-78031293D01*
X97251220Y-77972581D01*
X97282270Y-77903527D01*
X97287079Y-77825478D01*
X97279732Y-77787008D01*
X97244207Y-77712599D01*
X97182713Y-77651810D01*
X97096199Y-77605431D01*
X96985614Y-77574252D01*
X96952763Y-77568329D01*
X96833834Y-77554351D01*
X96727582Y-77555987D01*
X96623613Y-77573209D01*
X96576824Y-77582248D01*
X96516330Y-77583603D01*
X96474639Y-77566919D01*
X96447807Y-77531256D01*
X96439308Y-77493649D01*
X96451938Y-77452078D01*
X96464358Y-77434204D01*
X96509936Y-77402875D01*
X96579995Y-77379082D01*
X96671216Y-77363776D01*
X96780279Y-77357909D01*
X96909621Y-77363217D01*
G36*
X86725486Y-77386470D02*
G01*
X86732985Y-77394711D01*
X86739762Y-77405636D01*
X86745202Y-77421315D01*
X86749434Y-77444559D01*
X86752584Y-77478181D01*
X86754782Y-77524992D01*
X86756155Y-77587803D01*
X86756832Y-77669427D01*
X86756940Y-77772674D01*
X86756608Y-77900357D01*
X86755964Y-78055286D01*
X86755872Y-78074158D01*
X86755092Y-78156386D01*
X86753331Y-78214544D01*
X86749942Y-78253660D01*
X86744277Y-78278761D01*
X86735688Y-78294876D01*
X86723527Y-78307032D01*
X86678983Y-78330220D01*
X86632454Y-78326357D01*
X86591311Y-78293733D01*
X86579316Y-78276155D01*
X86569396Y-78251477D01*
X86563581Y-78216824D01*
X86560845Y-78165505D01*
X86560161Y-78090833D01*
X86560161Y-77927535D01*
X85898859Y-77927535D01*
X85898859Y-78107038D01*
X85898762Y-78154688D01*
X85897747Y-78216370D01*
X85894849Y-78257022D01*
X85889128Y-78282358D01*
X85879644Y-78298092D01*
X85865456Y-78309937D01*
X85822518Y-78330000D01*
X85775539Y-78326449D01*
X85734625Y-78293733D01*
X85728426Y-78285405D01*
X85720524Y-78271394D01*
X85714491Y-78252848D01*
X85710077Y-78226123D01*
X85707029Y-78187570D01*
X85705097Y-78133544D01*
X85704028Y-78060398D01*
X85703571Y-77964486D01*
X85703475Y-77842162D01*
X85703475Y-77430192D01*
X85740365Y-77393301D01*
X85782141Y-77363688D01*
X85826381Y-77360107D01*
X85868800Y-77386470D01*
X85879831Y-77399478D01*
X85889699Y-77420636D01*
X85895474Y-77452545D01*
X85898184Y-77501636D01*
X85898859Y-77574339D01*
X85898859Y-77732150D01*
X86560161Y-77732150D01*
X86560161Y-77578360D01*
X86560744Y-77509533D01*
X86563359Y-77463568D01*
X86569371Y-77433511D01*
X86580147Y-77412407D01*
X86597052Y-77393301D01*
X86638828Y-77363688D01*
X86683067Y-77360107D01*
X86725486Y-77386470D01*
G37*
X86725486Y-77386470D02*
X86732985Y-77394711D01*
X86739762Y-77405636D01*
X86745202Y-77421315D01*
X86749434Y-77444559D01*
X86752584Y-77478181D01*
X86754782Y-77524992D01*
X86756155Y-77587803D01*
X86756832Y-77669427D01*
X86756940Y-77772674D01*
X86756608Y-77900357D01*
X86755964Y-78055286D01*
X86755872Y-78074158D01*
X86755092Y-78156386D01*
X86753331Y-78214544D01*
X86749942Y-78253660D01*
X86744277Y-78278761D01*
X86735688Y-78294876D01*
X86723527Y-78307032D01*
X86678983Y-78330220D01*
X86632454Y-78326357D01*
X86591311Y-78293733D01*
X86579316Y-78276155D01*
X86569396Y-78251477D01*
X86563581Y-78216824D01*
X86560845Y-78165505D01*
X86560161Y-78090833D01*
X86560161Y-77927535D01*
X85898859Y-77927535D01*
X85898859Y-78107038D01*
X85898762Y-78154688D01*
X85897747Y-78216370D01*
X85894849Y-78257022D01*
X85889128Y-78282358D01*
X85879644Y-78298092D01*
X85865456Y-78309937D01*
X85822518Y-78330000D01*
X85775539Y-78326449D01*
X85734625Y-78293733D01*
X85728426Y-78285405D01*
X85720524Y-78271394D01*
X85714491Y-78252848D01*
X85710077Y-78226123D01*
X85707029Y-78187570D01*
X85705097Y-78133544D01*
X85704028Y-78060398D01*
X85703571Y-77964486D01*
X85703475Y-77842162D01*
X85703475Y-77430192D01*
X85740365Y-77393301D01*
X85782141Y-77363688D01*
X85826381Y-77360107D01*
X85868800Y-77386470D01*
X85879831Y-77399478D01*
X85889699Y-77420636D01*
X85895474Y-77452545D01*
X85898184Y-77501636D01*
X85898859Y-77574339D01*
X85898859Y-77732150D01*
X86560161Y-77732150D01*
X86560161Y-77578360D01*
X86560744Y-77509533D01*
X86563359Y-77463568D01*
X86569371Y-77433511D01*
X86580147Y-77412407D01*
X86597052Y-77393301D01*
X86638828Y-77363688D01*
X86683067Y-77360107D01*
X86725486Y-77386470D01*
G36*
X89135208Y-77368940D02*
G01*
X89159119Y-77393585D01*
X89186546Y-77434966D01*
X89219607Y-77495790D01*
X89260420Y-77578763D01*
X89311104Y-77686594D01*
X89330587Y-77728376D01*
X89370193Y-77812496D01*
X89404935Y-77885196D01*
X89432886Y-77942507D01*
X89452120Y-77980455D01*
X89460711Y-77995069D01*
X89462520Y-77994296D01*
X89475823Y-77975727D01*
X89498844Y-77936401D01*
X89528928Y-77880994D01*
X89563422Y-77814180D01*
X89584687Y-77772258D01*
X89623230Y-77698562D01*
X89653170Y-77646617D01*
X89677422Y-77612697D01*
X89698898Y-77593079D01*
X89720512Y-77584040D01*
X89745177Y-77581854D01*
X89759160Y-77582487D01*
X89780616Y-77588088D01*
X89801005Y-77602552D01*
X89823103Y-77629542D01*
X89849689Y-77672725D01*
X89883540Y-77735765D01*
X89927434Y-77822328D01*
X89940392Y-77847963D01*
X89972954Y-77910096D01*
X89999895Y-77958241D01*
X90018710Y-77988049D01*
X90026897Y-77995168D01*
X90028717Y-77990813D01*
X90041198Y-77962975D01*
X90063646Y-77913796D01*
X90094156Y-77847426D01*
X90130823Y-77768014D01*
X90171742Y-77679707D01*
X90207309Y-77603525D01*
X90246749Y-77520995D01*
X90277465Y-77460100D01*
X90301401Y-77417442D01*
X90320502Y-77389625D01*
X90336713Y-77373253D01*
X90351978Y-77364931D01*
X90364506Y-77361080D01*
X90397930Y-77360882D01*
X90434067Y-77381308D01*
X90435798Y-77382620D01*
X90465200Y-77412756D01*
X90479909Y-77442345D01*
X90479971Y-77443197D01*
X90473926Y-77466711D01*
X90456799Y-77512731D01*
X90430493Y-77577096D01*
X90396910Y-77655645D01*
X90357952Y-77744221D01*
X90315522Y-77838661D01*
X90271522Y-77934807D01*
X90227854Y-78028499D01*
X90186420Y-78115576D01*
X90149123Y-78191880D01*
X90117864Y-78253249D01*
X90094546Y-78295525D01*
X90081071Y-78314547D01*
X90035262Y-78332345D01*
X89979748Y-78323876D01*
X89972606Y-78317622D01*
X89951532Y-78288131D01*
X89921973Y-78239190D01*
X89886803Y-78175661D01*
X89848894Y-78102407D01*
X89742686Y-77890397D01*
X89645248Y-78085563D01*
X89632340Y-78111246D01*
X89596421Y-78180940D01*
X89564431Y-78240571D01*
X89539449Y-78284486D01*
X89524556Y-78307032D01*
X89523030Y-78308687D01*
X89485591Y-78329039D01*
X89438911Y-78331280D01*
X89397584Y-78314547D01*
X89394354Y-78310754D01*
X89378031Y-78283294D01*
X89351754Y-78233300D01*
X89317266Y-78164298D01*
X89276310Y-78079814D01*
X89230630Y-77983373D01*
X89181969Y-77878503D01*
X89155022Y-77819759D01*
X89106064Y-77712281D01*
X89068178Y-77627502D01*
X89040187Y-77562353D01*
X89020912Y-77513764D01*
X89009178Y-77478667D01*
X89003805Y-77453992D01*
X89003616Y-77436672D01*
X89007434Y-77423636D01*
X89026948Y-77395834D01*
X89062366Y-77368806D01*
X89063372Y-77368350D01*
X89089453Y-77359030D01*
X89112692Y-77358324D01*
X89135208Y-77368940D01*
G37*
X89135208Y-77368940D02*
X89159119Y-77393585D01*
X89186546Y-77434966D01*
X89219607Y-77495790D01*
X89260420Y-77578763D01*
X89311104Y-77686594D01*
X89330587Y-77728376D01*
X89370193Y-77812496D01*
X89404935Y-77885196D01*
X89432886Y-77942507D01*
X89452120Y-77980455D01*
X89460711Y-77995069D01*
X89462520Y-77994296D01*
X89475823Y-77975727D01*
X89498844Y-77936401D01*
X89528928Y-77880994D01*
X89563422Y-77814180D01*
X89584687Y-77772258D01*
X89623230Y-77698562D01*
X89653170Y-77646617D01*
X89677422Y-77612697D01*
X89698898Y-77593079D01*
X89720512Y-77584040D01*
X89745177Y-77581854D01*
X89759160Y-77582487D01*
X89780616Y-77588088D01*
X89801005Y-77602552D01*
X89823103Y-77629542D01*
X89849689Y-77672725D01*
X89883540Y-77735765D01*
X89927434Y-77822328D01*
X89940392Y-77847963D01*
X89972954Y-77910096D01*
X89999895Y-77958241D01*
X90018710Y-77988049D01*
X90026897Y-77995168D01*
X90028717Y-77990813D01*
X90041198Y-77962975D01*
X90063646Y-77913796D01*
X90094156Y-77847426D01*
X90130823Y-77768014D01*
X90171742Y-77679707D01*
X90207309Y-77603525D01*
X90246749Y-77520995D01*
X90277465Y-77460100D01*
X90301401Y-77417442D01*
X90320502Y-77389625D01*
X90336713Y-77373253D01*
X90351978Y-77364931D01*
X90364506Y-77361080D01*
X90397930Y-77360882D01*
X90434067Y-77381308D01*
X90435798Y-77382620D01*
X90465200Y-77412756D01*
X90479909Y-77442345D01*
X90479971Y-77443197D01*
X90473926Y-77466711D01*
X90456799Y-77512731D01*
X90430493Y-77577096D01*
X90396910Y-77655645D01*
X90357952Y-77744221D01*
X90315522Y-77838661D01*
X90271522Y-77934807D01*
X90227854Y-78028499D01*
X90186420Y-78115576D01*
X90149123Y-78191880D01*
X90117864Y-78253249D01*
X90094546Y-78295525D01*
X90081071Y-78314547D01*
X90035262Y-78332345D01*
X89979748Y-78323876D01*
X89972606Y-78317622D01*
X89951532Y-78288131D01*
X89921973Y-78239190D01*
X89886803Y-78175661D01*
X89848894Y-78102407D01*
X89742686Y-77890397D01*
X89645248Y-78085563D01*
X89632340Y-78111246D01*
X89596421Y-78180940D01*
X89564431Y-78240571D01*
X89539449Y-78284486D01*
X89524556Y-78307032D01*
X89523030Y-78308687D01*
X89485591Y-78329039D01*
X89438911Y-78331280D01*
X89397584Y-78314547D01*
X89394354Y-78310754D01*
X89378031Y-78283294D01*
X89351754Y-78233300D01*
X89317266Y-78164298D01*
X89276310Y-78079814D01*
X89230630Y-77983373D01*
X89181969Y-77878503D01*
X89155022Y-77819759D01*
X89106064Y-77712281D01*
X89068178Y-77627502D01*
X89040187Y-77562353D01*
X89020912Y-77513764D01*
X89009178Y-77478667D01*
X89003805Y-77453992D01*
X89003616Y-77436672D01*
X89007434Y-77423636D01*
X89026948Y-77395834D01*
X89062366Y-77368806D01*
X89063372Y-77368350D01*
X89089453Y-77359030D01*
X89112692Y-77358324D01*
X89135208Y-77368940D01*
G36*
X94023834Y-70316031D02*
G01*
X94267638Y-70338413D01*
X94494132Y-70383551D01*
X94711742Y-70453345D01*
X94928891Y-70549696D01*
X95143845Y-70672715D01*
X95374534Y-70840422D01*
X95588459Y-71034323D01*
X95780911Y-71249618D01*
X95947180Y-71481507D01*
X96082553Y-71725190D01*
X96094841Y-71751258D01*
X96197750Y-72002881D01*
X96275946Y-72264345D01*
X96330439Y-72540646D01*
X96362241Y-72836779D01*
X96372360Y-73157739D01*
X96360056Y-73489528D01*
X96321001Y-73816276D01*
X96254590Y-74122149D01*
X96160227Y-74409317D01*
X96037320Y-74679949D01*
X95885273Y-74936214D01*
X95742450Y-75132000D01*
X95545243Y-75352289D01*
X95330296Y-75540974D01*
X95097703Y-75697993D01*
X94847558Y-75823285D01*
X94579957Y-75916786D01*
X94294992Y-75978437D01*
X94291740Y-75978917D01*
X94236862Y-75983732D01*
X94154049Y-75987304D01*
X94050958Y-75989465D01*
X93935246Y-75990050D01*
X93814572Y-75988891D01*
X93729997Y-75987192D01*
X93604512Y-75983258D01*
X93503958Y-75977626D01*
X93421083Y-75969694D01*
X93348634Y-75958863D01*
X93279357Y-75944530D01*
X93201416Y-75926007D01*
X93120099Y-75904914D01*
X93046556Y-75882787D01*
X92974112Y-75857033D01*
X92896093Y-75825060D01*
X92805825Y-75784278D01*
X92696631Y-75732093D01*
X92561839Y-75665915D01*
X92189036Y-75481677D01*
X92487628Y-74991231D01*
X92526719Y-74927041D01*
X92596950Y-74811810D01*
X92659811Y-74708794D01*
X92713004Y-74621748D01*
X92754233Y-74554432D01*
X92781200Y-74510601D01*
X92791607Y-74494015D01*
X92794502Y-74494510D01*
X92817820Y-74510742D01*
X92858786Y-74544429D01*
X92910927Y-74590345D01*
X93003787Y-74669678D01*
X93169562Y-74786990D01*
X93330403Y-74868771D01*
X93446631Y-74909611D01*
X93643222Y-74951348D01*
X93836378Y-74958746D01*
X94023299Y-74932309D01*
X94201183Y-74872540D01*
X94367230Y-74779943D01*
X94518637Y-74655022D01*
X94602886Y-74563014D01*
X94721574Y-74392831D01*
X94818964Y-74195342D01*
X94895519Y-73969536D01*
X94951707Y-73714401D01*
X94954256Y-73698562D01*
X94966033Y-73595903D01*
X94974800Y-73468351D01*
X94980486Y-73324622D01*
X94983021Y-73173431D01*
X94982333Y-73023493D01*
X94978352Y-72883524D01*
X94971006Y-72762241D01*
X94960225Y-72668357D01*
X94918900Y-72455692D01*
X94849365Y-72207270D01*
X94761915Y-71989781D01*
X94656665Y-71803393D01*
X94533732Y-71648273D01*
X94393235Y-71524590D01*
X94235288Y-71432512D01*
X94060010Y-71372209D01*
X94021121Y-71364724D01*
X93923666Y-71354951D01*
X93809773Y-71351761D01*
X93692204Y-71354979D01*
X93583717Y-71364429D01*
X93497072Y-71379936D01*
X93352732Y-71429313D01*
X93185228Y-71519456D01*
X93036080Y-71638084D01*
X93009756Y-71663073D01*
X92962057Y-71707285D01*
X92928345Y-71737042D01*
X92914649Y-71746941D01*
X92911277Y-71742207D01*
X92890523Y-71712313D01*
X92853028Y-71658033D01*
X92801270Y-71582962D01*
X92737728Y-71490694D01*
X92664877Y-71384823D01*
X92585197Y-71268944D01*
X92259286Y-70794817D01*
X92332092Y-70773004D01*
X92339690Y-70770532D01*
X92389145Y-70750898D01*
X92460447Y-70719239D01*
X92545228Y-70679362D01*
X92635120Y-70635076D01*
X92674292Y-70615496D01*
X92891804Y-70514409D01*
X93092283Y-70436238D01*
X93283438Y-70378985D01*
X93472981Y-70340649D01*
X93668622Y-70319231D01*
X93878072Y-70312731D01*
X94023834Y-70316031D01*
G37*
X94023834Y-70316031D02*
X94267638Y-70338413D01*
X94494132Y-70383551D01*
X94711742Y-70453345D01*
X94928891Y-70549696D01*
X95143845Y-70672715D01*
X95374534Y-70840422D01*
X95588459Y-71034323D01*
X95780911Y-71249618D01*
X95947180Y-71481507D01*
X96082553Y-71725190D01*
X96094841Y-71751258D01*
X96197750Y-72002881D01*
X96275946Y-72264345D01*
X96330439Y-72540646D01*
X96362241Y-72836779D01*
X96372360Y-73157739D01*
X96360056Y-73489528D01*
X96321001Y-73816276D01*
X96254590Y-74122149D01*
X96160227Y-74409317D01*
X96037320Y-74679949D01*
X95885273Y-74936214D01*
X95742450Y-75132000D01*
X95545243Y-75352289D01*
X95330296Y-75540974D01*
X95097703Y-75697993D01*
X94847558Y-75823285D01*
X94579957Y-75916786D01*
X94294992Y-75978437D01*
X94291740Y-75978917D01*
X94236862Y-75983732D01*
X94154049Y-75987304D01*
X94050958Y-75989465D01*
X93935246Y-75990050D01*
X93814572Y-75988891D01*
X93729997Y-75987192D01*
X93604512Y-75983258D01*
X93503958Y-75977626D01*
X93421083Y-75969694D01*
X93348634Y-75958863D01*
X93279357Y-75944530D01*
X93201416Y-75926007D01*
X93120099Y-75904914D01*
X93046556Y-75882787D01*
X92974112Y-75857033D01*
X92896093Y-75825060D01*
X92805825Y-75784278D01*
X92696631Y-75732093D01*
X92561839Y-75665915D01*
X92189036Y-75481677D01*
X92487628Y-74991231D01*
X92526719Y-74927041D01*
X92596950Y-74811810D01*
X92659811Y-74708794D01*
X92713004Y-74621748D01*
X92754233Y-74554432D01*
X92781200Y-74510601D01*
X92791607Y-74494015D01*
X92794502Y-74494510D01*
X92817820Y-74510742D01*
X92858786Y-74544429D01*
X92910927Y-74590345D01*
X93003787Y-74669678D01*
X93169562Y-74786990D01*
X93330403Y-74868771D01*
X93446631Y-74909611D01*
X93643222Y-74951348D01*
X93836378Y-74958746D01*
X94023299Y-74932309D01*
X94201183Y-74872540D01*
X94367230Y-74779943D01*
X94518637Y-74655022D01*
X94602886Y-74563014D01*
X94721574Y-74392831D01*
X94818964Y-74195342D01*
X94895519Y-73969536D01*
X94951707Y-73714401D01*
X94954256Y-73698562D01*
X94966033Y-73595903D01*
X94974800Y-73468351D01*
X94980486Y-73324622D01*
X94983021Y-73173431D01*
X94982333Y-73023493D01*
X94978352Y-72883524D01*
X94971006Y-72762241D01*
X94960225Y-72668357D01*
X94918900Y-72455692D01*
X94849365Y-72207270D01*
X94761915Y-71989781D01*
X94656665Y-71803393D01*
X94533732Y-71648273D01*
X94393235Y-71524590D01*
X94235288Y-71432512D01*
X94060010Y-71372209D01*
X94021121Y-71364724D01*
X93923666Y-71354951D01*
X93809773Y-71351761D01*
X93692204Y-71354979D01*
X93583717Y-71364429D01*
X93497072Y-71379936D01*
X93352732Y-71429313D01*
X93185228Y-71519456D01*
X93036080Y-71638084D01*
X93009756Y-71663073D01*
X92962057Y-71707285D01*
X92928345Y-71737042D01*
X92914649Y-71746941D01*
X92911277Y-71742207D01*
X92890523Y-71712313D01*
X92853028Y-71658033D01*
X92801270Y-71582962D01*
X92737728Y-71490694D01*
X92664877Y-71384823D01*
X92585197Y-71268944D01*
X92259286Y-70794817D01*
X92332092Y-70773004D01*
X92339690Y-70770532D01*
X92389145Y-70750898D01*
X92460447Y-70719239D01*
X92545228Y-70679362D01*
X92635120Y-70635076D01*
X92674292Y-70615496D01*
X92891804Y-70514409D01*
X93092283Y-70436238D01*
X93283438Y-70378985D01*
X93472981Y-70340649D01*
X93668622Y-70319231D01*
X93878072Y-70312731D01*
X94023834Y-70316031D01*
G36*
X100541020Y-77356432D02*
G01*
X100643663Y-77356688D01*
X100722142Y-77357466D01*
X100780172Y-77359052D01*
X100821469Y-77361732D01*
X100849750Y-77365790D01*
X100868732Y-77371512D01*
X100882129Y-77379183D01*
X100893660Y-77389090D01*
X100896036Y-77391327D01*
X100905680Y-77401364D01*
X100913191Y-77413370D01*
X100918837Y-77430857D01*
X100922883Y-77457334D01*
X100925596Y-77496315D01*
X100927242Y-77551310D01*
X100928088Y-77625830D01*
X100928400Y-77723387D01*
X100928445Y-77847492D01*
X100928396Y-77944401D01*
X100928065Y-78048481D01*
X100927218Y-78128648D01*
X100925624Y-78188398D01*
X100923053Y-78231228D01*
X100919275Y-78260634D01*
X100914058Y-78280112D01*
X100907171Y-78293160D01*
X100898386Y-78303274D01*
X100893947Y-78307504D01*
X100882601Y-78315640D01*
X100866622Y-78321863D01*
X100842377Y-78326430D01*
X100806235Y-78329595D01*
X100754563Y-78331613D01*
X100683728Y-78332739D01*
X100590098Y-78333227D01*
X100470043Y-78333334D01*
X100413981Y-78333318D01*
X100305945Y-78333075D01*
X100222745Y-78332339D01*
X100160749Y-78330854D01*
X100116325Y-78328365D01*
X100085840Y-78324618D01*
X100065662Y-78319357D01*
X100052159Y-78312327D01*
X100041699Y-78303274D01*
X100022093Y-78274518D01*
X100011640Y-78235641D01*
X100018961Y-78203813D01*
X100041699Y-78168008D01*
X100048328Y-78161873D01*
X100061342Y-78153503D01*
X100080135Y-78147345D01*
X100108753Y-78143063D01*
X100151243Y-78140320D01*
X100211651Y-78138778D01*
X100294024Y-78138100D01*
X100402409Y-78137949D01*
X100733060Y-78137949D01*
X100733060Y-77927535D01*
X100518475Y-77927535D01*
X100470789Y-77927341D01*
X100383420Y-77925048D01*
X100320525Y-77919143D01*
X100278274Y-77908353D01*
X100252837Y-77891404D01*
X100240384Y-77867021D01*
X100237084Y-77833931D01*
X100238146Y-77806963D01*
X100245138Y-77777905D01*
X100262171Y-77757467D01*
X100293245Y-77744159D01*
X100342357Y-77736496D01*
X100413508Y-77732989D01*
X100510696Y-77732150D01*
X100734560Y-77732150D01*
X100725546Y-77559310D01*
X100395745Y-77555251D01*
X100312414Y-77554081D01*
X100221268Y-77552158D01*
X100153496Y-77549588D01*
X100105230Y-77546059D01*
X100072602Y-77541261D01*
X100051746Y-77534885D01*
X100038793Y-77526620D01*
X100030784Y-77518095D01*
X100013465Y-77475916D01*
X100018205Y-77428404D01*
X100044533Y-77387055D01*
X100048863Y-77383163D01*
X100060818Y-77374707D01*
X100076932Y-77368247D01*
X100100905Y-77363515D01*
X100136437Y-77360244D01*
X100187227Y-77358165D01*
X100256976Y-77357012D01*
X100349384Y-77356516D01*
X100468150Y-77356410D01*
X100541020Y-77356432D01*
G37*
X100541020Y-77356432D02*
X100643663Y-77356688D01*
X100722142Y-77357466D01*
X100780172Y-77359052D01*
X100821469Y-77361732D01*
X100849750Y-77365790D01*
X100868732Y-77371512D01*
X100882129Y-77379183D01*
X100893660Y-77389090D01*
X100896036Y-77391327D01*
X100905680Y-77401364D01*
X100913191Y-77413370D01*
X100918837Y-77430857D01*
X100922883Y-77457334D01*
X100925596Y-77496315D01*
X100927242Y-77551310D01*
X100928088Y-77625830D01*
X100928400Y-77723387D01*
X100928445Y-77847492D01*
X100928396Y-77944401D01*
X100928065Y-78048481D01*
X100927218Y-78128648D01*
X100925624Y-78188398D01*
X100923053Y-78231228D01*
X100919275Y-78260634D01*
X100914058Y-78280112D01*
X100907171Y-78293160D01*
X100898386Y-78303274D01*
X100893947Y-78307504D01*
X100882601Y-78315640D01*
X100866622Y-78321863D01*
X100842377Y-78326430D01*
X100806235Y-78329595D01*
X100754563Y-78331613D01*
X100683728Y-78332739D01*
X100590098Y-78333227D01*
X100470043Y-78333334D01*
X100413981Y-78333318D01*
X100305945Y-78333075D01*
X100222745Y-78332339D01*
X100160749Y-78330854D01*
X100116325Y-78328365D01*
X100085840Y-78324618D01*
X100065662Y-78319357D01*
X100052159Y-78312327D01*
X100041699Y-78303274D01*
X100022093Y-78274518D01*
X100011640Y-78235641D01*
X100018961Y-78203813D01*
X100041699Y-78168008D01*
X100048328Y-78161873D01*
X100061342Y-78153503D01*
X100080135Y-78147345D01*
X100108753Y-78143063D01*
X100151243Y-78140320D01*
X100211651Y-78138778D01*
X100294024Y-78138100D01*
X100402409Y-78137949D01*
X100733060Y-78137949D01*
X100733060Y-77927535D01*
X100518475Y-77927535D01*
X100470789Y-77927341D01*
X100383420Y-77925048D01*
X100320525Y-77919143D01*
X100278274Y-77908353D01*
X100252837Y-77891404D01*
X100240384Y-77867021D01*
X100237084Y-77833931D01*
X100238146Y-77806963D01*
X100245138Y-77777905D01*
X100262171Y-77757467D01*
X100293245Y-77744159D01*
X100342357Y-77736496D01*
X100413508Y-77732989D01*
X100510696Y-77732150D01*
X100734560Y-77732150D01*
X100725546Y-77559310D01*
X100395745Y-77555251D01*
X100312414Y-77554081D01*
X100221268Y-77552158D01*
X100153496Y-77549588D01*
X100105230Y-77546059D01*
X100072602Y-77541261D01*
X100051746Y-77534885D01*
X100038793Y-77526620D01*
X100030784Y-77518095D01*
X100013465Y-77475916D01*
X100018205Y-77428404D01*
X100044533Y-77387055D01*
X100048863Y-77383163D01*
X100060818Y-77374707D01*
X100076932Y-77368247D01*
X100100905Y-77363515D01*
X100136437Y-77360244D01*
X100187227Y-77358165D01*
X100256976Y-77357012D01*
X100349384Y-77356516D01*
X100468150Y-77356410D01*
X100541020Y-77356432D01*
G36*
X87625531Y-77356412D02*
G01*
X87750843Y-77356532D01*
X87850048Y-77356984D01*
X87926478Y-77357972D01*
X87983459Y-77359697D01*
X88024323Y-77362361D01*
X88052397Y-77366169D01*
X88071012Y-77371321D01*
X88083496Y-77378020D01*
X88093179Y-77386470D01*
X88118216Y-77430029D01*
X88120142Y-77480057D01*
X88098364Y-77524310D01*
X88096553Y-77526245D01*
X88081638Y-77537376D01*
X88058868Y-77544771D01*
X88022696Y-77549157D01*
X87967573Y-77551256D01*
X87887950Y-77551795D01*
X87702409Y-77551795D01*
X87702409Y-77902963D01*
X87702309Y-78003918D01*
X87701766Y-78092674D01*
X87700458Y-78158955D01*
X87698067Y-78206773D01*
X87694271Y-78240146D01*
X87688752Y-78263086D01*
X87681188Y-78279610D01*
X87671259Y-78293733D01*
X87668210Y-78297469D01*
X87626700Y-78327614D01*
X87580929Y-78329696D01*
X87537084Y-78303274D01*
X87527793Y-78292523D01*
X87520508Y-78278412D01*
X87515156Y-78257319D01*
X87511440Y-78225398D01*
X87509064Y-78178802D01*
X87507734Y-78113685D01*
X87507153Y-78026201D01*
X87507025Y-77912505D01*
X87507025Y-77551795D01*
X87312731Y-77551795D01*
X87297953Y-77551794D01*
X87222708Y-77551494D01*
X87170992Y-77549977D01*
X87137185Y-77546250D01*
X87115668Y-77539318D01*
X87100821Y-77528186D01*
X87087024Y-77511860D01*
X87065926Y-77471003D01*
X87070056Y-77426029D01*
X87104197Y-77382712D01*
X87110775Y-77377763D01*
X87124369Y-77371325D01*
X87144906Y-77366314D01*
X87175689Y-77362557D01*
X87220020Y-77359876D01*
X87281201Y-77358096D01*
X87362535Y-77357043D01*
X87467323Y-77356539D01*
X87598867Y-77356410D01*
X87625531Y-77356412D01*
G37*
X87625531Y-77356412D02*
X87750843Y-77356532D01*
X87850048Y-77356984D01*
X87926478Y-77357972D01*
X87983459Y-77359697D01*
X88024323Y-77362361D01*
X88052397Y-77366169D01*
X88071012Y-77371321D01*
X88083496Y-77378020D01*
X88093179Y-77386470D01*
X88118216Y-77430029D01*
X88120142Y-77480057D01*
X88098364Y-77524310D01*
X88096553Y-77526245D01*
X88081638Y-77537376D01*
X88058868Y-77544771D01*
X88022696Y-77549157D01*
X87967573Y-77551256D01*
X87887950Y-77551795D01*
X87702409Y-77551795D01*
X87702409Y-77902963D01*
X87702309Y-78003918D01*
X87701766Y-78092674D01*
X87700458Y-78158955D01*
X87698067Y-78206773D01*
X87694271Y-78240146D01*
X87688752Y-78263086D01*
X87681188Y-78279610D01*
X87671259Y-78293733D01*
X87668210Y-78297469D01*
X87626700Y-78327614D01*
X87580929Y-78329696D01*
X87537084Y-78303274D01*
X87527793Y-78292523D01*
X87520508Y-78278412D01*
X87515156Y-78257319D01*
X87511440Y-78225398D01*
X87509064Y-78178802D01*
X87507734Y-78113685D01*
X87507153Y-78026201D01*
X87507025Y-77912505D01*
X87507025Y-77551795D01*
X87312731Y-77551795D01*
X87297953Y-77551794D01*
X87222708Y-77551494D01*
X87170992Y-77549977D01*
X87137185Y-77546250D01*
X87115668Y-77539318D01*
X87100821Y-77528186D01*
X87087024Y-77511860D01*
X87065926Y-77471003D01*
X87070056Y-77426029D01*
X87104197Y-77382712D01*
X87110775Y-77377763D01*
X87124369Y-77371325D01*
X87144906Y-77366314D01*
X87175689Y-77362557D01*
X87220020Y-77359876D01*
X87281201Y-77358096D01*
X87362535Y-77357043D01*
X87467323Y-77356539D01*
X87598867Y-77356410D01*
X87625531Y-77356412D01*
G36*
X102431734Y-77710519D02*
G01*
X102431403Y-77844872D01*
X102431351Y-77945605D01*
X102431011Y-78049330D01*
X102430154Y-78129225D01*
X102428551Y-78188773D01*
X102425973Y-78231460D01*
X102422192Y-78260769D01*
X102416979Y-78280185D01*
X102410106Y-78293192D01*
X102401344Y-78303274D01*
X102392068Y-78311574D01*
X102374763Y-78321293D01*
X102349270Y-78327622D01*
X102310123Y-78331266D01*
X102251855Y-78332935D01*
X102169000Y-78333334D01*
X102103834Y-78332834D01*
X101961566Y-78326938D01*
X101842771Y-78313508D01*
X101743188Y-78291423D01*
X101658552Y-78259563D01*
X101584600Y-78216808D01*
X101517067Y-78162038D01*
X101509095Y-78154246D01*
X101460011Y-78089663D01*
X101418607Y-78008705D01*
X101390005Y-77923174D01*
X101382974Y-77871593D01*
X101578974Y-77871593D01*
X101603314Y-77939406D01*
X101642816Y-78000538D01*
X101704986Y-78057000D01*
X101786717Y-78096678D01*
X101892090Y-78122155D01*
X101894074Y-78122472D01*
X101959272Y-78130183D01*
X102037415Y-78135696D01*
X102112025Y-78137835D01*
X102236019Y-78137949D01*
X102236019Y-77551795D01*
X102134569Y-77551776D01*
X102130538Y-77551788D01*
X102062479Y-77554404D01*
X101982461Y-77560694D01*
X101906961Y-77569386D01*
X101840449Y-77581763D01*
X101740927Y-77616735D01*
X101664362Y-77669056D01*
X101609109Y-77739665D01*
X101580861Y-77807919D01*
X101578974Y-77871593D01*
X101382974Y-77871593D01*
X101379332Y-77844872D01*
X101381035Y-77816625D01*
X101397427Y-77740184D01*
X101427421Y-77660421D01*
X101466337Y-77588462D01*
X101509495Y-77535433D01*
X101535512Y-77512769D01*
X101608353Y-77460597D01*
X101688638Y-77420483D01*
X101780763Y-77391246D01*
X101889125Y-77371699D01*
X102018119Y-77360660D01*
X102172143Y-77356944D01*
X102224708Y-77356409D01*
X102285566Y-77355859D01*
X102333229Y-77358261D01*
X102369297Y-77366625D01*
X102395368Y-77383960D01*
X102413041Y-77413275D01*
X102423915Y-77457579D01*
X102429590Y-77519881D01*
X102430384Y-77551795D01*
X102431662Y-77603192D01*
X102431734Y-77710519D01*
G37*
X102431734Y-77710519D02*
X102431403Y-77844872D01*
X102431351Y-77945605D01*
X102431011Y-78049330D01*
X102430154Y-78129225D01*
X102428551Y-78188773D01*
X102425973Y-78231460D01*
X102422192Y-78260769D01*
X102416979Y-78280185D01*
X102410106Y-78293192D01*
X102401344Y-78303274D01*
X102392068Y-78311574D01*
X102374763Y-78321293D01*
X102349270Y-78327622D01*
X102310123Y-78331266D01*
X102251855Y-78332935D01*
X102169000Y-78333334D01*
X102103834Y-78332834D01*
X101961566Y-78326938D01*
X101842771Y-78313508D01*
X101743188Y-78291423D01*
X101658552Y-78259563D01*
X101584600Y-78216808D01*
X101517067Y-78162038D01*
X101509095Y-78154246D01*
X101460011Y-78089663D01*
X101418607Y-78008705D01*
X101390005Y-77923174D01*
X101382974Y-77871593D01*
X101578974Y-77871593D01*
X101603314Y-77939406D01*
X101642816Y-78000538D01*
X101704986Y-78057000D01*
X101786717Y-78096678D01*
X101892090Y-78122155D01*
X101894074Y-78122472D01*
X101959272Y-78130183D01*
X102037415Y-78135696D01*
X102112025Y-78137835D01*
X102236019Y-78137949D01*
X102236019Y-77551795D01*
X102134569Y-77551776D01*
X102130538Y-77551788D01*
X102062479Y-77554404D01*
X101982461Y-77560694D01*
X101906961Y-77569386D01*
X101840449Y-77581763D01*
X101740927Y-77616735D01*
X101664362Y-77669056D01*
X101609109Y-77739665D01*
X101580861Y-77807919D01*
X101578974Y-77871593D01*
X101382974Y-77871593D01*
X101379332Y-77844872D01*
X101381035Y-77816625D01*
X101397427Y-77740184D01*
X101427421Y-77660421D01*
X101466337Y-77588462D01*
X101509495Y-77535433D01*
X101535512Y-77512769D01*
X101608353Y-77460597D01*
X101688638Y-77420483D01*
X101780763Y-77391246D01*
X101889125Y-77371699D01*
X102018119Y-77360660D01*
X102172143Y-77356944D01*
X102224708Y-77356409D01*
X102285566Y-77355859D01*
X102333229Y-77358261D01*
X102369297Y-77366625D01*
X102395368Y-77383960D01*
X102413041Y-77413275D01*
X102423915Y-77457579D01*
X102429590Y-77519881D01*
X102430384Y-77551795D01*
X102431662Y-77603192D01*
X102431734Y-77710519D01*
%TD*%
M02*
